SplineFontDB: 3.2
FontName: WmFont-Regular
FullName: Wm Font Regular
FamilyName: Wm Font
Weight: Book
Version: 001.007
ItalicAngle: 0
UnderlinePosition: -100
UnderlineWidth: 50
Ascent: 800
Descent: 200
InvalidEm: 0
sfntRevision: 0x00010000
LayerCount: 2
Layer: 0 1 "Back" 1
Layer: 1 1 "Fore" 0
XUID: [1021 885 1992166579 7370265]
StyleMap: 0x0040
FSType: 0
OS2Version: 4
OS2_WeightWidthSlopeOnly: 0
OS2_UseTypoMetrics: 0
CreationTime: 1782663490
ModificationTime: 1782668550
PfmFamily: 17
TTFWeight: 400
TTFWidth: 5
LineGap: 90
VLineGap: 0
Panose: 2 0 5 3 0 0 0 0 0 0
OS2TypoAscent: 800
OS2TypoAOffset: 0
OS2TypoDescent: -200
OS2TypoDOffset: 0
OS2TypoLinegap: 90
OS2WinAscent: 707
OS2WinAOffset: 0
OS2WinDescent: 153
OS2WinDOffset: 0
HheadAscent: 707
HheadAOffset: 0
HheadDescent: -153
HheadDOffset: 0
OS2SubXSize: 650
OS2SubYSize: 700
OS2SubXOff: 0
OS2SubYOff: 140
OS2SupXSize: 650
OS2SupYSize: 700
OS2SupXOff: 0
OS2SupYOff: 480
OS2StrikeYSize: 49
OS2StrikeYPos: 258
OS2CapHeight: 630
OS2XHeight: 522
OS2Vendor: 'CLGR'
OS2CodePages: 00000001.00000000
OS2UnicodeRanges: 80000003.00000051.00000000.00000000
DEI: 91125
TtTable: prep
PUSHW_1
 511
SCANCTRL
PUSHB_1
 4
SCANTYPE
EndTTInstrs
ShortTable: cvt  2
  33
  633
EndShort
ShortTable: maxp 16
  1
  0
  81
  125
  3
  0
  0
  2
  0
  1
  1
  0
  64
  0
  0
  0
EndShort
LangName: 1033 "" "" "" "Calligraphr : Wm Font Regular : 28-06-2026" "" "Version 001.007" "" "" "" "" "Created with Calligraphr.com" "" "" "" "" "" "Wm Font" "Regular"
GaspTable: 1 65535 15 1
Encoding: UnicodeBmp
UnicodeInterp: none
NameList: AGL For New Fonts
DisplaySize: -48
AntiAlias: 1
FitToEm: 0
WinInfo: 884 17 7
BeginChars: 65541 185

StartChar: .notdef
Encoding: 65536 -1 0
Width: 364
GlyphClass: 1
Flags: W
LayerCount: 2
Fore
SplineSet
33 0 m 1,0,-1
 33 666 l 1,1,-1
 298 666 l 1,2,-1
 298 0 l 1,3,-1
 33 0 l 1,0,-1
66 33 m 1,4,-1
 265 33 l 1,5,-1
 265 633 l 1,6,-1
 66 633 l 1,7,-1
 66 33 l 1,4,-1
EndSplineSet
Validated: 1
EndChar

StartChar: exclam
Encoding: 33 33 5
Width: 176
GlyphClass: 1
Flags: W
LayerCount: 2
Fore
SplineSet
72 602 m 2,0,1
 83 612 83 612 90 612 c 128,-1,2
 97 612 97 612 107 607 c 0,3,4
 118 602 118 602 122 589 c 128,-1,5
 126 576 126 576 126 538 c 0,6,7
 126 525 126 525 124 461 c 0,8,9
 116 237 116 237 107 226 c 0,10,11
 101 218 101 218 84 218 c 0,12,13
 68 218 68 218 61 225 c 0,14,15
 54 231 54 231 54 290 c 0,16,17
 54 299 54 299 56 411 c 2,18,-1
 59 590 l 1,19,-1
 72 602 l 2,0,1
63 184 m 0,20,21
 76 194 76 194 90 194 c 0,22,23
 105 194 105 194 115.5 182.5 c 128,-1,24
 126 171 126 171 126 153 c 0,25,26
 126 133 126 133 112 122 c 0,27,28
 99 112 99 112 86 112 c 0,29,30
 75 112 75 112 63 121 c 0,31,32
 50 132 50 132 50 152 c 0,33,34
 50 173 50 173 63 184 c 0,20,21
EndSplineSet
Validated: 1
EndChar

StartChar: plus
Encoding: 43 43 6
Width: 409
GlyphClass: 1
Flags: W
LayerCount: 2
Fore
SplineSet
184 533 m 0,0,1
 197 541 197 541 206 541 c 0,2,3
 218 541 218 541 227 532 c 0,4,5
 235 523 235 523 239 465 c 2,6,-1
 242 409 l 1,7,-1
 285 411 l 2,8,9
 295 412 295 412 310 412 c 0,10,11
 331 412 331 412 342 401 c 0,12,13
 354 389 354 389 354 377 c 128,-1,14
 354 365 354 365 343 356 c 0,15,16
 332 346 332 346 287 345 c 2,17,-1
 241 343 l 1,18,-1
 238 324 l 2,19,20
 235 308 235 308 235 274 c 0,21,22
 235 248 235 248 225.5 231 c 128,-1,23
 216 214 216 214 202 214 c 0,24,25
 192 214 192 214 182 223 c 0,26,27
 173 231 173 231 173 285 c 2,28,-1
 173 339 l 1,29,-1
 124 339 l 2,30,31
 74 339 74 339 64 349 c 128,-1,32
 54 359 54 359 54 370 c 128,-1,33
 54 381 54 381 61 389 c 0,34,35
 68 399 68 399 120 400 c 2,36,-1
 173 402 l 1,37,-1
 173 463 l 2,38,39
 173 508 173 508 174.5 518 c 128,-1,40
 176 528 176 528 184 533 c 0,0,1
EndSplineSet
Validated: 1
EndChar

StartChar: comma
Encoding: 44 44 7
Width: 209
GlyphClass: 1
Flags: W
LayerCount: 2
Fore
SplineSet
77 196 m 128,-1,1
 90 209 90 209 108 209 c 0,2,3
 124 209 124 209 136 197 c 0,4,5
 156 175 156 175 156 124 c 0,6,7
 156 115 156 115 155 111 c 0,8,9
 150 81 150 81 126.5 49.5 c 128,-1,10
 103 18 103 18 86 18 c 0,11,12
 75 18 75 18 64.5 27 c 128,-1,13
 54 36 54 36 54 46 c 0,14,15
 54 58 54 58 72 85 c 128,-1,16
 90 112 90 112 90 125 c 0,17,18
 90 136 90 136 77 149 c 128,-1,19
 64 162 64 162 64 173 c 0,20,0
 64 183 64 183 77 196 c 128,-1,1
EndSplineSet
Validated: 1
EndChar

StartChar: hyphen
Encoding: 45 45 8
Width: 328
GlyphClass: 1
Flags: W
LayerCount: 2
Fore
SplineSet
65 326 m 2,0,-1
 78 340 l 1,1,-1
 167 338 l 2,2,3
 232 336 232 336 245 334.5 c 128,-1,4
 258 333 258 333 265 324 c 0,5,6
 274 312 274 312 274 303 c 0,7,8
 274 293 274 293 264 283 c 0,9,10
 257 275 257 275 243 273.5 c 128,-1,11
 229 272 229 272 164 272 c 0,12,13
 76 272 76 272 70 276 c 0,14,15
 65 280 65 280 58.5 291 c 128,-1,16
 52 302 52 302 52 308 c 0,17,18
 52 315 52 315 65 326 c 2,0,-1
EndSplineSet
Validated: 1
EndChar

StartChar: period
Encoding: 46 46 9
Width: 191
GlyphClass: 1
Flags: W
LayerCount: 2
Fore
SplineSet
65 192 m 0,0,1
 78 205 78 205 92 205 c 0,2,3
 110 205 110 205 124 188 c 0,4,5
 137 174 137 174 137 159 c 0,6,7
 137 146 137 146 126 134 c 0,8,9
 112 119 112 119 93 119 c 128,-1,10
 74 119 74 119 64 131 c 0,11,12
 53 142 53 142 53 160 c 128,-1,13
 53 178 53 178 65 192 c 0,0,1
EndSplineSet
Validated: 1
EndChar

StartChar: zero
Encoding: 48 48 10
Width: 477
GlyphClass: 1
Flags: W
LayerCount: 2
Fore
SplineSet
296 542 m 0,0,1
 277 567 277 567 265 567 c 0,2,3
 256 567 256 567 235 555 c 0,4,5
 163 517 163 517 131 432 c 0,6,7
 117 395 117 395 117 346 c 0,8,9
 117 300 117 300 130 274 c 0,10,11
 149 238 149 238 187 216 c 128,-1,12
 225 194 225 194 269 193 c 2,13,-1
 273 193 l 2,14,15
 326 193 326 193 345 219 c 128,-1,16
 364 245 364 245 365 316 c 0,17,18
 365 453 365 453 296 542 c 0,0,1
211 632 m 0,19,20
 226 639 226 639 245 639 c 0,21,22
 283 639 283 639 320 607 c 128,-1,23
 357 575 357 575 385 518 c 0,24,25
 411 465 411 465 417 433 c 128,-1,26
 423 401 423 401 424 323 c 0,27,28
 424 261 424 261 422.5 243 c 128,-1,29
 421 225 421 225 413 208 c 0,30,31
 394 169 394 169 356.5 147.5 c 128,-1,32
 319 126 319 126 269 126 c 0,33,34
 206 127 206 127 145.5 168 c 128,-1,35
 85 209 85 209 64 266 c 0,36,37
 52 297 52 297 52 346 c 0,38,39
 52 396 52 396 64 432 c 0,40,41
 74 462 74 462 74 471 c 0,42,43
 74 478 74 478 79 480 c 0,44,45
 82 481 82 481 93 502 c 128,-1,46
 104 523 104 523 150.5 574 c 128,-1,47
 197 625 197 625 211 632 c 0,19,20
EndSplineSet
Validated: 1
EndChar

StartChar: one
Encoding: 49 49 11
Width: 301
GlyphClass: 1
Flags: W
LayerCount: 2
Fore
SplineSet
184 643 m 0,0,1
 196 649 196 649 211 649 c 0,2,3
 230 649 230 649 236 641 c 0,4,5
 241 635 241 635 241 564 c 2,6,-1
 241 508 l 1,7,-1
 241 469 l 2,8,9
 241 354 241 354 246 262 c 0,10,11
 250 193 250 193 250 163 c 0,12,13
 250 138 250 138 242 127 c 0,14,15
 232 112 232 112 218 112 c 0,16,17
 207 112 207 112 199 120 c 0,18,19
 192 127 192 127 190 140 c 128,-1,20
 188 153 188 153 186 202 c 0,21,22
 184 279 184 279 181 305 c 0,23,24
 180 311 180 311 178 440 c 2,25,-1
 178 544 l 1,26,-1
 168 531 l 2,27,28
 150 508 150 508 126 486 c 128,-1,29
 102 464 102 464 96 463 c 0,30,31
 94 463 94 463 91 462.5 c 128,-1,32
 88 462 88 462 87 462 c 0,33,34
 73 462 73 462 63 475 c 0,35,36
 55 485 55 485 55 491 c 0,37,38
 55 501 55 501 77 524 c 0,39,40
 82 530 82 530 135 593 c 0,41,42
 173 638 173 638 184 643 c 0,0,1
EndSplineSet
Validated: 1
EndChar

StartChar: two
Encoding: 50 50 12
Width: 425
GlyphClass: 1
Flags: W
LayerCount: 2
Fore
SplineSet
59 166 m 0,0,1
 59 174 59 174 64.5 181 c 128,-1,2
 70 188 70 188 70 196 c 0,3,4
 70 209 70 209 113 249 c 0,5,6
 176 309 176 309 206 345.5 c 128,-1,7
 236 382 236 382 255 421 c 0,8,9
 281 477 281 477 281 503 c 0,10,11
 281 517 281 517 277 526 c 0,12,13
 264 557 264 557 220 557 c 0,14,15
 172 557 172 557 122 521 c 0,16,17
 102 505 102 505 78 505 c 0,18,19
 66 505 66 505 60 511 c 128,-1,20
 54 517 54 517 54 529 c 0,21,22
 54 550 54 550 66 560 c 0,23,24
 78 571 78 571 108.5 587.5 c 128,-1,25
 139 604 139 604 159 611 c 0,26,27
 177 617 177 617 207 617 c 0,28,29
 260 617 260 617 289 604 c 0,30,31
 305 597 305 597 317 581.5 c 128,-1,32
 329 566 329 566 329 552 c 0,33,34
 329 545 329 545 339 525 c 0,35,36
 349 504 349 504 349 478 c 0,37,38
 349 459 349 459 342 453 c 0,39,40
 334 445 334 445 334 441 c 0,41,42
 334 433 334 433 307.5 384.5 c 128,-1,43
 281 336 281 336 267 319 c 0,44,45
 250 297 250 297 204 249 c 2,46,-1
 160 203 l 1,47,-1
 254 206 l 2,48,49
 274 207 274 207 305 207 c 0,50,51
 347 207 347 207 358.5 201.5 c 128,-1,52
 370 196 370 196 370 178 c 128,-1,53
 370 160 370 160 360 152.5 c 128,-1,54
 350 145 350 145 319.5 141.5 c 128,-1,55
 289 138 289 138 220 138 c 2,56,-1
 186 138 l 2,57,58
 139 138 139 138 116.5 139 c 128,-1,59
 94 140 94 140 79.5 143.5 c 128,-1,60
 65 147 65 147 62 151.5 c 128,-1,61
 59 156 59 156 59 166 c 0,0,1
EndSplineSet
Validated: 1
EndChar

StartChar: three
Encoding: 51 51 13
Width: 449
GlyphClass: 1
Flags: W
LayerCount: 2
Fore
SplineSet
135 629 m 0,0,1
 154 632 154 632 184 632 c 0,2,3
 249 632 249 632 273 621 c 0,4,5
 314 602 314 602 338 569.5 c 128,-1,6
 362 537 362 537 362 501 c 2,7,-1
 362 491 l 1,8,9
 358 461 358 461 343 427 c 2,10,-1
 326 391 l 1,11,-1
 344 375 l 2,12,13
 362 359 362 359 379 327 c 0,14,15
 394 295 394 295 394 271 c 0,16,17
 394 227 394 227 340 179 c 0,18,19
 306 147 306 147 300 147 c 0,20,21
 291 147 291 147 221 113 c 0,22,23
 207 106 207 106 144 106 c 0,24,25
 101 106 101 106 89.5 107.5 c 128,-1,26
 78 109 78 109 70 117 c 0,27,28
 58 127 58 127 58 142 c 0,29,30
 58 160 58 160 72 165 c 128,-1,31
 86 170 86 170 137 170 c 0,32,33
 184 170 184 170 196.5 172.5 c 128,-1,34
 209 175 209 175 237 190 c 0,35,36
 277 209 277 209 279 209 c 0,37,38
 283 209 283 209 306 232 c 0,39,40
 328 254 328 254 328 276 c 0,41,42
 328 296 328 296 307 323 c 0,43,44
 300 333 300 333 287 334.5 c 128,-1,45
 274 336 274 336 207 336 c 0,46,47
 143 337 143 337 129.5 339 c 128,-1,48
 116 341 116 341 109 349 c 0,49,50
 100 361 100 361 100 370 c 0,51,52
 100 380 100 380 112 393 c 0,53,54
 120 402 120 402 128 404 c 128,-1,55
 136 406 136 406 160 407 c 0,56,57
 252 408 252 408 261 416 c 0,58,59
 269 422 269 422 285 455.5 c 128,-1,60
 301 489 301 489 301 499 c 0,61,62
 301 520 301 520 279.5 540.5 c 128,-1,63
 258 561 258 561 230 566 c 0,64,65
 222 568 222 568 200 568 c 0,66,67
 134 568 134 568 102 553 c 0,68,69
 92 548 92 548 82 548 c 0,70,71
 68 548 68 548 58 569 c 0,72,73
 51 583 51 583 61 597 c 0,74,75
 76 618 76 618 135 629 c 0,0,1
EndSplineSet
Validated: 1
EndChar

StartChar: four
Encoding: 52 52 14
Width: 495
GlyphClass: 1
Flags: W
LayerCount: 2
Fore
SplineSet
293 449 m 0,0,1
 289 508 289 508 285 508 c 0,2,3
 280 508 280 508 250 468 c 128,-1,4
 220 428 220 428 202 397 c 0,5,6
 193 380 193 380 163 335 c 0,7,8
 140 300 140 300 140 299 c 128,-1,9
 140 298 140 298 151 298 c 0,10,11
 187 298 187 298 246 304.5 c 128,-1,12
 305 311 305 311 305 319 c 0,13,14
 305 331 305 331 302 355 c 0,15,16
 297 392 297 392 293 449 c 0,0,1
298 633 m 0,17,18
 310 638 310 638 314 638 c 0,19,20
 321 638 321 638 331 627 c 0,21,22
 338 620 338 620 341 606.5 c 128,-1,23
 344 593 344 593 347 551 c 0,24,25
 354 470 354 470 355 463 c 0,26,27
 368 350 368 350 368 322 c 0,28,29
 368 318 368 318 392 318 c 128,-1,30
 416 318 416 318 428 305 c 0,31,32
 440 293 440 293 440 284 c 0,33,34
 440 277 440 277 433 267 c 0,35,36
 426 256 426 256 407 256 c 0,37,38
 382 256 382 256 378 248 c 128,-1,39
 374 240 374 240 374 195 c 0,40,41
 374 151 374 151 367.5 136 c 128,-1,42
 361 121 361 121 343 121 c 0,43,44
 323 121 323 121 317 134.5 c 128,-1,45
 311 148 311 148 311 193 c 2,46,-1
 311 247 l 1,47,-1
 266 244 l 2,48,49
 131 233 131 233 89 233 c 0,50,51
 73 233 73 233 67 235 c 0,52,53
 54 242 54 242 54 258 c 0,54,55
 54 286 54 286 91 336 c 0,56,57
 111 362 111 362 154 430.5 c 128,-1,58
 197 499 197 499 215 523 c 0,59,60
 273 602 273 602 280 614 c 0,61,62
 287 627 287 627 298 633 c 0,17,18
EndSplineSet
Validated: 1
EndChar

StartChar: five
Encoding: 53 53 15
Width: 412
GlyphClass: 1
Flags: W
LayerCount: 2
Fore
SplineSet
139 613 m 2,0,1
 162 614 162 614 188 615 c 128,-1,2
 214 616 214 616 228 616.5 c 128,-1,3
 242 617 242 617 251 617 c 0,4,5
 277 617 277 617 288 607 c 0,6,7
 300 596 300 596 300 587 c 0,8,9
 300 577 300 577 287 564 c 0,10,11
 278 555 278 555 265 553 c 128,-1,12
 252 551 252 551 194 551 c 2,13,-1
 113 551 l 1,14,-1
 114 490 l 1,15,-1
 114 428 l 1,16,-1
 161 425 l 2,17,18
 208 422 208 422 237.5 411.5 c 128,-1,19
 267 401 267 401 296 374 c 0,20,21
 322 351 322 351 339.5 322 c 128,-1,22
 357 293 357 293 357 273 c 0,23,24
 357 261 357 261 345.5 227 c 128,-1,25
 334 193 334 193 325 178 c 0,26,27
 319 168 319 168 295 152.5 c 128,-1,28
 271 137 271 137 267 133 c 0,29,30
 253 121 253 121 241 121 c 128,-1,31
 229 121 229 121 224 116 c 0,32,33
 218 110 218 110 180 110 c 0,34,35
 118 110 118 110 95 120 c 128,-1,36
 72 130 72 130 64 138.5 c 128,-1,37
 56 147 56 147 56 161 c 0,38,39
 56 179 56 179 70 187 c 0,40,41
 79 193 79 193 84 193 c 128,-1,42
 89 193 89 193 101 187 c 0,43,44
 126 175 126 175 155 175 c 0,45,46
 196 175 196 175 241 197 c 0,47,48
 270 211 270 211 279 232 c 0,49,50
 289 255 289 255 289 269 c 0,51,52
 289 297 289 297 247 332 c 0,53,54
 222 354 222 354 187 360 c 0,55,56
 155 364 155 364 129 364 c 2,57,-1
 118 364 l 1,58,-1
 102 364 l 2,59,60
 79 364 79 364 70 369.5 c 128,-1,61
 61 375 61 375 56 390 c 0,62,63
 51 407 51 407 51 492 c 0,64,65
 51 576 51 576 60 593 c 2,66,-1
 69 611 l 1,67,-1
 139 613 l 2,0,1
EndSplineSet
Validated: 1
EndChar

StartChar: six
Encoding: 54 54 16
Width: 416
GlyphClass: 1
Flags: W
LayerCount: 2
Fore
SplineSet
256 362 m 0,0,1
 232 375 232 375 220 375 c 0,2,3
 203 375 203 375 172 352 c 0,4,5
 138 327 138 327 129 317 c 128,-1,6
 120 307 120 307 120 294 c 0,7,8
 120 286 120 286 121 280 c 0,9,10
 125 245 125 245 142.5 214 c 128,-1,11
 160 183 160 183 184 170 c 0,12,13
 190 167 190 167 203 167 c 0,14,15
 231 167 231 167 267 176 c 0,16,17
 298 183 298 183 298 272 c 0,18,19
 297 316 297 316 290 331.5 c 128,-1,20
 283 347 283 347 256 362 c 0,0,1
193 622 m 0,21,22
 218 633 218 633 237 633 c 0,23,24
 255 633 255 633 268 632 c 0,25,26
 309 630 309 630 323 623 c 128,-1,27
 337 616 337 616 337 598 c 0,28,29
 337 568 337 568 297 568 c 0,30,31
 285 568 285 568 278 569 c 0,32,33
 270 570 270 570 255 570 c 0,34,35
 231 570 231 570 215.5 562 c 128,-1,36
 200 554 200 554 180 532 c 0,37,38
 157 506 157 506 138 465 c 128,-1,39
 119 424 119 424 119 400 c 0,40,41
 119 394 119 394 120 394 c 0,42,43
 123 393 123 393 136 404 c 0,44,45
 175 437 175 437 220 437 c 0,46,47
 244 437 244 437 282 418.5 c 128,-1,48
 320 400 320 400 334 383 c 0,49,50
 362 346 362 346 362 271 c 0,51,52
 362 179 362 179 324 141 c 0,53,54
 303 120 303 120 291.5 115 c 128,-1,55
 280 110 280 110 244 107 c 0,56,57
 214 105 214 105 204 105 c 0,58,59
 158 105 158 105 142 122 c 0,60,61
 134 131 134 131 114 149 c 0,62,63
 79 182 79 182 62 247 c 0,64,65
 52 286 52 286 52 318 c 0,66,67
 52 343 52 343 53 360 c 0,68,69
 56 429 56 429 67 460 c 0,70,71
 86 517 86 517 120.5 560.5 c 128,-1,72
 155 604 155 604 193 622 c 0,21,22
EndSplineSet
Validated: 1
EndChar

StartChar: seven
Encoding: 55 55 17
Width: 483
GlyphClass: 1
Flags: W
LayerCount: 2
Fore
SplineSet
65 610 m 0,0,1
 72 619 72 619 98 619 c 0,2,3
 103 619 103 619 147 617 c 0,4,5
 227 613 227 613 310 613 c 0,6,7
 375 613 375 613 390 611.5 c 128,-1,8
 405 610 405 610 412 603 c 0,9,10
 423 592 423 592 423 579 c 256,11,12
 423 566 423 566 411 552 c 0,13,14
 401 540 401 540 387 507 c 0,15,16
 374 476 374 476 372 474 c 0,17,18
 369 471 369 471 357.5 439.5 c 128,-1,19
 346 408 346 408 346 402 c 128,-1,20
 346 396 346 396 377 396 c 0,21,22
 429 396 429 396 429 366 c 0,23,24
 429 349 429 349 417 342.5 c 128,-1,25
 405 336 405 336 369 334 c 2,26,-1
 323 331 l 1,27,-1
 307 282 l 1,28,-1
 268 165 l 2,29,30
 251 114 251 114 241 97 c 128,-1,31
 231 80 231 80 216 80 c 0,32,33
 206 80 206 80 195 91 c 0,34,35
 187 99 187 99 187 110 c 0,36,37
 187 124 187 124 202 166 c 0,38,39
 212 195 212 195 229.5 255 c 128,-1,40
 247 315 247 315 248 322 c 1,41,-1
 244 322 l 2,42,43
 239 322 239 322 209 320 c 0,44,45
 202 319 202 319 190 319 c 0,46,47
 144 319 144 319 144 349 c 0,48,49
 144 367 144 367 157.5 373.5 c 128,-1,50
 171 380 171 380 217 385 c 0,51,52
 268 390 268 390 274 393 c 0,53,54
 279 398 279 398 289 433 c 0,55,56
 305 487 305 487 320 517 c 0,57,58
 333 541 333 541 329 545 c 0,59,60
 327 547 327 547 205 550.5 c 128,-1,61
 83 554 83 554 69 564 c 0,62,63
 56 571 56 571 56 588 c 0,64,65
 56 599 56 599 65 610 c 0,0,1
EndSplineSet
Validated: 1
EndChar

StartChar: eight
Encoding: 56 56 18
Width: 427
GlyphClass: 1
Flags: W
LayerCount: 2
Fore
SplineSet
248 362 m 0,0,1
 195 369 195 369 189 369 c 0,2,3
 185 369 185 369 182 368.5 c 128,-1,4
 179 368 179 368 176.5 367 c 128,-1,5
 174 366 174 366 172 365.5 c 128,-1,6
 170 365 170 365 167.5 362.5 c 128,-1,7
 165 360 165 360 163.5 358.5 c 128,-1,8
 162 357 162 357 158 353 c 128,-1,9
 154 349 154 349 152 347 c 0,10,11
 132 327 132 327 125 312.5 c 128,-1,12
 118 298 118 298 118 276 c 0,13,14
 118 247 118 247 151.5 220.5 c 128,-1,15
 185 194 185 194 221 194 c 0,16,17
 241 194 241 194 263.5 203.5 c 128,-1,18
 286 213 286 213 299 227 c 0,19,20
 309 238 309 238 309 251 c 0,21,22
 309 261 309 261 306 285 c 0,23,24
 301 326 301 326 288.5 342 c 128,-1,25
 276 358 276 358 248 362 c 0,0,1
283 579 m 0,26,27
 272 587 272 587 259 587 c 0,28,29
 247 587 247 587 219 577 c 0,30,31
 146 549 146 549 146 532 c 0,32,33
 146 521 146 521 155 495 c 128,-1,34
 164 469 164 469 173 455 c 0,35,36
 180 444 180 444 194 444 c 0,37,38
 197 444 197 444 223 446 c 0,39,40
 253 448 253 448 261.5 451 c 128,-1,41
 270 454 270 454 281 465 c 0,42,43
 315 501 315 501 315 520 c 0,44,45
 315 532 315 532 304 552 c 128,-1,46
 293 572 293 572 283 579 c 0,26,27
216 642 m 0,47,48
 238 648 238 648 258 648 c 0,49,50
 326 648 326 648 360 581 c 0,51,52
 375 551 375 551 375 521 c 0,53,54
 375 474 375 474 338 433 c 2,55,-1
 315 408 l 1,56,-1
 330 393 l 2,57,58
 364 360 364 360 370 275 c 0,59,60
 371 264 371 264 371 245 c 0,61,62
 371 217 371 217 363 203 c 128,-1,63
 355 189 355 189 332 172 c 0,64,65
 299 148 299 148 276.5 139.5 c 128,-1,66
 254 131 254 131 223 131 c 0,67,68
 185 131 185 131 154 146 c 0,69,70
 106 169 106 169 80 204 c 128,-1,71
 54 239 54 239 54 280 c 0,72,73
 54 334 54 334 99 383 c 2,74,-1
 123 410 l 1,75,-1
 107 442 l 2,76,77
 83 490 83 490 83 530 c 128,-1,78
 83 570 83 570 107 589 c 0,79,80
 121 601 121 601 156.5 618 c 128,-1,81
 192 635 192 635 216 642 c 0,47,48
EndSplineSet
Validated: 1
EndChar

StartChar: nine
Encoding: 57 57 19
Width: 372
GlyphClass: 1
Flags: W
LayerCount: 2
Fore
SplineSet
214 542 m 0,0,1
 200 556 200 556 195 556 c 0,2,3
 189 556 189 556 166.5 536.5 c 128,-1,4
 144 517 144 517 136 505 c 0,5,6
 115 478 115 478 115 437 c 0,7,8
 115 429 115 429 116 426 c 0,9,10
 122 392 122 392 171 387 c 0,11,12
 173 387 173 387 177.5 386.5 c 128,-1,13
 182 386 182 386 184 386 c 0,14,15
 216 386 216 386 242 413 c 0,16,17
 252 424 252 424 252 433 c 0,18,19
 252 434 252 434 248 462 c 0,20,21
 237 522 237 522 214 542 c 0,0,1
162 611 m 0,22,23
 178 623 178 623 198 623 c 0,24,25
 213 623 213 623 232 619 c 0,26,27
 255 615 255 615 272 594 c 0,28,29
 290 573 290 573 297 542.5 c 128,-1,30
 304 512 304 512 309 442 c 0,31,32
 314 369 314 369 317 354 c 0,33,34
 318 352 318 352 318 344 c 0,35,36
 318 329 318 329 315 308 c 0,37,38
 311 276 311 276 297.5 253.5 c 128,-1,39
 284 231 284 231 254 205 c 0,40,41
 210 168 210 168 130 145 c 0,42,43
 109 138 109 138 100 138 c 0,44,45
 93 138 93 138 84 144 c 0,46,47
 70 153 70 153 70 169 c 0,48,49
 70 188 70 188 86 194 c 0,50,51
 94 197 94 197 114 207 c 0,52,53
 128 215 128 215 137 215 c 0,54,55
 158 215 158 215 195 241 c 128,-1,56
 232 267 232 267 245 292 c 0,57,58
 255 312 255 312 255 331 c 0,59,60
 255 339 255 339 252 339 c 0,61,62
 247 339 247 339 227 328 c 0,63,64
 208 319 208 319 192 319 c 0,65,66
 180 319 180 319 173 320 c 0,67,68
 103 327 103 327 66 380 c 0,69,70
 53 399 53 399 53 442 c 0,71,72
 53 487 53 487 68 515 c 0,73,74
 78 535 78 535 105 566.5 c 128,-1,75
 132 598 132 598 139 598 c 0,76,77
 143 598 143 598 162 611 c 0,22,23
EndSplineSet
Validated: 1
EndChar

StartChar: colon
Encoding: 58 58 20
Width: 192
GlyphClass: 1
Flags: W
LayerCount: 2
Fore
SplineSet
66 491 m 0,0,1
 79 504 79 504 92 504 c 2,2,-1
 97 504 l 2,3,4
 116 502 116 502 127 487.5 c 128,-1,5
 138 473 138 473 138 449 c 128,-1,6
 138 425 138 425 122 413 c 0,7,8
 107 401 107 401 96 401 c 0,9,10
 86 401 86 401 75 410 c 0,11,12
 53 428 53 428 53 456 c 0,13,14
 53 477 53 477 66 491 c 0,0,1
63 196 m 128,-1,16
 74 210 74 210 93 210 c 0,17,18
 111 210 111 210 124 197 c 0,19,20
 139 181 139 181 139 159 c 0,21,22
 139 148 139 148 135 141 c 0,23,24
 118 111 118 111 96 111 c 0,25,26
 86 111 86 111 75 120 c 0,27,28
 52 140 52 140 52 165 c 0,29,15
 52 182 52 182 63 196 c 128,-1,16
EndSplineSet
Validated: 1
EndChar

StartChar: semicolon
Encoding: 59 59 21
Width: 246
GlyphClass: 1
Flags: W
LayerCount: 2
Fore
SplineSet
118 501 m 0,0,1
 125 509 125 509 139 509 c 0,2,3
 157 509 157 509 174.5 496 c 128,-1,4
 192 483 192 483 192 466 c 0,5,6
 192 444 192 444 176.5 427.5 c 128,-1,7
 161 411 161 411 143 411 c 0,8,9
 132 411 132 411 124 418 c 0,10,11
 117 424 117 424 111 440.5 c 128,-1,12
 105 457 105 457 105 470 c 0,13,14
 105 476 105 476 106 478 c 0,15,16
 109 490 109 490 118 501 c 0,0,1
107 198 m 0,17,18
 122 209 122 209 127 209 c 0,19,20
 137 209 137 209 149 196 c 128,-1,21
 161 183 161 183 165 169 c 0,22,23
 173 139 173 139 173 119 c 0,24,25
 173 109 173 109 171 108 c 0,26,27
 166 105 166 105 166 96 c 0,28,29
 166 88 166 88 145.5 57.5 c 128,-1,30
 125 27 125 27 113 17 c 128,-1,31
 101 7 101 7 82 7 c 0,32,33
 69 7 69 7 63 13 c 128,-1,34
 57 19 57 19 57 30 c 0,35,36
 57 51 57 51 73 68 c 0,37,38
 88 84 88 84 100 109 c 0,39,40
 108 128 108 128 108 132 c 0,41,42
 108 138 108 138 102 150 c 0,43,44
 94 168 94 168 94 176 c 0,45,46
 94 188 94 188 107 198 c 0,17,18
EndSplineSet
Validated: 1
EndChar

StartChar: question
Encoding: 63 63 22
Width: 373
GlyphClass: 1
Flags: W
LayerCount: 2
Fore
SplineSet
92 630 m 0,0,1
 118 639 118 639 178 639 c 0,2,3
 220 639 220 639 233.5 637 c 128,-1,4
 247 635 247 635 263 627 c 0,5,6
 303 607 303 607 316 560 c 0,7,8
 318 554 318 554 318 541 c 0,9,10
 318 509 318 509 301.5 463.5 c 128,-1,11
 285 418 285 418 272 399 c 0,12,13
 268 393 268 393 244 355 c 0,14,15
 218 314 218 314 208 303 c 128,-1,16
 198 292 198 292 187 292 c 0,17,18
 174 292 174 292 164 301 c 128,-1,19
 154 310 154 310 154 322 c 128,-1,20
 154 334 154 334 178 371 c 0,21,22
 253 485 253 485 253 536 c 0,23,24
 253 554 253 554 242 565 c 0,25,26
 228 577 228 577 179 577 c 0,27,28
 143 577 143 577 116 569 c 0,29,30
 91 562 91 562 84 562 c 0,31,32
 70 562 70 562 61 579 c 0,33,34
 56 587 56 587 56 594 c 0,35,36
 56 614 56 614 92 630 c 0,0,1
146 204 m 0,37,38
 159 209 159 209 167 209 c 0,39,40
 177 209 177 209 190 202 c 128,-1,41
 203 195 203 195 207 186 c 128,-1,42
 211 177 211 177 211 155 c 0,43,44
 211 131 211 131 202 121 c 128,-1,45
 193 111 193 111 171 111 c 0,46,47
 123 111 123 111 123 156 c 0,48,49
 123 195 123 195 146 204 c 0,37,38
EndSplineSet
Validated: 1
EndChar

StartChar: at
Encoding: 64 64 23
Width: 635
GlyphClass: 1
Flags: W
LayerCount: 2
Fore
SplineSet
382 416 m 0,0,1
 376 426 376 426 369 426 c 128,-1,2
 362 426 362 426 338 414 c 0,3,4
 269 377 269 377 243 330 c 0,5,6
 237 318 237 318 237 313 c 0,7,8
 237 307 237 307 244 293 c 0,9,10
 265 246 265 246 306 242 c 0,11,12
 311 241 311 241 319 241 c 0,13,14
 331 241 331 241 350 260 c 0,15,16
 368 280 368 280 375 311 c 0,17,18
 385 362 385 362 385 395 c 0,19,20
 385 410 385 410 382 416 c 0,0,1
340 620 m 0,21,22
 347 621 347 621 398 623 c 2,23,-1
 416 623 l 2,24,25
 446 623 446 623 475 608 c 0,26,27
 504 594 504 594 528.5 570 c 128,-1,28
 553 546 553 546 563 522 c 0,29,30
 581 483 581 483 581 405 c 0,31,32
 581 379 581 379 578 358 c 0,33,34
 573 328 573 328 560 289.5 c 128,-1,35
 547 251 547 251 534 232 c 0,36,37
 513 199 513 199 468 199 c 0,38,39
 445 199 445 199 424 209 c 2,40,-1
 401 220 l 1,41,-1
 382 205 l 2,42,43
 351 180 351 180 307 180 c 0,44,45
 256 180 256 180 224 212 c 0,46,47
 178 258 178 258 178 313 c 0,48,49
 178 337 178 337 189 361 c 0,50,51
 205 395 205 395 248.5 429.5 c 128,-1,52
 292 464 292 464 342 484 c 0,53,54
 370 495 370 495 384 495 c 0,55,56
 409 495 409 495 432 453 c 0,57,58
 443 432 443 432 443 405 c 0,59,60
 443 379 443 379 442 359 c 0,61,62
 441 342 441 342 441 317 c 0,63,64
 441 283 441 283 446 272 c 128,-1,65
 451 261 451 261 465 261 c 0,66,67
 478 261 478 261 487.5 277.5 c 128,-1,68
 497 294 497 294 510 337 c 0,69,70
 520 368 520 368 520 413 c 0,71,72
 520 481 520 481 499 511 c 0,73,74
 488 528 488 528 462.5 543.5 c 128,-1,75
 437 559 437 559 418 561 c 2,76,-1
 404 561 l 2,77,78
 374 561 374 561 334 555 c 128,-1,79
 294 549 294 549 277 541 c 0,80,81
 239 524 239 524 199 478 c 128,-1,82
 159 432 159 432 137 381 c 0,83,84
 120 343 120 343 118 290 c 0,85,86
 118 285 118 285 117.5 276 c 128,-1,87
 117 267 117 267 117 264 c 0,88,89
 117 234 117 234 127 207 c 0,90,91
 144 159 144 159 188.5 130.5 c 128,-1,92
 233 102 233 102 287 102 c 0,93,94
 304 102 304 102 320 105 c 0,95,96
 350 110 350 110 360 118 c 0,97,98
 367 123 367 123 396 137 c 0,99,100
 416 146 416 146 429 146 c 0,101,102
 448 146 448 146 456 125 c 0,103,104
 457 122 457 122 457 117 c 0,105,106
 457 94 457 94 421 79 c 0,107,108
 401 70 401 70 397 66 c 0,109,110
 385 56 385 56 350.5 47 c 128,-1,111
 316 38 316 38 289 38 c 0,112,113
 235 38 235 38 194 56 c 128,-1,114
 153 74 153 74 111 116 c 0,115,116
 82 145 82 145 72 167.5 c 128,-1,117
 62 190 62 190 55 239 c 0,118,119
 52 258 52 258 52 278 c 0,120,121
 52 413 52 413 161 530 c 0,122,123
 199 571 199 571 237.5 590.5 c 128,-1,124
 276 610 276 610 340 620 c 0,21,22
EndSplineSet
Validated: 1
EndChar

StartChar: A
Encoding: 65 65 24
Width: 547
GlyphClass: 1
Flags: W
LayerCount: 2
Fore
SplineSet
356 351 m 0,0,1
 356 366 356 366 330.5 436.5 c 128,-1,2
 305 507 305 507 291 535 c 2,3,-1
 283 552 l 1,4,-1
 271 520 l 2,5,6
 254 473 254 473 208 376 c 0,7,8
 197 353 197 353 204 349 c 0,9,10
 212 344 212 344 291 344 c 0,11,12
 356 344 356 344 356 351 c 0,0,1
250 640 m 0,13,14
 263 654 263 654 271 654 c 0,15,16
 275 654 275 654 287 649 c 0,17,18
 313 635 313 635 340.5 579 c 128,-1,19
 368 523 368 523 410 398 c 0,20,21
 465 229 465 229 485 182 c 0,22,23
 493 161 493 161 493 151 c 128,-1,24
 493 141 493 141 485 131 c 0,25,26
 478 122 478 122 465 122 c 0,27,28
 451 122 451 122 440 134 c 0,29,30
 433 142 433 142 422.5 168.5 c 128,-1,31
 412 195 412 195 401 225.5 c 128,-1,32
 390 256 390 256 387 263 c 2,33,-1
 380 282 l 1,34,-1
 167 282 l 1,35,-1
 151 248 l 2,36,37
 131 206 131 206 121 174 c 0,38,39
 113 150 113 150 107.5 141.5 c 128,-1,40
 102 133 102 133 93 130 c 0,41,42
 89 128 89 128 81 128 c 0,43,44
 66 128 66 128 56 144 c 0,45,46
 54 148 54 148 54 154 c 0,47,48
 54 196 54 196 164 432 c 0,49,50
 222 556 222 556 232 610 c 0,51,52
 236 626 236 626 250 640 c 0,13,14
EndSplineSet
Validated: 1
EndChar

StartChar: B
Encoding: 66 66 25
Width: 488
GlyphClass: 1
Flags: W
LayerCount: 2
Fore
SplineSet
217 354 m 0,0,1
 211 355 211 355 157 361 c 2,2,-1
 121 364 l 1,3,-1
 121 328 l 2,4,5
 121 286 121 286 118 247 c 0,6,7
 116 221 116 221 116 217 c 0,8,9
 116 200 116 200 122 198 c 0,10,11
 124 197 124 197 133 197 c 0,12,13
 159 197 159 197 213 204.5 c 128,-1,14
 267 212 267 212 291 219 c 0,15,16
 326 230 326 230 349.5 251 c 128,-1,17
 373 272 373 272 373 290 c 0,18,19
 373 300 373 300 364 308 c 0,20,21
 352 317 352 317 320 329 c 128,-1,22
 288 341 288 341 266 345 c 0,23,24
 249 348 249 348 217 354 c 0,0,1
251 559 m 0,25,26
 213 571 213 571 152 571 c 0,27,28
 139 571 139 571 131 569 c 0,29,30
 125 567 125 567 123 554.5 c 128,-1,31
 121 542 121 542 121 499 c 0,32,33
 121 434 121 434 127 430 c 0,34,35
 131 428 131 428 178 420 c 0,36,37
 202 417 202 417 217 417 c 0,38,39
 234 417 234 417 264 423 c 0,40,41
 308 432 308 432 339 450 c 128,-1,42
 370 468 370 468 370 484 c 0,43,44
 370 492 370 492 359 503 c 0,45,46
 346 516 346 516 310.5 534 c 128,-1,47
 275 552 275 552 251 559 c 0,25,26
86 613 m 0,48,49
 102 625 102 625 113 627 c 128,-1,50
 124 629 124 629 171 629 c 0,51,52
 233 629 233 629 270 618 c 0,53,54
 332 599 332 599 378 564.5 c 128,-1,55
 424 530 424 530 431 498 c 0,56,57
 433 486 433 486 433 481 c 0,58,59
 433 439 433 439 376 400 c 2,60,-1
 353 384 l 1,61,-1
 371 377 l 2,62,63
 402 364 402 364 419.5 341 c 128,-1,64
 437 318 437 318 437 292 c 0,65,66
 437 276 437 276 424 248.5 c 128,-1,67
 411 221 411 221 397 206 c 0,68,69
 371 179 371 179 305 159 c 128,-1,70
 239 139 239 139 157 134 c 0,71,72
 125 132 125 132 122 132 c 0,73,74
 106 132 106 132 98 140 c 0,75,76
 87 151 87 151 73 156 c 0,77,78
 60 162 60 162 55.5 170 c 128,-1,79
 51 178 51 178 51 199 c 0,80,81
 51 222 51 222 57 278 c 0,82,83
 64 342 64 342 64 399 c 0,84,85
 64 416 64 416 62 472 c 0,86,87
 60 542 60 542 60 562 c 0,88,89
 60 585 60 585 61 587 c 0,90,91
 64 595 64 595 86 613 c 0,48,49
EndSplineSet
Validated: 1
EndChar

StartChar: C
Encoding: 67 67 26
Width: 484
GlyphClass: 1
Flags: W
LayerCount: 2
Fore
SplineSet
260 630 m 0,0,1
 296 639 296 639 314 639 c 0,2,3
 331 639 331 639 370 633 c 0,4,5
 414 626 414 626 424 613 c 0,6,7
 431 605 431 605 431 594 c 0,8,9
 431 582 431 582 421 573.5 c 128,-1,10
 411 565 411 565 396 565 c 0,11,12
 392 565 392 565 382 567 c 0,13,14
 365 572 365 572 320 572 c 0,15,16
 279 572 279 572 250 559 c 0,17,18
 187 529 187 529 140 437 c 0,19,20
 126 410 126 410 123 397 c 128,-1,21
 120 384 120 384 120 354 c 0,22,23
 120 309 120 309 129 292 c 0,24,25
 157 239 157 239 212.5 206.5 c 128,-1,26
 268 174 268 174 328 174 c 0,27,28
 342 174 342 174 349 175 c 0,29,30
 369 177 369 177 371 177 c 0,31,32
 385 177 385 177 392 170 c 0,33,34
 402 160 402 160 402 147 c 128,-1,35
 402 134 402 134 392 122 c 0,36,37
 385 115 385 115 375 113 c 128,-1,38
 365 111 365 111 332 111 c 0,39,40
 262 111 262 111 190 147 c 0,41,42
 127 179 127 179 90.5 235 c 128,-1,43
 54 291 54 291 54 355 c 0,44,45
 54 393 54 393 67 428 c 0,46,47
 96 508 96 508 147 561.5 c 128,-1,48
 198 615 198 615 260 630 c 0,0,1
EndSplineSet
Validated: 1
EndChar

StartChar: D
Encoding: 68 68 27
Width: 492
GlyphClass: 1
Flags: W
LayerCount: 2
Fore
SplineSet
288 535 m 0,0,1
 250 550 250 550 189 554 c 0,2,3
 177 555 177 555 156 555 c 0,4,5
 126 555 126 555 122 552 c 0,6,7
 116 549 116 549 116 529 c 0,8,9
 116 525 116 525 118 483 c 0,10,11
 122 413 122 413 122 310 c 2,12,-1
 122 202 l 1,13,-1
 204 203 l 2,14,15
 274 205 274 205 295.5 212 c 128,-1,16
 317 219 317 219 338 247 c 0,17,18
 368 289 368 289 377 336 c 0,19,20
 380 357 380 357 380 378 c 0,21,22
 380 420 380 420 368.5 457.5 c 128,-1,23
 357 495 357 495 339 510 c 0,24,25
 326 521 326 521 288 535 c 0,0,1
61 606 m 0,26,27
 77 617 77 617 145 617 c 0,28,29
 193 617 193 617 244 611 c 0,30,31
 283 606 283 606 299 601.5 c 128,-1,32
 315 597 315 597 342 582 c 0,33,34
 377 563 377 563 396 541 c 128,-1,35
 415 519 415 519 429 481 c 0,36,37
 441 449 441 449 441 399 c 2,38,-1
 441 378 l 2,39,40
 441 306 441 306 429 281 c 0,41,42
 418 257 418 257 418 253 c 0,43,44
 418 246 418 246 391 212 c 128,-1,45
 364 178 364 178 350 169 c 0,46,47
 305 137 305 137 240 137 c 0,48,49
 227 137 227 137 220 138 c 0,50,51
 216 138 216 138 205.5 138.5 c 128,-1,52
 195 139 195 139 189 139 c 0,53,54
 156 139 156 139 133 136 c 256,55,56
 110 133 110 133 100 133 c 0,57,58
 87 133 87 133 76 141 c 2,59,-1
 63 151 l 1,60,-1
 60 311 l 2,61,62
 57 449 57 449 52 534 c 0,63,64
 50 578 50 578 50 580 c 0,65,66
 50 598 50 598 61 606 c 0,26,27
EndSplineSet
Validated: 1
EndChar

StartChar: E
Encoding: 69 69 28
Width: 380
GlyphClass: 1
Flags: W
LayerCount: 2
Fore
SplineSet
199 623 m 0,0,1
 261 628 261 628 277 628 c 0,2,3
 303 628 303 628 310 621 c 0,4,5
 318 613 318 613 318 597 c 0,6,7
 318 584 318 584 312 578 c 0,8,9
 302 569 302 569 252.5 564.5 c 128,-1,10
 203 560 203 560 159.5 557 c 128,-1,11
 116 554 116 554 116 549 c 0,12,13
 116 545 116 545 122 523 c 0,14,15
 127 505 127 505 127 459 c 2,16,-1
 127 415 l 1,17,-1
 162 419 l 2,18,19
 170 420 170 420 184.5 421 c 128,-1,20
 199 422 199 422 219 423 c 128,-1,21
 239 424 239 424 249 425 c 0,22,23
 264 426 264 426 284 426 c 128,-1,24
 304 426 304 426 313 417 c 0,25,26
 323 407 323 407 323 393 c 0,27,28
 323 383 323 383 317 374 c 0,29,30
 313 369 313 369 280.5 365 c 128,-1,31
 248 361 248 361 208.5 358 c 128,-1,32
 169 355 169 355 162 354 c 2,33,-1
 127 348 l 1,34,-1
 127 181 l 1,35,-1
 213 184 l 2,36,37
 236 185 236 185 271 185 c 0,38,39
 304 185 304 185 312 182 c 0,40,41
 328 175 328 175 328 158 c 0,42,43
 328 146 328 146 319.5 136 c 128,-1,44
 311 126 311 126 297 124 c 0,45,46
 294 123 294 123 207 119 c 0,47,48
 112 114 112 114 100 113 c 0,49,50
 84 111 84 111 80 111 c 0,51,52
 66 111 66 111 61.5 118 c 128,-1,53
 57 125 57 125 57 145 c 0,54,55
 57 166 57 166 60 205 c 0,56,57
 64 273 64 273 64 342 c 0,58,59
 64 527 64 527 54 565 c 0,60,61
 50 581 50 581 50 591 c 0,62,63
 50 598 50 598 53 606 c 0,64,65
 57 615 57 615 64.5 616.5 c 128,-1,66
 72 618 72 618 107 619 c 0,67,68
 189 622 189 622 199 623 c 0,0,1
EndSplineSet
Validated: 1
EndChar

StartChar: F
Encoding: 70 70 29
Width: 408
GlyphClass: 1
Flags: W
LayerCount: 2
Fore
SplineSet
82 626 m 0,0,1
 98 634 98 634 125 634 c 0,2,3
 130 634 130 634 174 632 c 0,4,5
 316 625 316 625 341 613 c 0,6,7
 354 606 354 606 354 589 c 0,8,9
 354 578 354 578 348 569 c 0,10,11
 347 568 347 568 345.5 565 c 128,-1,12
 344 562 344 562 343.5 561.5 c 128,-1,13
 343 561 343 561 340.5 559.5 c 128,-1,14
 338 558 338 558 334 557.5 c 128,-1,15
 330 557 330 557 324 557 c 0,16,17
 320 557 320 557 188 567 c 0,18,19
 134 571 134 571 126 571 c 0,20,21
 119 571 119 571 118 570 c 128,-1,22
 117 569 117 569 117 559 c 0,23,24
 117 530 117 530 122 465.5 c 128,-1,25
 127 401 127 401 130 397 c 0,26,27
 132 395 132 395 144 395 c 128,-1,28
 156 395 156 395 162 396 c 0,29,30
 195 400 195 400 255 400 c 0,31,32
 318 400 318 400 323 395 c 0,33,34
 329 389 329 389 329 374 c 0,35,36
 329 356 329 356 321 348 c 0,37,38
 313 341 313 341 234 337 c 0,39,40
 152 333 152 333 148 331 c 0,41,42
 140 329 140 329 140 233 c 0,43,44
 140 156 140 156 136 134.5 c 128,-1,45
 132 113 132 113 116 109 c 0,46,47
 112 108 112 108 105 108 c 0,48,49
 81 108 81 108 78 123 c 0,50,51
 76 129 76 129 74 272 c 0,52,53
 70 413 70 413 66 432 c 0,54,55
 58 470 58 470 52 541 c 0,56,57
 51 550 51 550 51 565 c 0,58,59
 51 591 51 591 58 604 c 128,-1,60
 65 617 65 617 82 626 c 0,0,1
EndSplineSet
Validated: 1
EndChar

StartChar: G
Encoding: 71 71 30
Width: 547
GlyphClass: 1
Flags: W
LayerCount: 2
Fore
SplineSet
335 650 m 0,0,1
 379 652 379 652 396 652 c 0,2,3
 402 652 402 652 410 652 c 2,4,-1
 418 651 l 2,5,6
 444 646 444 646 444 622 c 0,7,8
 443 588 443 588 378 588 c 0,9,10
 278 588 278 588 226 568 c 0,11,12
 192 555 192 555 179 543 c 128,-1,13
 166 531 166 531 152 500 c 0,14,15
 119 426 119 426 119 383 c 0,16,17
 119 352 119 352 134 315 c 0,18,19
 159 251 159 251 190.5 216.5 c 128,-1,20
 222 182 222 182 272 165 c 0,21,22
 298 156 298 156 318 156 c 0,23,24
 344 156 344 156 377 172 c 0,25,26
 406 186 406 186 416 195 c 128,-1,27
 426 204 426 204 426 218 c 0,28,29
 426 226 426 226 423 239 c 0,30,31
 418 266 418 266 418 295 c 2,32,-1
 418 322 l 1,33,-1
 366 320 l 2,34,35
 356 319 356 319 339 319 c 0,36,37
 311 319 311 319 299.5 325.5 c 128,-1,38
 288 332 288 332 288 348 c 0,39,40
 288 368 288 368 299 374 c 128,-1,41
 310 380 310 380 350 382 c 0,42,43
 401 386 401 386 430 393 c 0,44,45
 445 397 445 397 458 397 c 0,46,47
 493 397 493 397 493 368 c 0,48,49
 493 360 493 360 490 349 c 0,50,51
 486 338 486 338 486 294 c 0,52,53
 486 230 486 230 493 201 c 0,54,55
 494 198 494 198 494 192 c 0,56,57
 494 182 494 182 470 159 c 0,58,59
 418 108 418 108 348 95 c 0,60,61
 324 91 324 91 318 91 c 0,62,63
 305 91 305 91 281 97 c 0,64,65
 245 106 245 106 227 115 c 0,66,67
 207 124 207 124 178.5 143.5 c 128,-1,68
 150 163 150 163 140 174 c 0,69,70
 107 211 107 211 72 297 c 0,71,72
 54 338 54 338 54 367 c 2,73,-1
 54 376 l 2,74,75
 55 428 55 428 82 499 c 128,-1,76
 109 570 109 570 137 592 c 0,77,78
 202 643 202 643 335 650 c 0,0,1
EndSplineSet
Validated: 1
EndChar

StartChar: H
Encoding: 72 72 31
Width: 490
GlyphClass: 1
Flags: W
LayerCount: 2
Fore
SplineSet
393 627 m 2,0,1
 405 633 405 633 409 633 c 128,-1,2
 413 633 413 633 426 623 c 2,3,-1
 440 611 l 1,4,-1
 440 369 l 2,5,6
 438 121 438 121 438 120 c 0,7,8
 433 98 433 98 408 98 c 0,9,10
 400 98 400 98 390 103 c 2,11,-1
 377 111 l 1,12,-1
 377 367 l 1,13,-1
 257 366 l 2,14,15
 135 364 135 364 131 360 c 0,16,17
 130 359 130 359 130 350 c 0,18,19
 130 330 130 330 133 302 c 0,20,21
 136 272 136 272 141 181 c 0,22,23
 143 135 143 135 143 133 c 0,24,25
 143 113 143 113 134 104 c 0,26,27
 124 95 124 95 110 95 c 0,28,29
 97 95 97 95 87 103 c 128,-1,30
 77 111 77 111 74 211 c 0,31,32
 70 324 70 324 64 378 c 0,33,34
 57 447 57 447 53 521 c 0,35,36
 51 563 51 563 51 571 c 0,37,38
 51 599 51 599 57 606 c 128,-1,39
 63 613 63 613 82 613 c 128,-1,40
 101 613 101 613 106 602.5 c 128,-1,41
 111 592 111 592 115 544 c 0,42,43
 116 537 116 537 118 505 c 128,-1,44
 120 473 120 473 121 462 c 2,45,-1
 124 426 l 1,46,-1
 244 427 l 1,47,-1
 294 427 l 2,48,49
 365 427 365 427 371 425 c 2,50,-1
 372 425 l 2,51,52
 377 425 377 425 378 521 c 2,53,-1
 380 621 l 1,54,-1
 393 627 l 2,0,1
EndSplineSet
Validated: 1
EndChar

StartChar: I
Encoding: 73 73 32
Width: 340
GlyphClass: 1
Flags: W
LayerCount: 2
Fore
SplineSet
109 631 m 0,0,1
 115 631 115 631 128.5 631.5 c 128,-1,2
 142 632 142 632 162.5 632.5 c 128,-1,3
 183 633 183 633 197 633 c 2,4,-1
 214 633 l 2,5,6
 256 633 256 633 268 627.5 c 128,-1,7
 280 622 280 622 280 603 c 0,8,9
 280 588 280 588 270 581 c 128,-1,10
 260 574 260 574 234 572 c 2,11,-1
 205 569 l 1,12,-1
 205 527 l 2,13,14
 205 498 205 498 207 336 c 2,15,-1
 208 189 l 1,16,-1
 236 189 l 2,17,18
 259 189 259 189 272.5 180.5 c 128,-1,19
 286 172 286 172 286 159 c 0,20,21
 286 148 286 148 277 138 c 0,22,23
 271 131 271 131 253.5 128.5 c 128,-1,24
 236 126 236 126 173 124 c 0,25,26
 111 122 111 122 107 122 c 0,27,28
 78 122 78 122 71 133 c 0,29,30
 62 145 62 145 62 155 c 0,31,32
 62 181 62 181 111 187 c 2,33,-1
 139 190 l 1,34,-1
 143 250 l 2,35,36
 144 266 144 266 144 330 c 0,37,38
 144 403 144 403 143 438 c 2,39,-1
 139 567 l 1,40,-1
 104 567 l 2,41,42
 80 567 80 567 73 569 c 128,-1,43
 66 571 66 571 60 580 c 0,44,45
 52 593 52 593 58 608 c 0,46,47
 63 621 63 621 72 625 c 128,-1,48
 81 629 81 629 109 631 c 0,0,1
EndSplineSet
Validated: 1
EndChar

StartChar: J
Encoding: 74 74 33
Width: 374
GlyphClass: 1
Flags: W
LayerCount: 2
Fore
SplineSet
272 594 m 0,0,1
 282 603 282 603 293 603 c 256,2,3
 304 603 304 603 314 593 c 0,4,5
 320 587 320 587 322 571.5 c 128,-1,6
 324 556 324 556 324 498 c 2,7,-1
 324 401 l 2,8,9
 322 242 322 242 304 93 c 0,10,11
 301 67 301 67 297 58.5 c 128,-1,12
 293 50 293 50 274 33 c 0,13,14
 238 -2 238 -2 200 -2 c 0,15,16
 188 -2 188 -2 173 1 c 0,17,18
 102 14 102 14 66 91 c 0,19,20
 55 115 55 115 55 127 c 0,21,22
 55 144 55 144 73 152 c 0,23,24
 80 155 80 155 87 155 c 0,25,26
 105 155 105 155 122 122 c 0,27,28
 154 59 154 59 199 59 c 0,29,30
 210 59 210 59 223 72.5 c 128,-1,31
 236 86 236 86 236 99 c 0,32,33
 236 114 236 114 241 119 c 0,34,35
 246 125 246 125 252 231.5 c 128,-1,36
 258 338 258 338 260 448 c 0,37,38
 261 549 261 549 262.5 568 c 128,-1,39
 264 587 264 587 272 594 c 0,0,1
EndSplineSet
Validated: 1
EndChar

StartChar: K
Encoding: 75 75 34
Width: 450
GlyphClass: 1
Flags: W
LayerCount: 2
Fore
SplineSet
310 623 m 0,0,1
 339 649 339 649 348 649 c 0,2,3
 354 649 354 649 364 641 c 0,4,5
 376 629 376 629 376 615 c 2,6,-1
 376 608 l 2,7,8
 374 598 374 598 274 497 c 0,9,10
 173 392 173 392 173 391 c 0,11,12
 176 386 176 386 201 367 c 0,13,14
 227 348 227 348 312 263 c 0,15,16
 370 205 370 205 383 189.5 c 128,-1,17
 396 174 396 174 396 161 c 0,18,19
 396 147 396 147 387 136.5 c 128,-1,20
 378 126 378 126 365 126 c 0,21,22
 356 126 356 126 308 178 c 0,23,24
 239 255 239 255 142 333 c 2,25,-1
 128 344 l 1,26,-1
 124 239 l 2,27,28
 121 161 121 161 119 146.5 c 128,-1,29
 117 132 117 132 107 123 c 0,30,31
 96 112 96 112 88 112 c 0,32,33
 82 112 82 112 70 121 c 2,34,-1
 57 131 l 1,35,-1
 59 266 l 1,36,-1
 59 306 l 2,37,38
 59 425 59 425 54 498 c 0,39,40
 50 546 50 546 50 592 c 0,41,42
 50 611 50 611 51 615 c 0,43,44
 57 644 57 644 81 644 c 0,45,46
 88 644 88 644 95 641 c 0,47,48
 105 637 105 637 107 629 c 128,-1,49
 109 621 109 621 112 569 c 0,50,51
 115 514 115 514 120 469 c 2,52,-1
 124 436 l 1,53,-1
 202 516 l 2,54,55
 269 585 269 585 310 623 c 0,0,1
EndSplineSet
Validated: 1
EndChar

StartChar: L
Encoding: 76 76 35
Width: 385
GlyphClass: 1
Flags: W
LayerCount: 2
Fore
SplineSet
63 615 m 0,0,1
 68 619 68 619 79 619 c 0,2,3
 98 619 98 619 105 610 c 0,4,5
 113 600 113 600 119 455 c 0,6,7
 124 322 124 322 124 259 c 2,8,-1
 124 207 l 1,9,-1
 215 208 l 1,10,-1
 305 210 l 1,11,-1
 319 196 l 2,12,13
 333 182 333 182 329 169 c 0,14,15
 326 155 326 155 318.5 149.5 c 128,-1,16
 311 144 311 144 293 144 c 0,17,18
 280 144 280 144 272 145 c 0,19,20
 265 146 265 146 243 146 c 0,21,22
 194 146 194 146 155 142 c 2,23,-1
 76 136 l 1,24,-1
 66 148 l 2,25,26
 58 156 58 156 58 180 c 0,27,28
 58 184 58 184 60 230 c 0,29,30
 61 241 61 241 61 270 c 0,31,32
 61 345 61 345 55 438 c 0,33,34
 50 530 50 530 50 557 c 0,35,36
 50 606 50 606 63 615 c 0,0,1
EndSplineSet
Validated: 1
EndChar

StartChar: M
Encoding: 77 77 36
Width: 610
GlyphClass: 1
Flags: W
LayerCount: 2
Fore
SplineSet
67 627 m 2,0,1
 83 643 83 643 93 643 c 0,2,3
 104 643 104 643 117 628 c 0,4,5
 129 615 129 615 163 548 c 128,-1,6
 197 481 197 481 225 414 c 0,7,8
 226 411 226 411 229.5 403.5 c 128,-1,9
 233 396 233 396 238 383.5 c 128,-1,10
 243 371 243 371 247 362 c 0,11,12
 270 310 270 310 280 284 c 0,13,14
 295 247 295 247 298 244 c 0,15,16
 299 243 299 243 302 246.5 c 128,-1,17
 305 250 305 250 308 257 c 0,18,19
 403 468 403 468 409 482 c 0,20,21
 441 564 441 564 458.5 591.5 c 128,-1,22
 476 619 476 619 496 619 c 0,23,24
 508 619 508 619 523 613 c 0,25,26
 541 605 541 605 546 597 c 0,27,28
 552 588 552 588 557 523 c 0,29,30
 560 490 560 490 560 462 c 0,31,32
 560 416 560 416 546 248 c 0,33,34
 541 191 541 191 541 150 c 0,35,36
 541 116 541 116 532 105 c 0,37,38
 524 96 524 96 512 96 c 0,39,40
 499 96 499 96 489 106 c 128,-1,41
 479 116 479 116 479 137 c 0,42,43
 479 141 479 141 481 185 c 0,44,45
 482 210 482 210 486 259.5 c 128,-1,46
 490 309 490 309 492 350.5 c 128,-1,47
 494 392 494 392 494 428 c 2,48,-1
 494 455 l 2,49,50
 493 509 493 509 490 509 c 0,51,52
 488 509 488 509 485 502 c 0,53,54
 448 426 448 426 448 419 c 0,55,56
 448 415 448 415 419 355 c 0,57,58
 349 211 349 211 349 185 c 0,59,60
 349 173 349 173 335.5 146.5 c 128,-1,61
 322 120 322 120 313 116 c 0,62,63
 307 113 307 113 301 113 c 0,64,65
 288 113 288 113 277 125.5 c 128,-1,66
 266 138 266 138 261 159 c 0,67,68
 250 202 250 202 155 418 c 2,69,-1
 119 500 l 1,70,-1
 115 359 l 2,71,72
 113 269 113 269 113 249 c 0,73,74
 113 198 113 198 116 177 c 0,75,76
 119 153 119 153 119 144 c 0,77,78
 119 134 119 134 113 126 c 0,79,80
 106 117 106 117 92 117 c 0,81,82
 75 117 75 117 62 133 c 0,83,84
 54 144 54 144 53 172.5 c 128,-1,85
 52 201 52 201 51 379 c 2,86,-1
 50 610 l 1,87,-1
 67 627 l 2,0,1
EndSplineSet
Validated: 1
EndChar

StartChar: N
Encoding: 78 78 37
Width: 515
GlyphClass: 1
Flags: W
LayerCount: 2
Fore
SplineSet
66 627 m 128,-1,1
 76 634 76 634 88 634 c 0,2,3
 133 634 133 634 248 461 c 0,4,5
 300 383 300 383 335 322 c 0,6,7
 340 313 340 313 349.5 298 c 128,-1,8
 359 283 359 283 365.5 272.5 c 128,-1,9
 372 262 372 262 376 256 c 2,10,-1
 392 233 l 1,11,-1
 396 248 l 2,12,13
 400 262 400 262 400 388 c 2,14,-1
 400 438 l 1,15,-1
 400 534 l 2,16,17
 400 615 400 615 408 624 c 0,18,19
 417 634 417 634 427 634 c 128,-1,20
 437 634 437 634 446 625 c 0,21,22
 465 608 465 608 465 428 c 0,23,24
 465 305 465 305 455 186 c 0,25,26
 451 146 451 146 447.5 136 c 128,-1,27
 444 126 444 126 430 119 c 0,28,29
 417 112 417 112 412 112 c 0,30,31
 408 112 408 112 399 118 c 0,32,33
 378 131 378 131 276 299 c 0,34,35
 168 474 168 474 137 510 c 2,36,-1
 121 528 l 1,37,-1
 120 414 l 2,38,39
 120 294 120 294 115 217 c 0,40,41
 109 135 109 135 98 122 c 0,42,43
 89 112 89 112 79 112 c 0,44,45
 68 112 68 112 57 126 c 0,46,47
 50 136 50 136 50 161 c 0,48,49
 50 182 50 182 53 248 c 0,50,51
 57 346 57 346 57 447 c 2,52,-1
 57 488 l 2,53,54
 57 504 57 504 56.5 526.5 c 128,-1,55
 56 549 56 549 56 557 c 0,56,0
 56 620 56 620 66 627 c 128,-1,1
EndSplineSet
Validated: 1
EndChar

StartChar: O
Encoding: 79 79 38
Width: 542
GlyphClass: 1
Flags: W
LayerCount: 2
Fore
SplineSet
374 542 m 0,0,1
 353 554 353 554 305 554 c 0,2,3
 286 554 286 554 268 551 c 0,4,5
 230 544 230 544 186.5 511.5 c 128,-1,6
 143 479 143 479 127 445 c 0,7,8
 117 423 117 423 117 394 c 0,9,10
 117 364 117 364 128 315 c 0,11,12
 139 265 139 265 164.5 216 c 128,-1,13
 190 167 190 167 215 148 c 0,14,15
 233 134 233 134 264 134 c 0,16,17
 300 134 300 134 337 153 c 128,-1,18
 374 172 374 172 389 201 c 0,19,20
 405 231 405 231 416.5 298 c 128,-1,21
 428 365 428 365 428 420 c 0,22,23
 428 442 428 442 427 451 c 0,24,25
 420 515 420 515 374 542 c 0,0,1
248 616 m 0,26,27
 252 618 252 618 277 618 c 0,28,29
 282 618 282 618 294 617.5 c 128,-1,30
 306 617 306 617 313 617 c 0,31,32
 372 615 372 615 396 602 c 0,33,34
 424 588 424 588 448 559.5 c 128,-1,35
 472 531 472 531 482 500 c 0,36,37
 491 473 491 473 491 441 c 0,38,39
 491 414 491 414 490 394 c 0,40,41
 483 235 483 235 443 165 c 0,42,43
 419 123 419 123 367.5 96 c 128,-1,44
 316 69 316 69 264 69 c 0,45,46
 229 69 229 69 204 82 c 0,47,48
 168 101 168 101 142 134 c 0,49,50
 112 171 112 171 80 248 c 0,51,52
 56 309 56 309 54 409 c 0,53,54
 54 442 54 442 56.5 452.5 c 128,-1,55
 59 463 59 463 70 479 c 0,56,57
 134 576 134 576 248 616 c 0,26,27
EndSplineSet
Validated: 1
EndChar

StartChar: P
Encoding: 80 80 39
Width: 417
GlyphClass: 1
Flags: W
LayerCount: 2
Fore
SplineSet
235 555 m 0,0,1
 193 572 193 572 131 572 c 0,2,3
 115 572 115 572 115 569 c 2,4,-1
 115 552 l 2,5,6
 115 420 115 420 117 418 c 2,7,-1
 119 418 l 2,8,9
 121 418 121 418 187 424 c 0,10,11
 231 428 231 428 246 432 c 128,-1,12
 261 436 261 436 273 445 c 0,13,14
 301 468 301 468 301 502 c 0,15,16
 301 509 301 509 300 512 c 0,17,18
 296 529 296 529 235 555 c 0,0,1
115 635 m 0,19,20
 137 637 137 637 146 637 c 0,21,22
 204 637 204 637 273 607 c 0,23,24
 336 580 336 580 354 548 c 0,25,26
 364 531 364 531 364 513 c 0,27,28
 364 500 364 500 363 492 c 0,29,30
 357 406 357 406 277 375 c 0,31,32
 259 368 259 368 210 361.5 c 128,-1,33
 161 355 161 355 123 354 c 0,34,35
 117 354 117 354 114 243 c 0,36,37
 111 148 111 148 106 129.5 c 128,-1,38
 101 111 101 111 79 111 c 0,39,40
 60 111 60 111 54 117 c 0,41,42
 50 125 50 125 50 288 c 2,43,-1
 50 363 l 2,44,45
 51 548 51 548 54 581 c 128,-1,46
 57 614 57 614 74 624 c 0,47,48
 75 625 75 625 76 625 c 0,49,50
 90 632 90 632 115 635 c 0,19,20
EndSplineSet
Validated: 1
EndChar

StartChar: Q
Encoding: 81 81 40
Width: 577
GlyphClass: 1
Flags: W
LayerCount: 2
Fore
SplineSet
443 483 m 0,0,1
 428 503 428 503 370 528.5 c 128,-1,2
 312 554 312 554 264 554 c 0,3,4
 245 554 245 554 233 550 c 0,5,6
 187 538 187 538 142 450 c 0,7,8
 124 416 124 416 121 403 c 128,-1,9
 118 390 118 390 118 352 c 0,10,11
 118 299 118 299 125 278 c 0,12,13
 132 256 132 256 150 230.5 c 128,-1,14
 168 205 168 205 186 193 c 0,15,16
 203 181 203 181 239.5 172.5 c 128,-1,17
 276 164 276 164 305 164 c 0,18,19
 315 164 315 164 320 165 c 0,20,21
 343 169 343 169 343 175 c 0,22,23
 343 178 343 178 337 184 c 0,24,25
 318 203 318 203 318 220 c 0,26,27
 318 226 318 226 331 238.5 c 128,-1,28
 344 251 344 251 351 251 c 128,-1,29
 358 251 358 251 382 227 c 0,30,31
 405 204 405 204 410 204 c 0,32,33
 423 204 423 204 444 270 c 0,34,35
 455 304 455 304 455 385 c 0,36,37
 455 442 455 442 453 456.5 c 128,-1,38
 451 471 451 471 443 483 c 0,0,1
235 617 m 0,39,40
 250 621 250 621 271 621 c 0,41,42
 316 621 316 621 352 605 c 0,43,44
 392 589 392 589 401 584 c 0,45,46
 475 552 475 552 497.5 515.5 c 128,-1,47
 520 479 520 479 520 387 c 0,48,49
 520 251 520 251 465 167 c 2,50,-1
 456 153 l 1,51,-1
 490 117 l 2,52,53
 525 82 525 82 525 65 c 0,54,55
 525 54 525 54 512 44 c 0,56,57
 497 33 497 33 491 33 c 0,58,59
 484 33 484 33 442 77 c 2,60,-1
 400 120 l 1,61,-1
 379 112 l 2,62,63
 359 105 359 105 294 105 c 0,64,65
 256 105 256 105 232 108 c 0,66,67
 192 114 192 114 153 139.5 c 128,-1,68
 114 165 114 165 92 200 c 0,69,70
 73 231 73 231 65 259 c 128,-1,71
 57 287 57 287 55 335 c 0,72,73
 54 350 54 350 54 371 c 0,74,75
 54 400 54 400 64 431 c 0,76,77
 91 512 91 512 145 566 c 0,78,79
 181 602 181 602 235 617 c 0,39,40
EndSplineSet
Validated: 1
EndChar

StartChar: R
Encoding: 82 82 41
Width: 456
GlyphClass: 1
Flags: W
LayerCount: 2
Fore
SplineSet
317 488 m 0,0,1
 296 515 296 515 245 541 c 128,-1,2
 194 567 194 567 148 567 c 2,3,-1
 115 567 l 1,4,-1
 117 478 l 2,5,6
 119 390 119 390 121 377 c 0,7,8
 126 354 126 354 183 354 c 0,9,10
 219 354 219 354 253.5 364.5 c 128,-1,11
 288 375 288 375 301 392 c 0,12,13
 314 408 314 408 321 441 c 0,14,15
 325 460 325 460 325 469 c 0,16,17
 325 479 325 479 317 488 c 0,0,1
73 627 m 0,18,19
 83 632 83 632 118 632 c 0,20,21
 174 632 174 632 211 622 c 0,22,23
 288 601 288 601 338 559 c 128,-1,24
 388 517 388 517 388 474 c 0,25,26
 388 418 388 418 363.5 374 c 128,-1,27
 339 330 339 330 300 313 c 0,28,29
 284 306 284 306 284 303 c 0,30,31
 284 299 284 299 343 240 c 0,32,33
 403 180 403 180 403 168 c 0,34,35
 403 157 403 157 392 144.5 c 128,-1,36
 381 132 381 132 372 132 c 0,37,38
 364 132 364 132 289 205 c 0,39,40
 218 274 218 274 201 284 c 0,41,42
 190 290 190 290 155 294 c 2,43,-1
 123 297 l 1,44,-1
 125 280 l 2,45,46
 132 237 132 237 132 214 c 0,47,48
 132 206 132 206 130 186 c 0,49,50
 124 132 124 132 99 132 c 0,51,52
 90 132 90 132 79 140 c 0,53,54
 72 145 72 145 70 159 c 128,-1,55
 68 173 68 173 66 226 c 0,56,57
 65 250 65 250 61 317.5 c 128,-1,58
 57 385 57 385 56 411 c 0,59,60
 50 520 50 520 50 562 c 0,61,62
 50 599 50 599 54.5 609.5 c 128,-1,63
 59 620 59 620 73 627 c 0,18,19
EndSplineSet
Validated: 1
EndChar

StartChar: S
Encoding: 83 83 42
Width: 414
GlyphClass: 1
Flags: W
LayerCount: 2
Fore
SplineSet
186 642 m 0,0,1
 211 647 211 647 241 647 c 0,2,3
 288 647 288 647 306 638 c 0,4,5
 322 630 322 630 331 618 c 2,6,-1
 341 603 l 1,7,-1
 330 589 l 2,8,9
 320 573 320 573 299 573 c 0,10,11
 290 573 290 573 286 577 c 0,12,13
 281 582 281 582 247 582 c 0,14,15
 202 582 202 582 187 575 c 0,16,17
 160 564 160 564 129 512 c 2,18,-1
 116 490 l 1,19,-1
 129 469 l 2,20,21
 144 445 144 445 198 411 c 128,-1,22
 252 377 252 377 290 368 c 0,23,24
 318 361 318 361 339 334 c 128,-1,25
 360 307 360 307 360 279 c 128,-1,26
 360 251 360 251 341 222.5 c 128,-1,27
 322 194 322 194 295 180 c 0,28,29
 253 159 253 159 225 152.5 c 128,-1,30
 197 146 197 146 149 145 c 2,31,-1
 122 145 l 2,32,33
 85 145 85 145 75 154 c 128,-1,34
 65 163 65 163 65 176 c 0,35,36
 65 187 65 187 72 197 c 0,37,38
 77 204 77 204 86.5 205 c 128,-1,39
 96 206 96 206 135 207 c 0,40,41
 192 207 192 207 227 221 c 0,42,43
 264 235 264 235 278 247.5 c 128,-1,44
 292 260 292 260 292 277 c 2,45,-1
 292 283 l 2,46,47
 292 292 292 292 288 296 c 128,-1,48
 284 300 284 300 267 307 c 0,49,50
 241 318 241 318 237 318 c 0,51,52
 223 318 223 318 147 367 c 0,53,54
 104 395 104 395 79 428 c 128,-1,55
 54 461 54 461 54 490 c 0,56,57
 54 514 54 514 81 557 c 128,-1,58
 108 600 108 600 139 624 c 0,59,60
 153 635 153 635 186 642 c 0,0,1
EndSplineSet
Validated: 1
EndChar

StartChar: T
Encoding: 84 84 43
Width: 523
GlyphClass: 1
Flags: W
LayerCount: 2
Fore
SplineSet
106 620 m 0,0,1
 151 623 151 623 301 623 c 0,2,3
 449 623 449 623 454 620 c 128,-1,4
 459 617 459 617 466 604 c 0,5,6
 472 591 472 591 464 579 c 128,-1,7
 456 567 456 567 441 564.5 c 128,-1,8
 426 562 426 562 365 560 c 2,9,-1
 298 559 l 1,10,-1
 294 393 l 2,11,12
 291 247 291 247 288 206.5 c 128,-1,13
 285 166 285 166 276 156 c 0,14,15
 269 148 269 148 255 148 c 0,16,17
 239 148 239 148 230 158 c 0,18,19
 224 165 224 165 224 184 c 0,20,21
 224 209 224 209 228 265 c 0,22,23
 232 353 232 353 232 429 c 2,24,-1
 232 461 l 1,25,-1
 230 559 l 1,26,-1
 151 559 l 2,27,28
 97 559 97 559 83 560.5 c 128,-1,29
 69 562 69 562 64 569 c 0,30,31
 56 580 56 580 56 590 c 0,32,33
 56 617 56 617 106 620 c 0,0,1
EndSplineSet
Validated: 1
EndChar

StartChar: U
Encoding: 85 85 44
Width: 489
GlyphClass: 1
Flags: W
LayerCount: 2
Fore
SplineSet
362 634 m 0,0,1
 372 644 372 644 382 644 c 0,2,3
 394 644 394 644 407 632 c 2,4,-1
 421 620 l 1,5,-1
 423 546 l 2,6,7
 425 454 425 454 432 404 c 0,8,9
 438 358 438 358 438 328 c 0,10,11
 438 286 438 286 425 254 c 0,12,13
 411 217 411 217 364.5 176 c 128,-1,14
 318 135 318 135 285 129 c 0,15,16
 282 128 282 128 272 128 c 0,17,18
 256 128 256 128 222 132 c 0,19,20
 168 140 168 140 134 169 c 0,21,22
 115 185 115 185 95 219.5 c 128,-1,23
 75 254 75 254 70 280 c 0,24,25
 51 373 51 373 51 516 c 0,26,27
 51 583 51 583 52.5 599.5 c 128,-1,28
 54 616 54 616 62 626 c 0,29,30
 73 640 73 640 89 640 c 0,31,32
 101 640 101 640 110 630 c 0,33,34
 118 620 118 620 118 604 c 0,35,36
 118 600 118 600 116 574 c 0,37,38
 115 561 115 561 115 527 c 0,39,40
 115 463 115 463 120.5 390 c 128,-1,41
 126 317 126 317 133 293 c 0,42,43
 162 201 162 201 239 192 c 0,44,45
 255 190 255 190 258 190 c 0,46,47
 270 190 270 190 288 198 c 0,48,49
 306 207 306 207 329 230.5 c 128,-1,50
 352 254 352 254 362 273 c 128,-1,51
 372 292 372 292 372 345 c 0,52,53
 372 391 372 391 365 441 c 0,54,55
 359 485 359 485 355 561 c 0,56,57
 353 599 353 599 353 603 c 0,58,59
 353 625 353 625 362 634 c 0,0,1
EndSplineSet
Validated: 1
EndChar

StartChar: V
Encoding: 86 86 45
Width: 517
GlyphClass: 1
Flags: W
LayerCount: 2
Fore
SplineSet
70 628 m 0,0,1
 82 632 82 632 86 632 c 0,2,3
 100 632 100 632 111 614 c 128,-1,4
 122 596 122 596 143 542 c 0,5,6
 157 505 157 505 175 467 c 0,7,8
 210 390 210 390 231 336 c 0,9,10
 250 286 250 286 253 275 c 0,11,12
 256 259 256 259 261 259 c 128,-1,13
 266 259 266 259 270 278 c 0,14,15
 278 311 278 311 290.5 347 c 128,-1,16
 303 383 303 383 313.5 408 c 128,-1,17
 324 433 324 433 343 475.5 c 128,-1,18
 362 518 362 518 372 542 c 0,19,20
 394 595 394 595 407 615 c 128,-1,21
 420 635 420 635 434 635 c 0,22,23
 442 635 442 635 453 629 c 0,24,25
 463 622 463 622 463 604 c 0,26,27
 463 587 463 587 455 573 c 0,28,29
 437 538 437 538 408.5 470 c 128,-1,30
 380 402 380 402 375 390 c 0,31,32
 364 366 364 366 364 362 c 128,-1,33
 364 358 364 358 357 342 c 0,34,35
 346 318 346 318 323.5 227.5 c 128,-1,36
 301 137 301 137 301 119 c 0,37,38
 301 111 301 111 288.5 100.5 c 128,-1,39
 276 90 276 90 267 90 c 0,40,41
 251 90 251 90 235 113.5 c 128,-1,42
 219 137 219 137 219 161 c 0,43,44
 219 171 219 171 200 231 c 128,-1,45
 181 291 181 291 172 310 c 0,46,47
 167 320 167 320 151.5 360.5 c 128,-1,48
 136 401 136 401 132 409 c 0,49,50
 106 466 106 466 95 494 c 0,51,52
 81 530 81 530 68 560 c 0,53,54
 55 589 55 589 55 605 c 0,55,56
 55 622 55 622 70 628 c 0,0,1
EndSplineSet
Validated: 1
EndChar

StartChar: W
Encoding: 87 87 46
Width: 749
GlyphClass: 1
Flags: W
LayerCount: 2
Fore
SplineSet
645 617 m 0,0,1
 652 624 652 624 663 624 c 0,2,3
 683 624 683 624 691 607 c 0,4,5
 695 597 695 597 695 595 c 0,6,7
 695 585 695 585 638 440 c 0,8,9
 568 265 568 265 561 158 c 0,10,11
 559 128 559 128 555 120 c 128,-1,12
 551 112 551 112 538 112 c 2,13,-1
 531 112 l 2,14,15
 518 114 518 114 512.5 117 c 128,-1,16
 507 120 507 120 501 132 c 0,17,18
 462 203 462 203 451 244 c 0,19,20
 447 260 447 260 407.5 358 c 128,-1,21
 368 456 368 456 360 470 c 0,22,23
 350 485 350 485 348 478 c 2,24,-1
 335 435 l 2,25,26
 331 425 331 425 324.5 404 c 128,-1,27
 318 383 318 383 316 378 c 0,28,29
 300 330 300 330 276 235 c 128,-1,30
 252 140 252 140 252 126 c 0,31,32
 252 113 252 113 242.5 104.5 c 128,-1,33
 233 96 233 96 220 96 c 128,-1,34
 207 96 207 96 199 105 c 0,35,36
 190 116 190 116 185 153 c 0,37,38
 179 194 179 194 141 326 c 0,39,40
 127 375 127 375 96 462 c 0,41,42
 56 579 56 579 56 590 c 0,43,44
 56 595 56 595 62 605 c 0,45,46
 71 618 71 618 90 618 c 0,47,48
 117 618 117 618 117 599 c 0,49,50
 117 591 117 591 128 562 c 0,51,52
 160 479 160 479 206 326 c 0,53,54
 216 292 216 292 216 285 c 128,-1,55
 216 278 216 278 218 278 c 0,56,57
 223 278 223 278 233 318 c 0,58,59
 240 344 240 344 250.5 376.5 c 128,-1,60
 261 409 261 409 268 432 c 0,61,62
 272 447 272 447 307 553 c 0,63,64
 318 588 318 588 326 598 c 128,-1,65
 334 608 334 608 350 608 c 0,66,67
 359 608 359 608 370 597.5 c 128,-1,68
 381 587 381 587 384 575 c 0,69,70
 389 558 389 558 415 504 c 0,71,72
 437 457 437 457 468 380 c 128,-1,73
 499 303 499 303 503 285 c 0,74,75
 506 272 506 272 511 272 c 128,-1,76
 516 272 516 272 519 289 c 0,77,78
 533 346 533 346 572 445 c 0,79,80
 636 608 636 608 645 617 c 0,0,1
EndSplineSet
Validated: 1
EndChar

StartChar: X
Encoding: 88 88 47
Width: 471
GlyphClass: 1
Flags: W
LayerCount: 2
Fore
SplineSet
66 618 m 0,0,1
 74 624 74 624 81 624 c 0,2,3
 97 624 97 624 119 600 c 128,-1,4
 141 576 141 576 178 519 c 2,5,-1
 225 449 l 1,6,-1
 246 477 l 2,7,8
 252 484 252 484 271 509.5 c 128,-1,9
 290 535 290 535 299 547 c 0,10,11
 356 623 356 623 378 623 c 0,12,13
 388 623 388 623 401 607 c 0,14,15
 408 599 408 599 408 594 c 128,-1,16
 408 589 408 589 401 578 c 0,17,18
 383 551 383 551 292 432 c 0,19,20
 264 395 264 395 264 392 c 0,21,22
 264 378 264 378 334 283 c 0,23,24
 367 238 367 238 392 191 c 128,-1,25
 417 144 417 144 417 128 c 0,26,27
 417 116 417 116 406.5 108.5 c 128,-1,28
 396 101 396 101 386 101 c 0,29,30
 374 101 374 101 367 110 c 0,31,32
 356 121 356 121 339 155 c 0,33,34
 320 191 320 191 253 289 c 0,35,36
 226 328 226 328 223 328 c 0,37,38
 219 328 219 328 176 246.5 c 128,-1,39
 133 165 133 165 131 153 c 0,40,41
 129 140 129 140 118 128 c 128,-1,42
 107 116 107 116 97 116 c 0,43,44
 86 116 86 116 76.5 125.5 c 128,-1,45
 67 135 67 135 67 146 c 0,46,47
 67 159 67 159 84 201 c 128,-1,48
 101 243 101 243 118 273 c 0,49,50
 135 305 135 305 135 307 c 0,51,52
 135 312 135 312 160 351 c 0,53,54
 182 387 182 387 182 394 c 0,55,56
 182 399 182 399 177 406 c 0,57,58
 116 501 116 501 76 554 c 0,59,60
 54 582 54 582 54 597 c 0,61,62
 54 609 54 609 66 618 c 0,0,1
EndSplineSet
Validated: 1
EndChar

StartChar: Y
Encoding: 89 89 48
Width: 482
GlyphClass: 1
Flags: W
LayerCount: 2
Fore
SplineSet
385 625 m 0,0,1
 388 626 388 626 394 627 c 128,-1,2
 400 628 400 628 401 628 c 2,3,-1
 402 628 l 2,4,5
 410 628 410 628 419 617 c 128,-1,6
 428 606 428 606 428 597 c 0,7,8
 428 585 428 585 403 533 c 128,-1,9
 378 481 378 481 355 445 c 0,10,11
 328 403 328 403 307 360 c 2,12,-1
 282 311 l 1,13,-1
 279 224 l 2,14,15
 277 164 277 164 275 148.5 c 128,-1,16
 273 133 273 133 266 128 c 0,17,18
 257 122 257 122 246 122 c 0,19,20
 232 122 232 122 224 130 c 128,-1,21
 216 138 216 138 216 226 c 2,22,-1
 216 315 l 1,23,-1
 184 377 l 2,24,25
 158 429 158 429 122.5 487.5 c 128,-1,26
 87 546 87 546 70 566 c 0,27,28
 56 583 56 583 56 594 c 0,29,30
 56 603 56 603 66 613 c 0,31,32
 77 624 77 624 88 624 c 0,33,34
 111 624 111 624 148 567 c 0,35,36
 166 540 166 540 198.5 483.5 c 128,-1,37
 231 427 231 427 231 423 c 128,-1,38
 231 419 231 419 242 404 c 2,39,-1
 252 389 l 1,40,-1
 257 402 l 2,41,42
 262 414 262 414 297 472 c 0,43,44
 329 525 329 525 353 576 c 0,45,46
 374 621 374 621 385 625 c 0,0,1
EndSplineSet
Validated: 1
EndChar

StartChar: Z
Encoding: 90 90 49
Width: 460
GlyphClass: 1
Flags: W
LayerCount: 2
Fore
SplineSet
183 204 m 0,0,1
 206 204 206 204 268.5 196.5 c 128,-1,2
 331 189 331 189 350 189 c 0,3,4
 373 189 373 189 382 182 c 128,-1,5
 391 175 391 175 391 157 c 0,6,7
 391 140 391 140 384 134 c 128,-1,8
 377 128 377 128 351 128 c 0,9,10
 331 128 331 128 268 133 c 0,11,12
 189 140 189 140 148 140 c 0,13,14
 143 140 143 140 134 139.5 c 128,-1,15
 125 139 125 139 121 139 c 0,16,17
 110 138 110 138 92 138 c 0,18,19
 68 138 68 138 60.5 144 c 128,-1,20
 53 150 53 150 53 168 c 0,21,22
 53 199 53 199 74 231 c 128,-1,23
 95 263 95 263 171 354 c 0,24,25
 223 415 223 415 291 523 c 0,26,27
 308 551 308 551 308 553 c 0,28,29
 308 556 308 556 197 556 c 0,30,31
 113 556 113 556 97 557.5 c 128,-1,32
 81 559 81 559 72 569 c 0,33,34
 60 581 60 581 60 589 c 128,-1,35
 60 597 60 597 70 610 c 2,36,-1
 81 624 l 1,37,-1
 233 623 l 2,38,39
 338 622 338 622 363 620 c 128,-1,40
 388 618 388 618 396 611 c 0,41,42
 406 602 406 602 406 589 c 0,43,44
 406 574 406 574 393 562 c 0,45,46
 382 550 382 550 359 513 c 0,47,48
 293 400 293 400 240 339 c 0,49,50
 137 219 137 219 137 209 c 0,51,52
 137 204 137 204 183 204 c 0,0,1
EndSplineSet
Validated: 1
EndChar

StartChar: a
Encoding: 97 97 50
Width: 455
GlyphClass: 1
Flags: W
LayerCount: 2
Fore
SplineSet
244 281 m 0,0,1
 238 307 238 307 234 371 c 2,2,-1
 231 431 l 1,3,-1
 202 396 l 2,4,5
 177 366 177 366 154 328 c 128,-1,6
 131 290 131 290 125 269 c 0,7,8
 119 247 119 247 119 223 c 0,9,10
 119 205 119 205 122.5 198 c 128,-1,11
 126 191 126 191 138 180 c 0,12,13
 164 157 164 157 189 157 c 0,14,15
 198 157 198 157 210 162 c 0,16,17
 248 180 248 180 248 246 c 0,18,19
 248 257 248 257 244 281 c 0,0,1
211 495 m 0,20,21
 237 511 237 511 252 511 c 0,22,23
 263 511 263 511 269 504 c 0,24,25
 276 496 276 496 287 493 c 0,26,27
 303 489 303 489 307.5 468 c 128,-1,28
 312 447 312 447 315 357 c 0,29,30
 317 277 317 277 319.5 256.5 c 128,-1,31
 322 236 322 236 331 218 c 0,32,33
 344 191 344 191 360.5 169.5 c 128,-1,34
 377 148 377 148 385 146 c 0,35,36
 399 142 399 142 399 122 c 0,37,38
 399 95 399 95 378 87 c 0,39,40
 370 85 370 85 366 85 c 0,41,42
 346 85 346 85 312 125 c 2,43,-1
 292 149 l 1,44,-1
 269 126 l 2,45,46
 236 93 236 93 199 93 c 0,47,48
 178 93 178 93 162 98 c 0,49,50
 94 116 94 116 68 164 c 0,51,52
 54 189 54 189 54 227 c 0,53,54
 54 266 54 266 67 296 c 0,55,56
 88 347 88 347 134 411 c 128,-1,57
 180 475 180 475 211 495 c 0,20,21
EndSplineSet
Validated: 1
EndChar

StartChar: b
Encoding: 98 98 51
Width: 392
GlyphClass: 1
Flags: W
LayerCount: 2
Fore
SplineSet
238 420 m 0,0,1
 223 428 223 428 179 430 c 0,2,3
 174 430 174 430 165 430.5 c 128,-1,4
 156 431 156 431 153 431 c 0,5,6
 133 431 133 431 126 427.5 c 128,-1,7
 119 424 119 424 117 415 c 0,8,9
 115 407 115 407 115 357 c 0,10,11
 115 347 115 347 115.5 320.5 c 128,-1,12
 116 294 116 294 116 279 c 2,13,-1
 117 154 l 1,14,-1
 148 164 l 2,15,16
 212 183 212 183 251 242 c 0,17,18
 266 263 266 263 269 274.5 c 128,-1,19
 272 286 272 286 274 318 c 2,20,-1
 274 335 l 2,21,22
 274 401 274 401 238 420 c 0,0,1
56 696 m 0,23,24
 64 707 64 707 80 707 c 0,25,26
 99 707 99 707 106 695 c 0,27,28
 115 683 115 683 115 588 c 2,29,-1
 115 491 l 1,30,-1
 147 495 l 2,31,32
 156 496 156 496 175 496 c 0,33,34
 255 496 255 496 298 456 c 0,35,36
 310 445 310 445 326 412 c 0,37,38
 339 385 339 385 340 334 c 0,39,40
 340 255 340 255 310 212 c 0,41,42
 294 189 294 189 259 157 c 128,-1,43
 224 125 224 125 206 117 c 0,44,45
 187 108 187 108 142.5 96.5 c 128,-1,46
 98 85 98 85 82 85 c 2,47,-1
 78 85 l 2,48,49
 64 85 64 85 60 98 c 0,50,51
 54 122 54 122 51 359 c 2,52,-1
 51 394 l 2,53,54
 50 469 50 469 50 568 c 0,55,56
 50 687 50 687 56 696 c 0,23,24
EndSplineSet
Validated: 1
EndChar

StartChar: c
Encoding: 99 99 52
Width: 379
GlyphClass: 1
Flags: W
LayerCount: 2
Fore
SplineSet
182 520 m 0,0,1
 203 530 203 530 252 530 c 2,2,-1
 269 530 l 2,3,4
 302 530 302 530 313 519 c 0,5,6
 325 509 325 509 325 494 c 0,7,8
 325 476 325 476 312 470.5 c 128,-1,9
 299 465 299 465 258 464 c 0,10,11
 214 463 214 463 200.5 456.5 c 128,-1,12
 187 450 187 450 163 416 c 0,13,14
 118 352 118 352 118 291 c 0,15,16
 118 259 118 259 128 228 c 0,17,18
 136 205 136 205 140 199 c 128,-1,19
 144 193 144 193 157 189 c 0,20,21
 164 186 164 186 178 186 c 0,22,23
 186 186 186 186 220 190 c 0,24,25
 262 195 262 195 275 195 c 0,26,27
 285 194 285 194 294.5 184.5 c 128,-1,28
 304 175 304 175 304 165 c 0,29,30
 304 129 304 129 198 123 c 0,31,32
 185 122 185 122 168 122 c 0,33,34
 144 122 144 122 123 133 c 0,35,36
 93 148 93 148 78 178 c 128,-1,37
 63 208 63 208 55 269 c 0,38,39
 54 276 54 276 54 291 c 0,40,41
 54 357 54 357 92.5 427 c 128,-1,42
 131 497 131 497 182 520 c 0,0,1
EndSplineSet
Validated: 1
EndChar

StartChar: d
Encoding: 100 100 53
Width: 400
GlyphClass: 1
Flags: W
LayerCount: 2
Fore
SplineSet
264 396 m 0,0,1
 252 408 252 408 217 408 c 0,2,3
 205 408 205 408 198 407 c 0,4,5
 167 403 167 403 143 364.5 c 128,-1,6
 119 326 119 326 119 285 c 0,7,8
 119 270 119 270 122 258 c 0,9,10
 128 236 128 236 144 214.5 c 128,-1,11
 160 193 160 193 178 184 c 0,12,13
 195 175 195 175 226 175 c 2,14,-1
 240 175 l 1,15,-1
 283 175 l 1,16,-1
 283 201 l 2,17,18
 283 234 283 234 278 307 c 0,19,20
 273 387 273 387 264 396 c 0,0,1
279 644 m 0,21,22
 287 647 287 647 294 647 c 0,23,24
 324 647 324 647 324 580 c 0,25,26
 324 550 324 550 332 430 c 0,27,28
 349 182 349 182 349 154 c 0,29,30
 349 133 349 133 343 124 c 0,31,32
 337 114 337 114 326.5 112.5 c 128,-1,33
 316 111 316 111 264 111 c 0,34,35
 194 111 194 111 167 119.5 c 128,-1,36
 140 128 140 128 109 160 c 0,37,38
 53 216 53 216 53 287 c 0,39,40
 53 353 53 353 103 417 c 0,41,42
 127 448 127 448 152.5 459.5 c 128,-1,43
 178 471 178 471 220 471 c 2,44,-1
 264 471 l 1,45,-1
 260 541 l 2,46,47
 259 558 259 558 259 585 c 0,48,49
 259 615 259 615 263.5 627.5 c 128,-1,50
 268 640 268 640 279 644 c 0,21,22
EndSplineSet
Validated: 1
EndChar

StartChar: e
Encoding: 101 101 54
Width: 489
GlyphClass: 1
Flags: W
LayerCount: 2
Fore
SplineSet
312 422 m 0,0,1
 294 434 294 434 250 434 c 0,2,3
 196 434 196 434 174 419 c 0,4,5
 162 412 162 412 146.5 390 c 128,-1,6
 131 368 131 368 131 359 c 0,7,8
 131 343 131 343 257 336 c 0,9,10
 297 334 297 334 304 334 c 0,11,12
 328 334 328 334 333 340 c 128,-1,13
 338 346 338 346 338 367 c 0,14,15
 338 405 338 405 312 422 c 0,0,1
198 494 m 0,16,17
 223 500 223 500 250 500 c 0,18,19
 297 500 297 500 334.5 482 c 128,-1,20
 372 464 372 464 388 432 c 0,21,22
 403 402 403 402 403 369 c 0,23,24
 403 308 403 308 364 283 c 0,25,26
 348 272 348 272 305 272 c 2,27,-1
 274 272 l 2,28,29
 193 272 193 272 132 285 c 0,30,31
 115 289 115 289 115 280 c 0,32,33
 115 267 115 267 130.5 242 c 128,-1,34
 146 217 146 217 160 206 c 0,35,36
 172 197 172 197 179.5 194.5 c 128,-1,37
 187 192 187 192 209 192 c 2,38,-1
 231 192 l 2,39,40
 290 194 290 194 335 202 c 0,41,42
 388 211 388 211 405 211 c 0,43,44
 424 211 424 211 431 198 c 0,45,46
 436 188 436 188 436 183 c 0,47,48
 436 151 436 151 328 136 c 0,49,50
 279 129 279 129 230 129 c 0,51,52
 171 129 171 129 146 140 c 0,53,54
 103 160 103 160 78.5 203 c 128,-1,55
 54 246 54 246 54 299 c 0,56,57
 54 355 54 355 80 403 c 0,58,59
 120 477 120 477 198 494 c 0,16,17
EndSplineSet
Validated: 1
EndChar

StartChar: f
Encoding: 102 102 55
Width: 369
GlyphClass: 1
Flags: W
LayerCount: 2
Fore
SplineSet
194 663 m 0,0,1
 212 670 212 670 243 670 c 0,2,3
 265 670 265 670 274 666 c 0,4,5
 288 661 288 661 301 646.5 c 128,-1,6
 314 632 314 632 314 623 c 0,7,8
 314 609 314 609 305.5 601 c 128,-1,9
 297 593 297 593 283 593 c 0,10,11
 271 593 271 593 258 600 c 0,12,13
 248 605 248 605 236 605 c 0,14,15
 209 605 209 605 194 590 c 0,16,17
 185 582 185 582 185 537 c 2,18,-1
 185 494 l 1,19,-1
 235 494 l 2,20,21
 277 494 277 494 288 489.5 c 128,-1,22
 299 485 299 485 299 466 c 0,23,24
 299 445 299 445 286.5 438.5 c 128,-1,25
 274 432 274 432 233 432 c 2,26,-1
 183 432 l 1,27,-1
 188 405 l 2,28,29
 192 371 192 371 192 272 c 0,30,31
 192 87 192 87 185 75 c 0,32,33
 178 60 178 60 159 60 c 0,34,35
 141 60 141 60 132 75 c 0,36,37
 128 82 128 82 128 123 c 0,38,39
 128 129 128 129 128.5 144 c 128,-1,40
 129 159 129 159 129 169 c 0,41,42
 129 180 129 180 129.5 200.5 c 128,-1,43
 130 221 130 221 130 231 c 0,44,45
 130 335 130 335 123 396 c 2,46,-1
 120 430 l 1,47,-1
 92 432 l 2,48,49
 70 434 70 434 62.5 440.5 c 128,-1,50
 55 447 55 447 55 463 c 0,51,52
 55 494 55 494 95 494 c 2,53,-1
 117 494 l 1,54,-1
 117 537 l 2,55,56
 117 635 117 635 194 663 c 0,0,1
EndSplineSet
Validated: 1
EndChar

StartChar: g
Encoding: 103 103 56
Width: 419
GlyphClass: 1
Flags: W
LayerCount: 2
Fore
SplineSet
267 433 m 0,0,1
 248 443 248 443 234 443 c 0,2,3
 227 443 227 443 214 439.5 c 128,-1,4
 201 436 201 436 193 435 c 0,5,6
 170 431 170 431 158.5 414 c 128,-1,7
 147 397 147 397 130 344 c 0,8,9
 120 314 120 314 120 290 c 0,10,11
 120 252 120 252 161 211 c 0,12,13
 188 184 188 184 211 184 c 0,14,15
 252 184 252 184 282 270 c 0,16,17
 309 346 309 346 309 367 c 0,18,19
 309 375 309 375 306 384 c 0,20,21
 294 419 294 419 267 433 c 0,0,1
151 495 m 0,22,23
 173 510 173 510 208 510 c 0,24,25
 264 510 264 510 309 481 c 128,-1,26
 354 452 354 452 365 409 c 0,27,28
 368 397 368 397 368 233 c 0,29,30
 367 71 367 71 360 59 c 0,31,32
 350 40 350 40 312.5 8 c 128,-1,33
 275 -24 275 -24 247 -37 c 0,34,35
 182 -67 182 -67 146 -67 c 0,36,37
 138 -67 138 -67 134 -66 c 0,38,39
 83 -55 83 -55 64 -18 c 0,40,41
 57 -2 57 -2 57 4 c 0,42,43
 57 16 57 16 70 28 c 128,-1,44
 83 40 83 40 96 34 c 0,45,46
 108 27 108 27 115 15 c 0,47,48
 120 3 120 3 133 -1 c 0,49,50
 137 -2 137 -2 145 -2 c 0,51,52
 171 -2 171 -2 209 16 c 128,-1,53
 247 34 247 34 276 61 c 2,54,-1
 306 90 l 1,55,-1
 306 169 l 1,56,-1
 287 152 l 2,57,58
 252 121 252 121 207 121 c 0,59,60
 161 121 161 121 119 160 c 128,-1,61
 77 199 77 199 60 256 c 0,62,63
 54 276 54 276 54 286 c 0,64,65
 54 295 54 295 62 332 c 0,66,67
 82 421 82 421 116 464 c 0,68,69
 127 479 127 479 151 495 c 0,22,23
EndSplineSet
Validated: 1
EndChar

StartChar: h
Encoding: 104 104 57
Width: 416
GlyphClass: 1
Flags: W
LayerCount: 2
Fore
SplineSet
59 625 m 0,0,1
 70 639 70 639 84 639 c 0,2,3
 95 639 95 639 103 632 c 0,4,5
 119 621 119 621 120 520 c 0,6,7
 122 466 122 466 124 460 c 0,8,9
 125 453 125 453 130 453 c 128,-1,10
 135 453 135 453 156 464 c 0,11,12
 196 484 196 484 234 484 c 0,13,14
 285 484 285 484 317 452 c 0,15,16
 365 404 365 404 365 321 c 0,17,18
 365 291 365 291 357 253 c 0,19,20
 349 213 349 213 349 177 c 0,21,22
 349 137 349 137 338 126 c 0,23,24
 329 117 329 117 319 117 c 128,-1,25
 309 117 309 117 299 124 c 0,26,27
 284 134 284 134 284 168 c 0,28,29
 284 201 284 201 292 252 c 0,30,31
 300 310 300 310 300 334 c 0,32,33
 300 377 300 377 273 404 c 0,34,35
 255 422 255 422 235 422 c 0,36,37
 219 422 219 422 185 406 c 0,38,39
 184 405 184 405 181 404 c 0,40,41
 146 387 146 387 138 374 c 0,42,43
 128 357 128 357 127 273 c 0,44,45
 126 269 126 269 126 261 c 2,46,-1
 126 248 l 2,47,48
 124 166 124 166 122 147.5 c 128,-1,49
 120 129 120 129 114 122 c 0,50,51
 105 112 105 112 92 112 c 0,52,53
 80 112 80 112 73 120 c 0,54,55
 65 130 65 130 62 202 c 0,56,57
 58 282 58 282 58 325 c 0,58,59
 58 356 58 356 61 384 c 0,60,61
 62 390 62 390 62 413 c 0,62,63
 62 458 62 458 58 521.5 c 128,-1,64
 54 585 54 585 50 601 c 0,65,66
 47 609 47 609 59 625 c 0,0,1
EndSplineSet
Validated: 1
EndChar

StartChar: i
Encoding: 105 105 58
Width: 175
GlyphClass: 1
Flags: W
LayerCount: 2
Fore
SplineSet
52 591 m 0,0,1
 52 610 52 610 62 624 c 128,-1,2
 72 638 72 638 87 638 c 0,3,4
 92 638 92 638 94 637 c 0,5,6
 112 633 112 633 118.5 625.5 c 128,-1,7
 125 618 125 618 125 599 c 0,8,9
 125 578 125 578 111 564 c 0,10,11
 97 551 97 551 82 551 c 0,12,13
 69 551 69 551 60.5 562 c 128,-1,14
 52 573 52 573 52 591 c 0,0,1
61 497 m 0,15,16
 69 505 69 505 83 505 c 0,17,18
 103 505 103 505 112 491 c 0,19,20
 119 481 119 481 119 432 c 0,21,22
 119 425 119 425 117 309 c 0,23,24
 114 165 114 165 108.5 138.5 c 128,-1,25
 103 112 103 112 77 111 c 0,26,27
 60 111 60 111 55 127 c 128,-1,28
 50 143 50 143 50 212 c 0,29,30
 50 271 50 271 51 312 c 0,31,32
 53 491 53 491 61 497 c 0,15,16
EndSplineSet
Validated: 1
EndChar

StartChar: j
Encoding: 106 106 59
Width: 342
GlyphClass: 1
Flags: W
LayerCount: 2
Fore
SplineSet
209 640 m 0,0,1
 226 655 226 655 239 655 c 0,2,3
 253 655 253 655 261.5 642.5 c 128,-1,4
 270 630 270 630 270 608 c 0,5,6
 270 587 270 587 261.5 574.5 c 128,-1,7
 253 562 253 562 239 562 c 0,8,9
 223 562 223 562 208 577 c 128,-1,10
 193 592 193 592 193 608 c 0,11,12
 193 625 193 625 209 640 c 0,0,1
202 483 m 0,13,14
 202 496 202 496 212 505.5 c 128,-1,15
 222 515 222 515 234 515 c 0,16,17
 251 515 251 515 260 499 c 128,-1,18
 269 483 269 483 267 474 c 0,19,20
 266 472 266 472 266 466 c 0,21,22
 266 457 266 457 270 431 c 0,23,24
 275 397 275 397 283 298.5 c 128,-1,25
 291 200 291 200 291 163 c 0,26,27
 291 19 291 19 201 -34 c 0,28,29
 182 -46 182 -46 152 -46 c 0,30,31
 117 -46 117 -46 87.5 -29 c 128,-1,32
 58 -12 58 -12 58 9 c 0,33,34
 58 18 58 18 67 29 c 0,35,36
 74 38 74 38 89 38 c 0,37,38
 102 38 102 38 110 31 c 0,39,40
 119 24 119 24 143 20 c 0,41,42
 157 18 157 18 159 18 c 0,43,44
 169 18 169 18 190 39 c 0,45,46
 229 79 229 79 229 173 c 0,47,48
 229 216 229 216 224 254 c 0,49,50
 202 456 202 456 202 483 c 0,13,14
EndSplineSet
Validated: 1
EndChar

StartChar: k
Encoding: 107 107 60
Width: 395
GlyphClass: 1
Flags: W
LayerCount: 2
Fore
SplineSet
55 644 m 0,0,1
 61 655 61 655 79 655 c 0,2,3
 93 655 93 655 100 648 c 0,4,5
 113 635 113 635 118 438 c 2,6,-1
 122 322 l 1,7,-1
 156 368 l 2,8,9
 211 441 211 441 255 491 c 0,10,11
 272 510 272 510 280 515 c 128,-1,12
 288 520 288 520 301 520 c 0,13,14
 315 520 315 520 323 512.5 c 128,-1,15
 331 505 331 505 331 493 c 0,16,17
 331 476 331 476 315 460 c 0,18,19
 301 447 301 447 256.5 394 c 128,-1,20
 212 341 212 341 212 337 c 0,21,22
 212 331 212 331 253 283 c 0,23,24
 341 172 341 172 341 149 c 0,25,26
 341 138 341 138 326 125 c 0,27,28
 317 119 317 119 311 119 c 0,29,30
 297 119 297 119 266 162 c 0,31,32
 242 197 242 197 208 239.5 c 128,-1,33
 174 282 174 282 171 282 c 128,-1,34
 168 282 168 282 146 249 c 0,35,36
 130 224 130 224 127 214 c 128,-1,37
 124 204 124 204 123 168 c 0,38,39
 122 122 122 122 113 113 c 0,40,41
 105 105 105 105 91 105 c 0,42,43
 76 105 76 105 67 114 c 0,44,45
 61 120 61 120 59 156.5 c 128,-1,46
 57 193 57 193 53 378 c 0,47,48
 50 522 50 522 50 575 c 0,49,50
 50 634 50 634 55 644 c 0,0,1
EndSplineSet
Validated: 1
EndChar

StartChar: l
Encoding: 108 108 61
Width: 176
GlyphClass: 1
Flags: W
LayerCount: 2
Fore
SplineSet
62 638 m 0,0,1
 69 642 69 642 78 642 c 0,2,3
 92 642 92 642 102 632 c 0,4,5
 124 611 124 611 126 277 c 2,6,-1
 126 210 l 2,7,8
 126 112 126 112 122.5 86.5 c 128,-1,9
 119 61 119 61 106 53 c 0,10,11
 101 49 101 49 91 49 c 0,12,13
 78 49 78 49 70 56 c 0,14,15
 61 62 61 62 61 143 c 2,16,-1
 61 210 l 1,17,-1
 61 244 l 2,18,19
 61 380 61 380 56 468 c 0,20,21
 50 584 50 584 50 607 c 0,22,23
 50 613 50 613 50 617.5 c 128,-1,24
 50 622 50 622 51 625 c 128,-1,25
 52 628 52 628 52.5 629.5 c 128,-1,26
 53 631 53 631 54 632.5 c 128,-1,27
 55 634 55 634 56 634.5 c 128,-1,28
 57 635 57 635 59 636 c 128,-1,29
 61 637 61 637 62 638 c 0,0,1
EndSplineSet
Validated: 1
EndChar

StartChar: m
Encoding: 109 109 62
Width: 628
GlyphClass: 1
Flags: W
LayerCount: 2
Fore
SplineSet
83 529 m 0,0,1
 90 532 90 532 97 532 c 0,2,3
 111 532 111 532 119.5 520.5 c 128,-1,4
 128 509 128 509 128 490 c 0,5,6
 128 472 128 472 131 471 c 0,7,8
 132 470 132 470 138 475 c 0,9,10
 172 504 172 504 211 504 c 0,11,12
 245 504 245 504 271 485 c 0,13,14
 294 468 294 468 298 468 c 0,15,16
 301 468 301 468 329 492 c 0,17,18
 379 536 379 536 425 536 c 0,19,20
 520 536 520 536 553 412 c 0,21,22
 568 359 568 359 574 239 c 0,23,24
 577 182 577 182 577 159 c 0,25,26
 577 132 577 132 571 121 c 0,27,28
 563 105 563 105 545 105 c 0,29,30
 538 105 538 105 528 110 c 0,31,32
 514 120 514 120 512 228 c 0,33,34
 511 277 511 277 503 335 c 128,-1,35
 495 393 495 393 485 420 c 0,36,37
 465 474 465 474 427 474 c 0,38,39
 411 473 411 473 398.5 466 c 128,-1,40
 386 459 386 459 359 434 c 2,41,-1
 330 407 l 1,42,-1
 335 374 l 2,43,44
 337 364 337 364 341.5 340.5 c 128,-1,45
 346 317 346 317 347 310 c 0,46,47
 351 287 351 287 355 199 c 0,48,49
 357 151 357 151 357 145 c 0,50,51
 357 117 357 117 349 109 c 128,-1,52
 341 101 341 101 327 101 c 0,53,54
 312 101 312 101 304 109 c 0,55,56
 294 118 294 118 294 152 c 0,57,58
 294 265 294 265 276 349 c 0,59,60
 256 441 256 441 212 441 c 0,61,62
 204 441 204 441 197 438 c 0,63,64
 181 431 181 431 163.5 413 c 128,-1,65
 146 395 146 395 138 376 c 0,66,67
 120 337 120 337 120 231 c 0,68,69
 120 206 120 206 121 194 c 0,70,71
 122 183 122 183 122 167 c 0,72,73
 122 145 122 145 117 136 c 128,-1,74
 112 127 112 127 97 122 c 0,75,76
 84 117 84 117 70 124 c 0,77,78
 51 134 51 134 51 188 c 0,79,80
 51 200 51 200 53 248 c 0,81,82
 54 262 54 262 56.5 321.5 c 128,-1,83
 59 381 59 381 61 411 c 0,84,85
 67 510 67 510 69 516 c 0,86,87
 72 524 72 524 83 529 c 0,0,1
EndSplineSet
Validated: 1
EndChar

StartChar: n
Encoding: 110 110 63
Width: 428
GlyphClass: 1
Flags: W
LayerCount: 2
Fore
SplineSet
177 494 m 0,0,1
 197 508 197 508 229 508 c 0,2,3
 265 508 265 508 291 492 c 0,4,5
 340 463 340 463 358 405 c 128,-1,6
 376 347 376 347 377 216 c 0,7,8
 377 155 377 155 373 139 c 128,-1,9
 369 123 369 123 352 121 c 0,10,11
 350 121 350 121 346.5 120.5 c 128,-1,12
 343 120 343 120 342 120 c 0,13,14
 324 120 324 120 319 134.5 c 128,-1,15
 314 149 314 149 314 198 c 0,16,17
 314 359 314 359 292 401 c 0,18,19
 282 420 282 420 264.5 433 c 128,-1,20
 247 446 247 446 231 446 c 0,21,22
 227 446 227 446 221 444 c 0,23,24
 203 437 203 437 175 412 c 128,-1,25
 147 387 147 387 134 367 c 2,26,-1
 117 341 l 1,27,-1
 117 241 l 2,28,29
 117 166 117 166 115.5 152 c 128,-1,30
 114 138 114 138 104 129 c 0,31,32
 91 116 91 116 81 116 c 128,-1,33
 71 116 71 116 60 127 c 0,34,35
 51 136 51 136 51 184 c 0,36,37
 51 188 51 188 53 304 c 0,38,39
 56 470 56 470 63 484 c 0,40,41
 69 497 69 497 89 497 c 0,42,43
 102 497 102 497 107 494 c 128,-1,44
 112 491 112 491 117 481 c 2,45,-1
 125 466 l 1,46,-1
 147 477 l 2,47,48
 169 488 169 488 177 494 c 0,0,1
EndSplineSet
Validated: 1
EndChar

StartChar: o
Encoding: 111 111 64
Width: 447
GlyphClass: 1
Flags: W
LayerCount: 2
Fore
SplineSet
273 465 m 0,0,1
 256 477 256 477 228 477 c 0,2,3
 203 477 203 477 203 467 c 0,4,5
 203 459 203 459 181 439 c 0,6,7
 126 387 126 387 121 316 c 1,8,-1
 121 305 l 2,9,10
 121 278 121 278 125 258 c 0,11,12
 136 217 136 217 172.5 190.5 c 128,-1,13
 209 164 209 164 248 164 c 0,14,15
 292 164 292 164 311 197 c 0,16,17
 330 229 330 229 330 290 c 0,18,19
 330 346 330 346 314 397 c 128,-1,20
 298 448 298 448 273 465 c 0,0,1
198 535 m 0,21,22
 214 539 214 539 232 539 c 0,23,24
 275 539 275 539 310 515.5 c 128,-1,25
 345 492 345 492 362 450 c 0,26,27
 395 371 395 371 395 292 c 0,28,29
 395 224 395 224 370.5 174 c 128,-1,30
 346 124 346 124 303 109 c 0,31,32
 282 101 282 101 252 101 c 0,33,34
 210 101 210 101 169.5 119.5 c 128,-1,35
 129 138 129 138 102 169 c 0,36,37
 85 189 85 189 71.5 220 c 128,-1,38
 58 251 58 251 55 276 c 0,39,40
 54 283 54 283 54 298 c 0,41,42
 54 344 54 344 74 392.5 c 128,-1,43
 94 441 94 441 128 475 c 0,44,45
 156 503 156 503 156 508 c 0,46,47
 156 515 156 515 168.5 523 c 128,-1,48
 181 531 181 531 198 535 c 0,21,22
EndSplineSet
Validated: 1
EndChar

StartChar: p
Encoding: 112 112 65
Width: 451
GlyphClass: 1
Flags: W
LayerCount: 2
Fore
SplineSet
292 407 m 0,0,1
 264 421 264 421 216 421 c 0,2,3
 199 421 199 421 193 419 c 0,4,5
 151 407 151 407 128 383 c 0,6,7
 116 371 116 371 116 341 c 0,8,9
 116 314 116 314 117 293 c 0,10,11
 119 208 119 208 121 198 c 0,12,13
 123 184 123 184 128 180.5 c 128,-1,14
 133 177 133 177 158 170 c 0,15,16
 183 165 183 165 198 165 c 0,17,18
 225 165 225 165 257 179 c 0,19,20
 302 198 302 198 316 224 c 128,-1,21
 330 250 330 250 332 313 c 2,22,-1
 332 326 l 2,23,24
 332 364 332 364 324.5 378.5 c 128,-1,25
 317 393 317 393 292 407 c 0,0,1
60 494 m 0,26,27
 71 505 71 505 84 505 c 0,28,29
 96 505 96 505 104.5 495 c 128,-1,30
 113 485 113 485 113 470 c 2,31,-1
 113 452 l 1,32,-1
 129 461 l 2,33,34
 175 484 175 484 228 484 c 0,35,36
 290 484 290 484 337 455 c 0,37,38
 398 418 398 418 398 325 c 0,39,40
 398 289 398 289 389 247 c 0,41,42
 380 201 380 201 359.5 175 c 128,-1,43
 339 149 339 149 295 127 c 0,44,45
 241 101 241 101 187 101 c 0,46,47
 165 101 165 101 137 106 c 1,48,-1
 134 106 l 2,49,50
 128 106 128 106 128 86 c 2,51,-1
 128 68 l 1,52,-1
 128 48 l 2,53,54
 128 -58 128 -58 114 -74 c 0,55,56
 107 -81 107 -81 94 -81 c 0,57,58
 78 -81 78 -81 71 -72 c 0,59,60
 64 -65 64 -65 60 79 c 0,61,62
 54 316 54 316 53 352 c 0,63,64
 51 400 51 400 51 450 c 0,65,66
 51 485 51 485 60 494 c 0,26,27
EndSplineSet
Validated: 1
EndChar

StartChar: q
Encoding: 113 113 66
Width: 534
GlyphClass: 1
Flags: W
LayerCount: 2
Fore
SplineSet
270 413 m 2,0,1
 250 435 250 435 242.5 438.5 c 128,-1,2
 235 442 235 442 214 442 c 0,3,4
 187 442 187 442 160.5 430 c 128,-1,5
 134 418 134 418 124 401 c 0,6,7
 116 388 116 388 116 363 c 0,8,9
 116 358 116 358 118 312 c 0,10,11
 124 191 124 191 151 166 c 0,12,13
 164 154 164 154 187 154 c 0,14,15
 217 154 217 154 259 175 c 0,16,17
 277 184 277 184 281.5 186.5 c 128,-1,18
 286 189 286 189 292 201 c 128,-1,19
 298 213 298 213 298 227 c 128,-1,20
 298 241 298 241 298 278 c 2,21,-1
 298 292 l 1,22,-1
 298 383 l 1,23,-1
 270 413 l 2,0,1
145 492 m 0,24,25
 174 505 174 505 209 505 c 0,26,27
 242 505 242 505 273 493 c 0,28,29
 293 486 293 486 302 486 c 0,30,31
 307 486 307 486 309 488 c 0,32,33
 315 494 315 494 326 494 c 0,34,35
 342 494 342 494 350 485 c 0,36,37
 358 475 358 475 362 226 c 0,38,39
 366 -19 366 -19 370 -37 c 0,40,41
 373 -47 373 -47 375 -47 c 0,42,43
 378 -47 378 -47 401 -18 c 0,44,45
 432 20 432 20 447 20 c 0,46,47
 452 20 452 20 463 13 c 0,48,49
 477 2 477 2 477 -8 c 0,50,51
 477 -22 477 -22 441 -67 c 0,52,53
 372 -153 372 -153 360 -153 c 0,54,55
 352 -153 352 -153 336 -145 c 0,56,57
 318 -137 318 -137 312.5 -112.5 c 128,-1,58
 307 -88 307 -88 302 10 c 0,59,60
 297 118 297 118 295 120 c 0,61,62
 294 121 294 121 261 107 c 0,63,64
 231 95 231 95 191 93 c 2,65,-1
 187 93 l 2,66,67
 144 93 144 93 119.5 110 c 128,-1,68
 95 127 95 127 78 168 c 0,69,70
 68 192 68 192 61 244 c 128,-1,71
 54 296 54 296 54 343 c 0,72,73
 55 404 55 404 66 426 c 0,74,75
 89 470 89 470 145 492 c 0,24,25
EndSplineSet
Validated: 33
EndChar

StartChar: r
Encoding: 114 114 67
Width: 398
GlyphClass: 1
Flags: W
LayerCount: 2
Fore
SplineSet
57 490 m 0,0,1
 65 515 65 515 89 515 c 0,2,3
 97 515 97 515 107.5 504 c 128,-1,4
 118 493 118 493 118 485 c 0,5,6
 118 479 118 479 127 466 c 0,7,8
 135 455 135 455 141 463 c 0,9,10
 169 497 169 497 231 497 c 0,11,12
 260 497 260 497 279 487 c 128,-1,13
 298 477 298 477 319.5 454 c 128,-1,14
 341 431 341 431 344 417 c 0,15,16
 344 416 344 416 344.5 414 c 128,-1,17
 345 412 345 412 345 410 c 0,18,19
 345 382 345 382 307 335 c 0,20,21
 280 303 280 303 259 303 c 0,22,23
 240 303 240 303 230 328 c 0,24,25
 222 346 222 346 222 360 c 0,26,27
 222 371 222 371 238 386 c 128,-1,28
 254 401 254 401 266 401 c 0,29,30
 273 401 273 401 275 402.5 c 128,-1,31
 277 404 277 404 276 408 c 0,32,33
 274 415 274 415 254 426 c 128,-1,34
 234 437 234 437 225 437 c 0,35,36
 206 437 206 437 164 395 c 2,37,-1
 140 370 l 1,38,-1
 145 317 l 2,39,40
 148 287 148 287 148 252 c 0,41,42
 148 152 148 152 136 133 c 0,43,44
 129 122 129 122 114 122 c 0,45,46
 100 122 100 122 92 130 c 0,47,48
 86 135 86 135 84 153.5 c 128,-1,49
 82 172 82 172 82 235 c 0,50,51
 80 415 80 415 59 458 c 0,52,53
 53 470 53 470 53 476 c 128,-1,54
 53 482 53 482 57 490 c 0,0,1
EndSplineSet
Validated: 1
EndChar

StartChar: s
Encoding: 115 115 68
Width: 330
GlyphClass: 1
Flags: W
LayerCount: 2
Fore
SplineSet
112 495 m 0,0,1
 127 504 127 504 160 504 c 0,2,3
 189 504 189 504 224 496 c 0,4,5
 253 489 253 489 263.5 481 c 128,-1,6
 274 473 274 473 274 458 c 2,7,-1
 274 453 l 2,8,9
 272 426 272 426 248 426 c 0,10,11
 239 426 239 426 228 430 c 0,12,13
 214 437 214 437 176 439 c 2,14,-1
 163 439 l 2,15,16
 142 439 142 439 133 426 c 0,17,18
 122 412 122 412 122 389 c 128,-1,19
 122 366 122 366 133 352 c 0,20,21
 146 335 146 335 195 310 c 0,22,23
 241 286 241 286 258 266.5 c 128,-1,24
 275 247 275 247 278 214 c 0,25,26
 278 211 278 211 278.5 207 c 128,-1,27
 279 203 279 203 279 201 c 0,28,29
 279 179 279 179 267 164.5 c 128,-1,30
 255 150 255 150 225 136 c 0,31,32
 201 124 201 124 187.5 121.5 c 128,-1,33
 174 119 174 119 137 119 c 2,34,-1
 128 119 l 2,35,36
 84 119 84 119 68 127.5 c 128,-1,37
 52 136 52 136 52 158 c 0,38,39
 52 174 52 174 59 180 c 128,-1,40
 66 186 66 186 89 186 c 0,41,42
 107 186 107 186 120 185 c 0,43,44
 134 184 134 184 152 184 c 0,45,46
 175 184 175 184 194 194 c 0,47,48
 218 207 218 207 218 209 c 0,49,50
 218 228 218 228 159 256 c 0,51,52
 57 303 57 303 57 388 c 0,53,54
 57 409 57 409 66 436 c 128,-1,55
 75 463 75 463 87 476 c 0,56,57
 96 485 96 485 112 495 c 0,0,1
EndSplineSet
Validated: 1
EndChar

StartChar: t
Encoding: 116 116 69
Width: 362
GlyphClass: 1
Flags: W
LayerCount: 2
Fore
SplineSet
122 590 m 0,0,1
 129 598 129 598 145 598 c 0,2,3
 164 598 164 598 171 587 c 0,4,5
 177 578 177 578 177 564 c 0,6,7
 177 549 177 549 171 522 c 0,8,9
 171 521 171 521 170 520 c 2,10,-1
 170 518 l 2,11,12
 170 513 170 513 179 512 c 128,-1,13
 188 511 188 511 229 509 c 0,14,15
 276 507 276 507 284.5 505.5 c 128,-1,16
 293 504 293 504 301 493 c 0,17,18
 308 483 308 483 308 478 c 0,19,20
 308 474 308 474 303 464 c 0,21,22
 297 454 297 454 289 452.5 c 128,-1,23
 281 451 281 451 234 449 c 0,24,25
 171 447 171 447 165 441 c 0,26,27
 158 435 158 435 158 336 c 0,28,29
 158 215 158 215 167 185 c 0,30,31
 176 158 176 158 187 158 c 0,32,33
 197 158 197 158 227 173 c 0,34,35
 257 189 257 189 266 189 c 0,36,37
 278 189 278 189 285.5 178.5 c 128,-1,38
 293 168 293 168 293 155 c 0,39,40
 293 144 293 144 287 136 c 0,41,42
 280 127 280 127 256.5 115.5 c 128,-1,43
 233 104 233 104 209 97 c 0,44,45
 196 94 196 94 183 94 c 0,46,47
 155 94 155 94 138 107 c 0,48,49
 92 142 92 142 92 304 c 0,50,51
 92 334 92 334 93 350 c 0,52,53
 95 406 95 406 95 412 c 0,54,55
 95 442 95 442 87 442 c 0,56,57
 76 442 76 442 65.5 451 c 128,-1,58
 55 460 55 460 55 470 c 0,59,60
 55 498 55 498 86 504 c 0,61,62
 99 507 99 507 102 512.5 c 128,-1,63
 105 518 105 518 109 545 c 0,64,65
 114 580 114 580 122 590 c 0,0,1
EndSplineSet
Validated: 1
EndChar

StartChar: u
Encoding: 117 117 70
Width: 475
GlyphClass: 1
Flags: W
LayerCount: 2
Fore
SplineSet
64 501 m 0,0,1
 75 509 75 509 81 509 c 0,2,3
 90 509 90 509 103 497 c 2,4,-1
 117 485 l 1,5,-1
 122 389 l 2,6,7
 129 226 129 226 162 201 c 0,8,9
 170 194 170 194 201 194 c 0,10,11
 240 194 240 194 254 204 c 0,12,13
 269 213 269 213 278 227 c 128,-1,14
 287 241 287 241 302 277 c 0,15,16
 317 314 317 314 318 356 c 0,17,18
 318 394 318 394 322 442 c 0,19,20
 326 485 326 485 338 495 c 0,21,22
 350 504 350 504 359 504 c 0,23,24
 370 504 370 504 383 491 c 2,25,-1
 397 478 l 1,26,-1
 392 412 l 2,27,28
 387 352 387 352 387 263 c 2,29,-1
 387 180 l 1,30,-1
 405 164 l 2,31,32
 421 150 421 150 421 138 c 0,33,34
 421 127 421 127 409.5 116.5 c 128,-1,35
 398 106 398 106 387 106 c 0,36,37
 374 106 374 106 356.5 122.5 c 128,-1,38
 339 139 339 139 333 157 c 0,39,40
 326 178 326 178 324 178 c 128,-1,41
 322 178 322 178 301 161 c 0,42,43
 284 147 284 147 254 136.5 c 128,-1,44
 224 126 224 126 199 126 c 0,45,46
 178 126 178 126 149.5 137.5 c 128,-1,47
 121 149 121 149 109 162 c 0,48,49
 66 208 66 208 56 401 c 0,50,51
 53 453 53 453 53 471 c 0,52,53
 53 486 53 486 55 490.5 c 128,-1,54
 57 495 57 495 64 501 c 0,0,1
EndSplineSet
Validated: 1
EndChar

StartChar: v
Encoding: 118 118 71
Width: 438
GlyphClass: 1
Flags: W
LayerCount: 2
Fore
SplineSet
55 434 m 0,0,1
 54 437 54 437 54 443 c 0,2,3
 54 457 54 457 62 468 c 128,-1,4
 70 479 70 479 83 479 c 128,-1,5
 96 479 96 479 106.5 462.5 c 128,-1,6
 117 446 117 446 131 406 c 0,7,8
 136 391 136 391 204 219 c 0,9,10
 211 199 211 199 216 199 c 0,11,12
 220 199 220 199 253 281 c 0,13,14
 303 406 303 406 315 432.5 c 128,-1,15
 327 459 327 459 339 466 c 0,16,17
 347 471 347 471 354 471 c 0,18,19
 373 471 373 471 383 450 c 0,20,21
 385 444 385 444 385 441 c 0,22,23
 385 432 385 432 372 403 c 0,24,25
 333 312 333 312 253 104 c 0,26,27
 242 75 242 75 213 75 c 0,28,29
 205 75 205 75 198 79 c 0,30,31
 190 85 190 85 113 271 c 0,32,33
 66 384 66 384 55 434 c 0,0,1
EndSplineSet
Validated: 1
EndChar

StartChar: w
Encoding: 119 119 72
Width: 628
GlyphClass: 1
Flags: W
LayerCount: 2
Fore
SplineSet
527 487 m 0,0,1
 539 499 539 499 547 499 c 0,2,3
 554 499 554 499 565 491 c 0,4,5
 577 483 577 483 577 459 c 0,6,7
 577 423 577 423 567.5 365.5 c 128,-1,8
 558 308 558 308 546 274 c 0,9,10
 494 117 494 117 484 104 c 0,11,12
 475 95 475 95 460 95 c 0,13,14
 452 95 452 95 445 98 c 0,15,16
 431 105 431 105 382 222 c 0,17,18
 329 351 329 351 319 351 c 2,19,-1
 318 351 l 1,20,21
 313 346 313 346 308 331 c 0,22,23
 300 310 300 310 265 212 c 0,24,25
 230 109 230 109 206 103 c 0,26,27
 202 102 202 102 196 102 c 0,28,29
 182 102 182 102 172 120 c 128,-1,30
 162 138 162 138 142 197 c 0,31,32
 112 286 112 286 72 389 c 0,33,34
 54 437 54 437 54 451 c 0,35,36
 54 462 54 462 60 469 c 0,37,38
 70 482 70 482 85 482 c 0,39,40
 112 482 112 482 121 448 c 0,41,42
 123 440 123 440 189 254 c 1,43,-1
 202 220 l 1,44,-1
 219 270 l 2,45,46
 234 314 234 314 261 376.5 c 128,-1,47
 288 439 288 439 296 449 c 0,48,49
 304 458 304 458 319 458 c 0,50,51
 328 458 328 458 335 455 c 128,-1,52
 342 452 342 452 371 395.5 c 128,-1,53
 400 339 400 339 429 273 c 0,54,55
 454 217 454 217 458 217 c 0,56,57
 461 217 461 217 475 258 c 128,-1,58
 489 299 489 299 499 336 c 0,59,60
 513 385 513 385 514 460 c 0,61,62
 516 476 516 476 527 487 c 0,0,1
EndSplineSet
Validated: 1
EndChar

StartChar: x
Encoding: 120 120 73
Width: 423
GlyphClass: 1
Flags: W
LayerCount: 2
Fore
SplineSet
76 481 m 0,0,1
 86 489 86 489 92 489 c 0,2,3
 113 489 113 489 148 444 c 0,4,5
 160 428 160 428 178 408.5 c 128,-1,6
 196 389 196 389 205 376 c 0,7,8
 212 367 212 367 214 367 c 0,9,10
 220 367 220 367 269 425 c 0,11,12
 311 477 311 477 330 477 c 0,13,14
 336 477 336 477 346 472 c 0,15,16
 362 461 362 461 362 450 c 0,17,18
 362 434 362 434 326 395 c 0,19,20
 301 370 301 370 277 338 c 2,21,-1
 255 308 l 1,22,-1
 270 289 l 2,23,24
 280 275 280 275 341 183 c 0,25,26
 370 140 370 140 370 120 c 0,27,28
 370 107 370 107 357 98 c 0,29,30
 350 92 350 92 342 92 c 0,31,32
 331 92 331 92 316 110 c 128,-1,33
 301 128 301 128 267 178 c 2,34,-1
 216 256 l 1,35,-1
 180 206 l 2,36,37
 131 136 131 136 119 117 c 0,38,39
 109 101 109 101 87 101 c 0,40,41
 74 101 74 101 64 110 c 128,-1,42
 54 119 54 119 54 131 c 0,43,44
 54 137 54 137 114 222 c 0,45,46
 173 306 173 306 173 310 c 0,47,48
 173 313 173 313 135 359 c 128,-1,49
 97 405 97 405 81 422 c 0,50,51
 64 441 64 441 64 458 c 0,52,53
 64 474 64 474 76 481 c 0,0,1
EndSplineSet
Validated: 1
EndChar

StartChar: y
Encoding: 121 121 74
Width: 448
GlyphClass: 1
Flags: W
LayerCount: 2
Fore
SplineSet
63 483 m 0,0,1
 70 495 70 495 86 495 c 0,2,3
 105 495 105 495 116 479 c 0,4,5
 124 467 124 467 148.5 412.5 c 128,-1,6
 173 358 173 358 173 351 c 0,7,8
 173 342 173 342 202 273 c 0,9,10
 210 255 210 255 210 254 c 0,11,12
 210 249 210 249 221.5 224 c 128,-1,13
 233 199 233 199 236 199 c 0,14,15
 238 199 238 199 242 208 c 0,16,17
 265 266 265 266 295 385 c 0,18,19
 321 494 321 494 360 494 c 0,20,21
 373 494 373 494 384 483 c 0,22,23
 395 473 395 473 395 465 c 0,24,25
 395 455 395 455 381 433 c 0,26,27
 367 408 367 408 361 385 c 0,28,29
 357 367 357 367 327 259 c 0,30,31
 308 189 308 189 263 101 c 0,32,33
 245 69 245 69 207 10.5 c 128,-1,34
 169 -48 169 -48 156 -62 c 128,-1,35
 143 -76 143 -76 129 -76 c 0,36,37
 117 -76 117 -76 108 -66.5 c 128,-1,38
 99 -57 99 -57 99 -44 c 0,39,40
 99 -28 99 -28 111 -15 c 0,41,42
 124 -1 124 -1 152 41 c 128,-1,43
 180 83 180 83 191 104 c 0,44,45
 196 116 196 116 196 120 c 0,46,47
 196 128 196 128 184 151 c 0,48,49
 171 179 171 179 148 238 c 0,50,51
 143 252 143 252 125.5 294 c 128,-1,52
 108 336 108 336 102 354 c 0,53,54
 74 425 74 425 67 437 c 0,55,56
 55 458 55 458 55 465 c 128,-1,57
 55 472 55 472 63 483 c 0,0,1
EndSplineSet
Validated: 1
EndChar

StartChar: z
Encoding: 122 122 75
Width: 424
GlyphClass: 1
Flags: W
LayerCount: 2
Fore
SplineSet
259 509 m 0,0,1
 270 510 270 510 285 511.5 c 128,-1,2
 300 513 300 513 309 514 c 128,-1,3
 318 515 318 515 320 515 c 2,4,-1
 322 515 l 2,5,6
 333 515 333 515 342 507.5 c 128,-1,7
 351 500 351 500 351 488 c 0,8,9
 351 458 351 458 270 350 c 0,10,11
 194 247 194 247 174 198 c 2,12,-1
 168 183 l 1,13,-1
 258 183 l 2,14,15
 332 183 332 183 351 177.5 c 128,-1,16
 370 172 370 172 370 152 c 0,17,18
 370 131 370 131 347 126.5 c 128,-1,19
 324 122 324 122 215 121 c 2,20,-1
 156 121 l 2,21,22
 105 121 105 121 92.5 123 c 128,-1,23
 80 125 80 125 74 132 c 0,24,25
 65 144 65 144 65 151 c 0,26,27
 65 159 65 159 81 175 c 0,28,29
 100 192 100 192 114 220 c 0,30,31
 161 309 161 309 206 370 c 0,32,33
 244 422 244 422 252 434 c 2,34,-1
 262 449 l 1,35,-1
 234 446 l 2,36,37
 160 438 160 438 144 438 c 0,38,39
 132 438 132 438 108 442 c 0,40,41
 54 453 54 453 54 477 c 0,42,43
 54 495 54 495 63 501 c 128,-1,44
 72 507 72 507 104 507 c 0,45,46
 125 507 125 507 138 506 c 2,47,-1
 169 506 l 2,48,49
 228 506 228 506 259 509 c 0,0,1
EndSplineSet
Validated: 1
EndChar

StartChar: quoteleft
Encoding: 8216 8216 77
Width: 201
GlyphClass: 1
Flags: W
LayerCount: 2
Fore
SplineSet
99 632 m 0,0,1
 111 639 111 639 116 639 c 0,2,3
 125 639 125 639 137 626 c 0,4,5
 150 614 150 614 147 602 c 0,6,7
 144 592 144 592 138 547 c 0,8,9
 121 415 121 415 104 403 c 0,10,11
 93 396 93 396 86 396 c 0,12,13
 75 396 75 396 63 408 c 0,14,15
 53 418 53 418 53 430 c 0,16,17
 53 439 53 439 61 476 c 0,18,19
 64 489 64 489 71 541 c 0,20,21
 80 619 80 619 99 632 c 0,0,1
EndSplineSet
Validated: 1
EndChar

StartChar: uni2077
Encoding: 8311 8311 78
Width: 346
GlyphClass: 1
Flags: W
LayerCount: 2
Fore
SplineSet
123 619 m 0,0,1
 180 623 180 623 217 623 c 0,2,3
 253 623 253 623 266 616 c 0,4,5
 292 603 292 603 292 575 c 0,6,7
 292 566 292 566 272 524.5 c 128,-1,8
 252 483 252 483 245 479 c 128,-1,9
 238 475 238 475 208 412 c 128,-1,10
 178 349 178 349 178 341 c 0,11,12
 178 330 178 330 168 319 c 128,-1,13
 158 308 158 308 147 308 c 128,-1,14
 136 308 136 308 123 321 c 0,15,16
 113 331 113 331 113 341 c 0,17,18
 113 348 113 348 114 353 c 0,19,20
 116 366 116 366 118 372.5 c 128,-1,21
 120 379 120 379 124.5 387 c 128,-1,22
 129 395 129 395 133 406 c 0,23,24
 144 433 144 433 178 492 c 2,25,-1
 214 554 l 1,26,-1
 144 555 l 2,27,28
 86 556 86 556 70 562 c 128,-1,29
 54 568 54 568 54 588 c 0,30,31
 54 605 54 605 66.5 610.5 c 128,-1,32
 79 616 79 616 123 619 c 0,0,1
EndSplineSet
Validated: 1
EndChar

StartChar: onethird
Encoding: 8531 8531 79
Width: 594
GlyphClass: 1
Flags: W
LayerCount: 2
Fore
SplineSet
401 586 m 0,0,1
 445 634 445 634 463 634 c 0,2,3
 473 634 473 634 482 621 c 0,4,5
 488 612 488 612 488 604 c 0,6,7
 488 585 488 585 443 539 c 0,8,9
 380 471 380 471 357 435 c 0,10,11
 350 424 350 424 351 423 c 0,12,13
 351 422 351 422 356 426 c 0,14,15
 365 432 365 432 387 432 c 0,16,17
 418 432 418 432 457 422 c 128,-1,18
 496 412 496 412 511 399 c 0,19,20
 521 392 521 392 521 376 c 0,21,22
 521 351 521 351 492 310 c 0,23,24
 470 277 470 277 470 275 c 0,25,26
 470 274 470 274 492 262 c 0,27,28
 539 238 539 238 539 201 c 0,29,30
 539 185 539 185 535.5 178 c 128,-1,31
 532 171 532 171 517 158 c 0,32,33
 489 134 489 134 454 118.5 c 128,-1,34
 419 103 419 103 396 103 c 0,35,36
 380 103 380 103 375 111 c 128,-1,37
 370 119 370 119 370 133 c 0,38,39
 370 151 370 151 377 156 c 0,40,41
 383 162 383 162 399 166 c 0,42,43
 413 169 413 169 437.5 181 c 128,-1,44
 462 193 462 193 465 198 c 0,45,46
 466 199 466 199 466 201 c 0,47,48
 466 207 466 207 416 220 c 0,49,50
 354 235 354 235 354 260 c 0,51,52
 354 280 354 280 394 299 c 0,53,54
 411 308 411 308 430 331 c 0,55,56
 445 351 445 351 445 356 c 0,57,58
 445 367 445 367 399 368 c 0,59,60
 343 369 343 369 338 396 c 1,61,-1
 337 397 l 2,62,63
 332 397 332 397 288 324.5 c 128,-1,64
 244 252 244 252 193.5 172.5 c 128,-1,65
 143 93 143 93 124 79 c 0,66,67
 120 75 120 75 111 75 c 0,68,69
 96 75 96 75 89 84 c 0,70,71
 78 97 78 97 78 105 c 0,72,73
 78 112 78 112 88 127 c 0,74,75
 141 202 141 202 202 303 c 0,76,77
 284 439 284 439 315 483 c 128,-1,78
 346 527 346 527 401 586 c 0,0,1
123 606 m 0,79,80
 156 623 156 623 174 623 c 0,81,82
 189 623 189 623 199 610 c 128,-1,83
 209 597 209 597 209 570 c 0,84,85
 209 565 209 565 207 507 c 0,86,87
 201 338 201 338 191 330 c 0,88,89
 182 321 182 321 170 321 c 0,90,91
 159 321 159 321 149 331 c 0,92,93
 137 343 137 343 137 360 c 0,94,95
 137 363 137 363 139 395 c 0,96,97
 146 492 146 492 146 523 c 0,98,99
 146 542 146 542 143 543 c 0,100,101
 139 546 139 546 117 528 c 0,102,103
 99 511 99 511 83 511 c 0,104,105
 73 511 73 511 63 519 c 0,106,107
 55 526 55 526 55 537 c 0,108,109
 55 570 55 570 123 606 c 0,79,80
EndSplineSet
Validated: 1
EndChar

StartChar: notequal
Encoding: 8800 8800 80
Width: 496
GlyphClass: 1
Flags: W
LayerCount: 2
Fore
SplineSet
296 569 m 0,0,1
 304 578 304 578 316 578 c 0,2,3
 332 578 332 578 341 564 c 0,4,5
 348 554 348 554 348 547 c 0,6,7
 348 541 348 541 342 523 c 0,8,9
 333 496 333 496 333 493 c 0,10,11
 333 489 333 489 374 489 c 0,12,13
 416 489 416 489 426 479 c 128,-1,14
 436 469 436 469 436 457 c 0,15,16
 436 434 436 434 403 427 c 0,17,18
 385 422 385 422 342 422 c 2,19,-1
 302 422 l 1,20,-1
 281 380 l 2,21,22
 263 342 263 342 263 335 c 0,23,24
 263 331 263 331 310 331 c 0,25,26
 334 331 334 331 347 332 c 0,27,28
 401 334 401 334 405 334 c 0,29,30
 429 334 429 334 434 326 c 0,31,32
 442 314 442 314 442 305 c 0,33,34
 442 285 442 285 416 278 c 128,-1,35
 390 271 390 271 298 267 c 2,36,-1
 218 264 l 1,37,-1
 193 217 l 2,38,39
 174 182 174 182 168.5 176 c 128,-1,40
 163 170 163 170 148 170 c 0,41,42
 128 170 128 170 121 185 c 0,43,44
 117 195 117 195 117 198 c 0,45,46
 117 207 117 207 130 234 c 2,47,-1
 146 268 l 1,48,-1
 108 264 l 2,49,50
 100 263 100 263 88 263 c 0,51,52
 68 263 68 263 60.5 269.5 c 128,-1,53
 53 276 53 276 53 292 c 0,54,55
 53 311 53 311 68 318.5 c 128,-1,56
 83 326 83 326 128 328 c 0,57,58
 182 332 182 332 184 334 c 0,59,60
 191 341 191 341 205.5 371.5 c 128,-1,61
 220 402 220 402 220 407 c 0,62,63
 218 410 218 410 210 409 c 128,-1,64
 202 408 202 408 192 405 c 0,65,66
 180 402 180 402 154 402 c 0,67,68
 137 402 137 402 129 403 c 0,69,70
 101 404 101 404 92 407 c 128,-1,71
 83 410 83 410 75 419 c 0,72,73
 64 432 64 432 64 436 c 0,74,75
 64 441 64 441 75 455 c 0,76,77
 84 468 84 468 99 468 c 0,78,79
 109 468 109 468 117 467 c 0,80,81
 124 466 124 466 139 466 c 0,82,83
 179 466 179 466 236 477 c 0,84,85
 251 480 251 480 256.5 486.5 c 128,-1,86
 262 493 262 493 273 521 c 0,87,88
 289 560 289 560 296 569 c 0,0,1
EndSplineSet
Validated: 1
EndChar

StartChar: quotedbl
Encoding: 34 34 81
AltUni2: 00201e.ffffffff.0 00201e.ffffffff.0
Width: 291
GlyphClass: 1
Flags: W
LayerCount: 2
Fore
SplineSet
66 626 m 2,0,1
 77 637 77 637 88 637 c 0,2,3
 102 637 102 637 113 623 c 0,4,5
 119 617 119 617 120 601 c 128,-1,6
 121 585 121 585 121 524 c 0,7,8
 121 435 121 435 113 426 c 0,9,10
 106 417 106 417 90 417 c 0,11,12
 75 417 75 417 66 427 c 128,-1,13
 57 437 57 437 55 525 c 2,14,-1
 53 613 l 1,15,-1
 66 626 l 2,0,1
174 627 m 0,16,17
 180 634 180 634 194 634 c 0,18,19
 214 634 214 634 222 623 c 0,20,21
 227 615 227 615 233 551.5 c 128,-1,22
 239 488 239 488 239 449 c 0,23,24
 239 434 239 434 237 428 c 0,25,26
 229 406 229 406 207 406 c 0,27,28
 195 406 195 406 184 417 c 0,29,30
 175 427 175 427 170 509 c 0,31,32
 167 566 167 566 167 590 c 0,33,34
 167 619 167 619 174 627 c 0,16,17
EndSplineSet
Validated: 1
EndChar

StartChar: numbersign
Encoding: 35 35 82
Width: 526
GlyphClass: 1
Flags: W
LayerCount: 2
Fore
SplineSet
325 416 m 0,0,1
 325 424 325 424 319.5 425.5 c 128,-1,2
 314 427 314 427 284 427 c 2,3,-1
 279 427 l 2,4,5
 247 427 247 427 240.5 420 c 128,-1,6
 234 413 234 413 225 370 c 0,7,8
 223 362 223 362 220.5 350 c 128,-1,9
 218 338 218 338 216.5 331 c 128,-1,10
 215 324 215 324 214 322 c 0,11,12
 213 321 213 321 213 318 c 0,13,14
 213 313 213 313 233 313 c 0,15,16
 236 313 236 313 244 313.5 c 128,-1,17
 252 314 252 314 258 314 c 2,18,-1
 306 316 l 1,19,-1
 316 360 l 2,20,21
 319 375 319 375 325 416 c 0,0,1
229 601 m 0,22,23
 239 608 239 608 249 608 c 0,24,25
 260 608 260 608 269 599 c 128,-1,26
 278 590 278 590 278 577 c 0,27,28
 278 566 278 566 272 548 c 0,29,30
 265 528 265 528 261 508 c 2,31,-1
 258 489 l 1,32,-1
 300 490 l 1,33,-1
 342 492 l 1,34,-1
 352 533 l 2,35,36
 363 576 363 576 371 584 c 0,37,38
 378 593 378 593 392 593 c 0,39,40
 410 593 410 593 417 580 c 0,41,42
 422 572 422 572 422 564 c 0,43,44
 422 551 422 551 417 531 c 0,45,46
 410 503 410 503 410 493 c 0,47,48
 410 487 410 487 413 485.5 c 128,-1,49
 416 484 416 484 425 484 c 2,50,-1
 428 484 l 2,51,52
 446 484 446 484 459 473 c 0,53,54
 470 462 470 462 470 453 c 0,55,56
 470 446 470 446 462 433 c 0,57,58
 453 422 453 422 424 422 c 0,59,60
 393 422 393 422 390 417 c 0,61,62
 387 413 387 413 379.5 370 c 128,-1,63
 372 327 372 327 372 317 c 0,64,65
 372 311 372 311 376.5 309.5 c 128,-1,66
 381 308 381 308 397 308 c 0,67,68
 420 308 420 308 434.5 298 c 128,-1,69
 449 288 449 288 449 273 c 0,70,71
 449 263 449 263 442 253 c 0,72,73
 434 244 434 244 396 243 c 2,74,-1
 359 243 l 1,75,-1
 356 212 l 2,76,77
 355 204 355 204 352 149 c 0,78,79
 351 122 351 122 344 111.5 c 128,-1,80
 337 101 337 101 320 101 c 0,81,82
 301 101 301 101 295.5 109 c 128,-1,83
 290 117 290 117 290 146 c 0,84,85
 290 169 290 169 291 184 c 2,86,-1
 294 251 l 1,87,-1
 203 251 l 1,88,-1
 197 224 l 2,89,90
 192 197 192 197 188 161 c 0,91,92
 184 127 184 127 174 119 c 0,93,94
 163 111 163 111 154 111 c 0,95,96
 144 111 144 111 133 122 c 0,97,98
 124 131 124 131 124 145 c 128,-1,99
 124 159 124 159 133 219 c 2,100,-1
 137 247 l 1,101,-1
 109 243 l 2,102,103
 104 242 104 242 94 242 c 0,104,105
 56 242 56 242 56 270 c 0,106,107
 56 308 56 308 116 308 c 2,108,-1
 119 308 l 2,109,110
 141 308 141 308 146 315.5 c 128,-1,111
 151 323 151 323 162 370 c 0,112,113
 164 379 164 379 167 390 c 128,-1,114
 170 401 170 401 172 407.5 c 128,-1,115
 174 414 174 414 174 416 c 0,116,117
 174 422 174 422 141 422 c 0,118,119
 106 422 106 422 94 433 c 0,120,121
 83 443 83 443 83 454 c 0,122,123
 83 463 83 463 90 473 c 0,124,125
 95 480 95 480 103.5 482 c 128,-1,126
 112 484 112 484 141 484 c 0,127,128
 185 484 185 484 189 491 c 0,129,130
 198 507 198 507 212 568 c 0,131,132
 217 592 217 592 229 601 c 0,22,23
EndSplineSet
Validated: 1
EndChar

StartChar: dollar
Encoding: 36 36 83
Width: 434
GlyphClass: 1
Flags: W
LayerCount: 2
Fore
SplineSet
286 296 m 0,0,1
 261 313 261 313 258 313 c 0,2,3
 254 313 254 313 254 266 c 0,4,5
 254 222 254 222 260 222 c 0,6,7
 263 222 263 222 266 223 c 0,8,9
 315 237 315 237 315 263 c 0,10,11
 315 268 315 268 314 270 c 0,12,13
 310 281 310 281 286 296 c 0,0,1
189 519 m 0,14,15
 188 525 188 525 183 525 c 256,16,17
 178 525 178 525 161 511 c 0,18,19
 120 475 120 475 120 440 c 0,20,21
 120 424 120 424 127 418 c 128,-1,22
 134 412 134 412 160 407 c 0,23,24
 182 403 182 403 184 403 c 0,25,26
 189 403 189 403 193 407 c 0,27,28
 195 411 195 411 195 430 c 0,29,30
 195 499 195 499 189 519 c 0,14,15
199 654 m 0,31,32
 204 660 204 660 217 660 c 0,33,34
 236 660 236 660 245 651 c 0,35,36
 254 643 254 643 254 618 c 2,37,-1
 254 594 l 1,38,-1
 280 588 l 2,39,40
 310 582 310 582 315 582 c 0,41,42
 329 582 329 582 338 572.5 c 128,-1,43
 347 563 347 563 347 550 c 128,-1,44
 347 537 347 537 337 528 c 0,45,46
 328 521 328 521 310 521 c 0,47,48
 294 521 294 521 266 528 c 2,49,-1
 254 532 l 1,50,-1
 254 387 l 1,51,-1
 293 367 l 2,52,53
 331 348 331 348 347 334.5 c 128,-1,54
 363 321 363 321 370 299 c 0,55,56
 378 273 378 273 378 260 c 0,57,58
 378 244 378 244 371 229 c 0,59,60
 361 205 361 205 339 190 c 128,-1,61
 317 175 317 175 275 162 c 2,62,-1
 252 155 l 1,63,-1
 246 109 l 2,64,65
 241 73 241 73 234 61 c 128,-1,66
 227 49 227 49 210 49 c 0,67,68
 182 49 182 49 182 94 c 2,69,-1
 182 104 l 1,70,-1
 184 139 l 1,71,-1
 163 141 l 2,72,73
 116 145 116 145 86.5 159.5 c 128,-1,74
 57 174 57 174 57 193 c 0,75,76
 57 204 57 204 68 215 c 0,77,78
 78 225 78 225 86 225 c 0,79,80
 92 225 92 225 115 215 c 0,81,82
 137 204 137 204 171 204 c 0,83,84
 185 204 185 204 188 208 c 0,85,86
 191 211 191 211 193 271 c 0,87,88
 194 286 194 286 194 306 c 0,89,90
 194 327 194 327 186 332.5 c 128,-1,91
 178 338 178 338 143 346 c 0,92,93
 74 362 74 362 59 404 c 0,94,95
 54 417 54 417 54 435 c 0,96,97
 54 480 54 480 88 525.5 c 128,-1,98
 122 571 122 571 168 585 c 0,99,100
 184 589 184 589 187 593.5 c 128,-1,101
 190 598 190 598 192 619 c 0,102,103
 196 647 196 647 199 654 c 0,31,32
EndSplineSet
Validated: 1
EndChar

StartChar: percent
Encoding: 37 37 84
Width: 609
GlyphClass: 1
Flags: W
LayerCount: 2
Fore
SplineSet
178 559 m 0,0,1
 162 579 162 579 155 579 c 0,2,3
 147 579 147 579 140 568 c 0,4,5
 118 536 118 536 118 485 c 0,6,7
 118 406 118 406 160 367 c 2,8,-1
 174 353 l 1,9,-1
 185 364 l 2,10,11
 196 375 196 375 196 413 c 0,12,13
 194 536 194 536 178 559 c 0,0,1
109 631 m 0,14,15
 123 645 123 645 147 645 c 0,16,17
 184 645 184 645 213 615 c 0,18,19
 236 592 236 592 245 558 c 128,-1,20
 254 524 254 524 257 452 c 0,21,22
 258 429 258 429 258 400 c 0,23,24
 258 367 258 367 248 348 c 0,25,26
 223 297 223 297 170 297 c 0,27,28
 150 297 150 297 142.5 301 c 128,-1,29
 135 305 135 305 116 325 c 0,30,31
 56 387 56 387 54 479 c 0,32,33
 54 578 54 578 109 631 c 0,14,15
430 620 m 0,34,35
 441 629 441 629 449 629 c 0,36,37
 460 629 460 629 470.5 620 c 128,-1,38
 481 611 481 611 481 601 c 0,39,40
 481 588 481 588 445 534 c 0,41,42
 408 478 408 478 408 476 c 0,43,44
 408 471 408 471 401 464 c 0,45,46
 397 459 397 459 362 393 c 0,47,48
 294 263 294 263 271 223 c 128,-1,49
 248 183 248 183 214 137 c 0,50,51
 194 108 194 108 186 102 c 0,52,53
 181 97 181 97 170 97 c 0,54,55
 154 97 154 97 143 112 c 0,56,57
 136 122 136 122 136 126 c 0,58,59
 136 135 136 135 175 190 c 0,60,61
 217 247 217 247 289 388 c 0,62,63
 323 454 323 454 370 531 c 128,-1,64
 417 608 417 608 430 620 c 0,34,35
483 351 m 0,65,66
 479 353 479 353 471 353 c 0,67,68
 457 353 457 353 443 344.5 c 128,-1,69
 429 336 429 336 426 325 c 0,70,71
 424 315 424 315 424 304 c 0,72,73
 424 241 424 241 438 215 c 0,74,75
 447 195 447 195 456 195 c 0,76,77
 466 195 466 195 478 221 c 0,78,79
 491 249 491 249 491 298 c 0,80,81
 491 348 491 348 483 351 c 0,65,66
407 404 m 0,82,83
 423 414 423 414 443 414 c 0,84,85
 457 414 457 414 466 413 c 0,86,87
 522 411 522 411 538 390 c 128,-1,88
 554 369 554 369 555 298 c 2,89,-1
 555 280 l 2,90,91
 555 239 555 239 546 217 c 0,92,93
 529 172 529 172 505 148 c 128,-1,94
 481 124 481 124 456 124 c 0,95,96
 425 124 425 124 398 160 c 0,97,98
 363 206 363 206 361 297 c 0,99,100
 361 337 361 337 375 365 c 0,101,102
 388 392 388 392 407 404 c 0,82,83
EndSplineSet
Validated: 2049
EndChar

StartChar: quotesingle
Encoding: 39 39 85
AltUni2: 00201a.ffffffff.0 00201a.ffffffff.0
Width: 171
GlyphClass: 1
Flags: W
LayerCount: 2
Fore
SplineSet
71 638 m 0,0,1
 83 644 83 644 87 644 c 0,2,3
 93 644 93 644 106 631 c 0,4,5
 117 619 117 619 117 603 c 0,6,7
 117 589 117 589 116 578 c 0,8,9
 115 570 115 570 115 550 c 0,10,11
 115 529 115 529 117 507 c 0,12,13
 119 491 119 491 119 484 c 0,14,15
 119 443 119 443 97 437 c 0,16,17
 94 436 94 436 89 436 c 0,18,19
 66 436 66 436 59 447 c 0,20,21
 53 457 53 457 53 551 c 0,22,23
 53 581 53 581 55 601 c 128,-1,24
 57 621 57 621 60 627.5 c 128,-1,25
 63 634 63 634 71 638 c 0,0,1
EndSplineSet
Validated: 1
EndChar

StartChar: parenleft
Encoding: 40 40 86
Width: 253
GlyphClass: 1
Flags: W
LayerCount: 2
Fore
SplineSet
117 606 m 0,0,1
 133 623 133 623 145 623 c 0,2,3
 155 623 155 623 165 613 c 0,4,5
 176 602 176 602 176 591 c 0,6,7
 176 582 176 582 167 568 c 0,8,9
 147 540 147 540 129 472 c 0,10,11
 117 426 117 426 117 343 c 0,12,13
 117 255 117 255 130 191 c 0,14,15
 149 90 149 90 192 -11 c 0,16,17
 196 -20 196 -20 196 -26 c 0,18,19
 196 -30 196 -30 190 -41 c 0,20,21
 181 -55 181 -55 167 -55 c 0,22,23
 140 -55 140 -55 122 -11 c 0,24,25
 52 156 52 156 52 340 c 0,26,27
 52 426 52 426 70.5 501 c 128,-1,28
 89 576 89 576 117 606 c 0,0,1
EndSplineSet
Validated: 1
EndChar

StartChar: parenright
Encoding: 41 41 87
Width: 279
GlyphClass: 1
Flags: W
LayerCount: 2
Fore
SplineSet
108 621 m 0,0,1
 120 630 120 630 129 630 c 0,2,3
 142 630 142 630 153.5 609 c 128,-1,4
 165 588 165 588 182 536 c 0,5,6
 226 400 226 400 226 312 c 128,-1,7
 226 224 226 224 185 119 c 0,8,9
 185 118 185 118 166 69 c 0,10,11
 125 -35 125 -35 101 -49 c 0,12,13
 92 -55 92 -55 87 -55 c 0,14,15
 83 -55 83 -55 72 -47 c 0,16,17
 57 -35 57 -35 57 -23 c 128,-1,18
 57 -11 57 -11 69 10 c 0,19,20
 87 41 87 41 114 113 c 128,-1,21
 141 185 141 185 157 248 c 0,22,23
 164 273 164 273 164 306 c 0,24,25
 164 378 164 378 118 523 c 0,26,27
 97 588 97 588 97 602 c 0,28,29
 97 614 97 614 108 621 c 0,0,1
EndSplineSet
Validated: 1
EndChar

StartChar: asterisk
Encoding: 42 42 88
Width: 416
GlyphClass: 1
Flags: W
LayerCount: 2
Fore
SplineSet
177 626 m 0,0,1
 187 639 187 639 200 639 c 0,2,3
 212 639 212 639 223 628 c 0,4,5
 233 618 233 618 233 599 c 0,6,7
 233 584 233 584 232 572 c 2,8,-1
 229 525 l 1,9,-1
 263 525 l 2,10,11
 298 525 298 525 310 534 c 0,12,13
 319 540 319 540 328 540 c 0,14,15
 344 540 344 540 354 524 c 0,16,17
 365 510 365 510 359 497 c 0,18,19
 353 485 353 485 331 474.5 c 128,-1,20
 309 464 309 464 289 463 c 0,21,22
 269 463 269 463 269 459 c 128,-1,23
 269 455 269 455 288 417 c 0,24,25
 305 382 305 382 305 368 c 0,26,27
 305 362 305 362 302 356 c 0,28,29
 299 351 299 351 287.5 345 c 128,-1,30
 276 339 276 339 270 339 c 0,31,32
 254 339 254 339 228 395 c 0,33,34
 212 426 212 426 207 426 c 128,-1,35
 202 426 202 426 179 383 c 0,36,37
 164 355 164 355 157.5 348.5 c 128,-1,38
 151 342 151 342 140 340 c 2,39,-1
 136 340 l 2,40,41
 123 340 123 340 113.5 348 c 128,-1,42
 104 356 104 356 104 367 c 0,43,44
 104 377 104 377 124 415 c 0,45,46
 141 446 141 446 141 454 c 0,47,48
 141 458 141 458 122 458 c 0,49,50
 106 458 106 458 87 465 c 0,51,52
 55 477 55 477 55 500 c 0,53,54
 55 512 55 512 64.5 519.5 c 128,-1,55
 74 527 74 527 91 527 c 0,56,57
 95 527 95 527 107 525 c 0,58,59
 135 520 135 520 147 520 c 2,60,-1
 166 520 l 1,61,-1
 166 566 l 2,62,63
 166 611 166 611 177 626 c 0,0,1
EndSplineSet
Validated: 1
EndChar

StartChar: slash
Encoding: 47 47 89
Width: 365
GlyphClass: 1
Flags: W
LayerCount: 2
Fore
SplineSet
261 638 m 0,0,1
 270 644 270 644 279 644 c 0,2,3
 291 644 291 644 300 635 c 128,-1,4
 309 626 309 626 309 611 c 0,5,6
 309 594 309 594 305 590 c 0,7,8
 300 585 300 585 281 537 c 128,-1,9
 262 489 262 489 247 445 c 0,10,11
 230 393 230 393 217 358 c 128,-1,12
 204 323 204 323 188 285 c 128,-1,13
 172 247 172 247 159 212 c 0,14,15
 127 128 127 128 116 109 c 128,-1,16
 105 90 105 90 88 90 c 0,17,18
 73 90 73 90 64.5 99 c 128,-1,19
 56 108 56 108 56 122 c 0,20,21
 56 135 56 135 63 146 c 0,22,23
 75 169 75 169 84 196 c 0,24,25
 97 233 97 233 102 243 c 0,26,27
 136 317 136 317 182 455 c 0,28,29
 238 621 238 621 261 638 c 0,0,1
EndSplineSet
Validated: 1
EndChar

StartChar: less
Encoding: 60 60 90
Width: 494
GlyphClass: 1
Flags: W
LayerCount: 2
Fore
SplineSet
365 558 m 0,0,1
 390 572 390 572 405 572 c 0,2,3
 418 572 418 572 428 562 c 128,-1,4
 438 552 438 552 438 536 c 0,5,6
 438 523 438 523 431.5 514 c 128,-1,7
 425 505 425 505 414 505 c 0,8,9
 398 505 398 505 234 401 c 2,10,-1
 178 365 l 1,11,-1
 234 338 l 2,12,13
 282 315 282 315 340 289 c 0,14,15
 390 266 390 266 397 260.5 c 128,-1,16
 404 255 404 255 406 239 c 0,17,18
 406 237 406 237 406.5 234.5 c 128,-1,19
 407 232 407 232 407 231 c 0,20,21
 407 220 407 220 395 211 c 0,22,23
 387 206 387 206 381 206 c 0,24,25
 368 206 368 206 240 266 c 0,26,27
 186 292 186 292 182 292 c 0,28,29
 177 292 177 292 123 319.5 c 128,-1,30
 69 347 69 347 64 352 c 0,31,32
 55 361 55 361 55 372 c 0,33,34
 55 385 55 385 66.5 395.5 c 128,-1,35
 78 406 78 406 95 406 c 0,36,37
 130 406 130 406 236 477 c 0,38,39
 302 521 302 521 365 558 c 0,0,1
EndSplineSet
Validated: 1
EndChar

StartChar: equal
Encoding: 61 61 91
Width: 465
GlyphClass: 1
Flags: W
LayerCount: 2
Fore
SplineSet
229 478 m 0,0,1
 285 480 285 480 304 480 c 0,2,3
 381 480 381 480 399 470 c 0,4,5
 411 462 411 462 411 441 c 0,6,7
 411 428 411 428 404 422 c 0,8,9
 398 417 398 417 278 414 c 0,10,11
 140 410 140 410 121 407 c 0,12,13
 101 405 101 405 94 405 c 0,14,15
 62 405 62 405 55 431 c 0,16,17
 51 445 51 445 65 456 c 0,18,19
 76 466 76 466 108 470 c 128,-1,20
 140 474 140 474 229 478 c 0,0,1
111 339 m 0,21,22
 155 343 155 343 259 343 c 0,23,24
 372 343 372 343 381 339 c 0,25,26
 400 333 400 333 400 308 c 0,27,28
 400 289 400 289 386 285 c 0,29,30
 378 282 378 282 230 280 c 0,31,32
 197 279 197 279 149 279 c 0,33,34
 109 279 109 279 92.5 282 c 128,-1,35
 76 285 76 285 72.5 289.5 c 128,-1,36
 69 294 69 294 69 307 c 0,37,38
 69 325 69 325 77 331 c 128,-1,39
 85 337 85 337 111 339 c 0,21,22
EndSplineSet
Validated: 1
EndChar

StartChar: greater
Encoding: 62 62 92
Width: 435
GlyphClass: 1
Flags: W
LayerCount: 2
Fore
SplineSet
85 515 m 128,-1,1
 95 525 95 525 105 525 c 0,2,3
 131 525 131 525 206 490 c 0,4,5
 240 474 240 474 246 474 c 0,6,7
 251 474 251 474 251 468 c 0,8,9
 251 463 251 463 257 463 c 0,10,11
 264 463 264 463 302 440 c 128,-1,12
 340 417 340 417 359 402 c 0,13,14
 379 386 379 386 379 377 c 0,15,16
 379 371 379 371 378 368 c 0,17,18
 375 352 375 352 365 343 c 128,-1,19
 355 334 355 334 329 324 c 0,20,21
 275 301 275 301 193 254 c 0,22,23
 163 238 163 238 128 224.5 c 128,-1,24
 93 211 93 211 80 211 c 2,25,-1
 77 211 l 1,26,27
 55 216 55 216 55 242 c 0,28,29
 55 249 55 249 56 252 c 0,30,31
 61 273 61 273 121 290 c 0,32,33
 133 294 133 294 177 319 c 0,34,35
 211 340 211 340 249 358 c 0,36,37
 279 372 279 372 279 375 c 0,38,39
 279 381 279 381 214 414 c 128,-1,40
 149 447 149 447 115 458 c 128,-1,41
 81 469 81 469 78 481 c 0,42,43
 75 492 75 492 75 497 c 0,44,0
 75 505 75 505 85 515 c 128,-1,1
EndSplineSet
Validated: 1
EndChar

StartChar: bracketleft
Encoding: 91 91 93
Width: 283
GlyphClass: 1
Flags: W
LayerCount: 2
Fore
SplineSet
64 630 m 0,0,1
 73 639 73 639 102 639 c 0,2,3
 126 639 126 639 143 638 c 0,4,5
 189 637 189 637 202.5 635 c 128,-1,6
 216 633 216 633 221 626 c 0,7,8
 228 615 228 615 228 607 c 0,9,10
 228 594 228 594 216.5 585.5 c 128,-1,11
 205 577 205 577 187 577 c 0,12,13
 162 577 162 577 144 574 c 2,14,-1
 120 571 l 1,15,-1
 117 491 l 2,16,17
 116 469 116 469 116 384 c 0,18,19
 116 287 116 287 117 240 c 2,20,-1
 121 69 l 1,21,-1
 159 69 l 2,22,23
 190 69 190 69 201 62.5 c 128,-1,24
 212 56 212 56 212 38 c 0,25,26
 212 22 212 22 197.5 15 c 128,-1,27
 183 8 183 8 143 6 c 0,28,29
 134 5 134 5 117 5 c 0,30,31
 66 5 66 5 60 21 c 0,32,33
 57 29 57 29 53 188 c 0,34,35
 50 340 50 340 50 375 c 0,36,37
 50 379 50 379 52 509 c 0,38,39
 54 619 54 619 64 630 c 0,0,1
EndSplineSet
Validated: 1
EndChar

StartChar: bracketright
Encoding: 93 93 94
Width: 291
GlyphClass: 1
Flags: W
LayerCount: 2
Fore
SplineSet
67 603 m 0,0,1
 75 610 75 610 88 611.5 c 128,-1,2
 101 613 101 613 149 613 c 0,3,4
 198 613 198 613 210.5 612 c 128,-1,5
 223 611 223 611 228 605 c 128,-1,6
 233 599 233 599 235 550 c 128,-1,7
 237 501 237 501 239 316 c 0,8,9
 241 124 241 124 241 114 c 0,10,11
 241 35 241 35 234 27 c 0,12,13
 228 20 228 20 216.5 19 c 128,-1,14
 205 18 205 18 158 18 c 0,15,16
 102 18 102 18 86.5 23 c 128,-1,17
 71 28 71 28 71 47 c 0,18,19
 71 68 71 68 80 74 c 128,-1,20
 89 80 89 80 123 80 c 0,21,22
 167 80 167 80 171 82 c 0,23,24
 177 85 177 85 177 150 c 0,25,26
 177 202 177 202 176 242 c 0,27,28
 175 290 175 290 174 374 c 128,-1,29
 173 458 173 458 173 474 c 2,30,-1
 172 549 l 1,31,-1
 123 550 l 2,32,33
 75 551 75 551 65 562 c 0,34,35
 56 572 56 572 56 582 c 128,-1,36
 56 592 56 592 67 603 c 0,0,1
EndSplineSet
Validated: 1
EndChar

StartChar: asciicircum
Encoding: 94 94 95
Width: 478
GlyphClass: 1
Flags: W
LayerCount: 2
Fore
SplineSet
220 607 m 128,-1,1
 228 613 228 613 241 613 c 0,2,3
 253 613 253 613 263 608 c 128,-1,4
 273 603 273 603 325 495 c 0,5,6
 409 320 409 320 418 311 c 0,7,8
 423 304 423 304 423 297 c 0,9,10
 423 284 423 284 413.5 272.5 c 128,-1,11
 404 261 404 261 392 261 c 0,12,13
 378 261 378 261 362 283.5 c 128,-1,14
 346 306 346 306 318 365 c 0,15,16
 311 380 311 380 298 406 c 128,-1,17
 285 432 285 432 276 451 c 128,-1,18
 267 470 267 470 262 480 c 2,19,-1
 242 521 l 1,20,-1
 221 479 l 2,21,22
 206 447 206 447 179.5 403 c 128,-1,23
 153 359 153 359 140 334 c 0,24,25
 120 294 120 294 109 280 c 128,-1,26
 98 266 98 266 85 266 c 0,27,28
 74 266 74 266 64.5 275 c 128,-1,29
 55 284 55 284 55 295 c 0,30,31
 55 304 55 304 81.5 357 c 128,-1,32
 108 410 108 410 130 445 c 0,33,34
 146 470 146 470 179 536 c 0,35,0
 212 601 212 601 220 607 c 128,-1,1
EndSplineSet
Validated: 1
EndChar

StartChar: underscore
Encoding: 95 95 96
Width: 482
GlyphClass: 1
Flags: W
LayerCount: 2
Fore
SplineSet
56 47 m 2,0,-1
 64 60 l 1,1,-1
 237 58 l 2,2,3
 362 56 362 56 388 55 c 128,-1,4
 414 54 414 54 421 47 c 0,5,6
 432 36 432 36 432 23 c 128,-1,7
 432 10 432 10 427.5 5 c 128,-1,8
 423 0 423 0 402 -2.5 c 128,-1,9
 381 -5 381 -5 331 -5 c 0,10,11
 321 -5 321 -5 292 -4.5 c 128,-1,12
 263 -4 263 -4 244 -4 c 0,13,14
 74 -2 74 -2 63 3 c 0,15,16
 50 10 50 10 50 27 c 0,17,18
 50 38 50 38 56 47 c 2,0,-1
EndSplineSet
Validated: 1
EndChar

StartChar: grave
Encoding: 96 96 97
Width: 248
GlyphClass: 1
Flags: W
LayerCount: 2
Fore
SplineSet
66 658 m 2,0,1
 79 671 79 671 90 671 c 0,2,3
 108 671 108 671 129 637 c 0,4,5
 144 614 144 614 158 598 c 0,6,7
 174 580 174 580 174 575 c 0,8,9
 174 568 174 568 185 559 c 0,10,11
 195 551 195 551 195 535 c 0,12,13
 195 521 195 521 187 513 c 128,-1,14
 179 505 179 505 167 505 c 0,15,16
 157 505 157 505 148 510 c 0,17,18
 137 515 137 515 105 558.5 c 128,-1,19
 73 602 73 602 64 623 c 2,20,-1
 54 646 l 1,21,-1
 66 658 l 2,0,1
EndSplineSet
Validated: 1
EndChar

StartChar: braceleft
Encoding: 123 123 98
Width: 359
GlyphClass: 1
Flags: W
LayerCount: 2
Fore
SplineSet
219 618 m 0,0,1
 229 624 229 624 254 624 c 0,2,3
 272 624 272 624 278.5 621.5 c 128,-1,4
 285 619 285 619 291 610 c 0,5,6
 300 597 300 597 292 583 c 0,7,8
 284 570 284 570 271 568 c 0,9,10
 248 565 248 565 192 483 c 0,11,12
 168 447 168 447 168 428 c 0,13,14
 168 418 168 418 174 404 c 0,15,16
 184 383 184 383 191 396 c 0,17,18
 194 401 194 401 205 401 c 0,19,20
 222 401 222 401 231 392 c 128,-1,21
 240 383 240 383 240 370 c 128,-1,22
 240 357 240 357 231 348 c 0,23,24
 224 341 224 341 189 331 c 0,25,26
 134 317 134 317 132 302 c 0,27,28
 132 297 132 297 157 297 c 0,29,30
 183 297 183 297 194 283 c 0,31,32
 202 274 202 274 202 258 c 0,33,34
 202 237 202 237 182 187 c 0,35,36
 169 154 169 154 169 145 c 0,37,38
 169 140 169 140 174 125 c 0,39,40
 183 97 183 97 196 88.5 c 128,-1,41
 209 80 209 80 242 80 c 128,-1,42
 275 80 275 80 289 73 c 128,-1,43
 303 66 303 66 303 49 c 0,44,45
 303 34 303 34 294 27 c 0,46,47
 282 15 282 15 226 15 c 0,48,49
 205 15 205 15 193 18 c 0,50,51
 162 26 162 26 137.5 58.5 c 128,-1,52
 113 91 113 91 108 130 c 0,53,54
 107 135 107 135 107 144 c 0,55,56
 107 164 107 164 124 218 c 0,57,58
 128 229 128 229 109 237 c 0,59,60
 89 245 89 245 88 244 c 0,61,62
 85 243 85 243 73 255 c 0,63,64
 56 272 56 272 56 292 c 0,65,66
 56 324 56 324 94 350 c 0,67,68
 115 363 115 363 115 373 c 0,69,70
 115 377 115 377 114 380 c 0,71,72
 107 407 107 407 107 437 c 0,73,74
 107 459 107 459 111 470 c 0,75,76
 116 486 116 486 162 549 c 128,-1,77
 208 612 208 612 219 618 c 0,0,1
EndSplineSet
Validated: 1
EndChar

StartChar: bar
Encoding: 124 124 99
Width: 174
GlyphClass: 1
Flags: W
LayerCount: 2
Fore
SplineSet
68 626 m 128,-1,1
 79 634 79 634 87 634 c 0,2,3
 94 634 94 634 105 627 c 0,4,5
 112 622 112 622 113.5 596 c 128,-1,6
 115 570 115 570 115 452 c 0,7,8
 115 269 115 269 120 106 c 2,9,-1
 124 -74 l 1,10,-1
 111 -82 l 2,11,12
 100 -90 100 -90 91 -90 c 128,-1,13
 82 -90 82 -90 72 -79 c 0,14,15
 64 -70 64 -70 61.5 -41 c 128,-1,16
 59 -12 59 -12 55 116 c 0,17,18
 50 321 50 321 50 441 c 0,19,20
 50 544 50 544 53 580 c 0,21,0
 57 618 57 618 68 626 c 128,-1,1
EndSplineSet
Validated: 1
EndChar

StartChar: braceright
Encoding: 125 125 100
Width: 392
GlyphClass: 1
Flags: W
LayerCount: 2
Fore
SplineSet
77 614 m 0,0,1
 86 623 86 623 106 623 c 128,-1,2
 126 623 126 623 141 622 c 0,3,4
 222 618 222 618 255 582 c 0,5,6
 266 570 266 570 268.5 561.5 c 128,-1,7
 271 553 271 553 271 522 c 0,8,9
 269 477 269 477 266 475 c 0,10,11
 259 471 259 471 249 448 c 0,12,13
 236 420 236 420 224 402 c 0,14,15
 211 381 211 381 216 381 c 0,16,17
 217 381 217 381 220 382 c 0,18,19
 261 400 261 400 297 400 c 0,20,21
 299 400 299 400 301.5 399.5 c 128,-1,22
 304 399 304 399 305 399 c 0,23,24
 335 394 335 394 335 368 c 0,25,26
 335 351 335 351 322 331 c 0,27,28
 310 312 310 312 303 305 c 0,29,30
 282 287 282 287 282 276 c 0,31,32
 282 270 282 270 287 258 c 0,33,34
 294 241 294 241 294 219 c 0,35,36
 294 163 294 163 245 107 c 0,37,38
 223 81 223 81 165 44 c 128,-1,39
 107 7 107 7 88 7 c 0,40,41
 77 7 77 7 66.5 16.5 c 128,-1,42
 56 26 56 26 56 37 c 128,-1,43
 56 48 56 48 63.5 58.5 c 128,-1,44
 71 69 71 69 79 69 c 0,45,46
 84 69 84 69 124.5 95.5 c 128,-1,47
 165 122 165 122 183 137 c 0,48,49
 227 175 227 175 227 217 c 0,50,51
 227 234 227 234 219 245 c 0,52,53
 213 254 213 254 213 272 c 0,54,55
 213 289 213 289 219 304 c 0,56,57
 222 311 222 311 216 312 c 0,58,59
 212 312 212 312 200 310 c 0,60,61
 184 308 184 308 179 308 c 0,62,63
 152 308 152 308 140 331 c 0,64,65
 135 343 135 343 135 351 c 0,66,67
 135 375 135 375 171 438 c 0,68,69
 209 505 209 505 209 527 c 0,70,71
 209 544 209 544 192.5 550 c 128,-1,72
 176 556 176 556 138 556 c 0,73,74
 83 556 83 556 71 574 c 0,75,76
 67 579 67 579 67 589 c 0,77,78
 67 604 67 604 77 614 c 0,0,1
EndSplineSet
Validated: 1
EndChar

StartChar: asciitilde
Encoding: 126 126 101
Width: 480
GlyphClass: 1
Flags: W
LayerCount: 2
Fore
SplineSet
119 421 m 0,0,1
 141 432 141 432 159 432 c 0,2,3
 184 432 184 432 218 414 c 0,4,5
 254 395 254 395 274 375 c 128,-1,6
 294 355 294 355 309 355 c 0,7,8
 322 355 322 355 345 372 c 0,9,10
 380 399 380 399 395 399 c 0,11,12
 401 399 401 399 404 398 c 0,13,14
 426 393 426 393 426 370 c 0,15,16
 426 365 426 365 425 362 c 0,17,18
 422 351 422 351 396 329.5 c 128,-1,19
 370 308 370 308 347 297 c 0,20,21
 327 287 327 287 305 287 c 0,22,23
 279 287 279 287 258 302 c 0,24,25
 241 313 241 313 230 327 c 0,26,27
 220 341 220 341 198.5 353 c 128,-1,28
 177 365 177 365 162 365 c 0,29,30
 145 365 145 365 120 344 c 128,-1,31
 95 323 95 323 85 323 c 0,32,33
 73 323 73 323 63.5 332.5 c 128,-1,34
 54 342 54 342 54 354 c 0,35,36
 54 367 54 367 74.5 387.5 c 128,-1,37
 95 408 95 408 119 421 c 0,0,1
EndSplineSet
Validated: 1
EndChar

StartChar: sterling
Encoding: 163 163 102
Width: 497
GlyphClass: 1
Flags: W
LayerCount: 2
Fore
SplineSet
298 645 m 0,0,1
 325 655 325 655 345 655 c 0,2,3
 368 655 368 655 387 644 c 0,4,5
 414 629 414 629 414 605 c 128,-1,6
 414 581 414 581 386 578 c 0,7,8
 368 576 368 576 360 584 c 0,9,10
 354 592 354 592 344 592 c 0,11,12
 332 592 332 592 307 580 c 128,-1,13
 282 568 282 568 257 547 c 128,-1,14
 232 526 232 526 224 509 c 0,15,16
 216 495 216 495 212 441 c 2,17,-1
 209 391 l 1,18,-1
 411 391 l 1,19,-1
 427 377 l 2,20,21
 443 364 443 364 443 354 c 0,22,23
 443 347 443 347 435 336 c 0,24,25
 430 329 430 329 414 328 c 128,-1,26
 398 327 398 327 320 326 c 2,27,-1
 213 326 l 1,28,-1
 211 258 l 1,29,-1
 210 189 l 1,30,-1
 317 188 l 2,31,32
 398 186 398 186 412.5 184.5 c 128,-1,33
 427 183 427 183 431 174 c 0,34,35
 435 167 435 167 435 158 c 0,36,37
 435 133 435 133 410 128 c 0,38,39
 400 126 400 126 338 126 c 0,40,41
 325 126 325 126 293.5 126.5 c 128,-1,42
 262 127 262 127 244 127 c 2,43,-1
 96 129 l 1,44,-1
 86 142 l 2,45,46
 77 154 77 154 77 165 c 0,47,48
 77 194 77 194 119 194 c 0,49,50
 135 194 135 194 139 196.5 c 128,-1,51
 143 199 143 199 145 210 c 0,52,53
 148 223 148 223 148 275 c 2,54,-1
 148 324 l 1,55,-1
 110 323 l 1,56,-1
 94 323 l 2,57,58
 68 323 68 323 63 328 c 0,59,60
 55 334 55 334 55 351 c 0,61,62
 55 364 55 364 59 369 c 0,63,64
 68 383 68 383 128 385 c 2,65,-1
 146 385 l 1,66,-1
 149 444 l 2,67,68
 151 495 151 495 161 523 c 128,-1,69
 171 551 171 551 196 577 c 0,70,71
 239 622 239 622 298 645 c 0,0,1
EndSplineSet
Validated: 1
EndChar

StartChar: yen
Encoding: 165 165 103
Width: 457
GlyphClass: 1
Flags: W
LayerCount: 2
Fore
SplineSet
68 632 m 0,0,1
 81 645 81 645 93 641 c 0,2,3
 106 637 106 637 111.5 631 c 128,-1,4
 117 625 117 625 120 609 c 0,5,6
 123 592 123 592 133 575 c 0,7,8
 154 538 154 538 205 441 c 0,9,10
 229 395 229 395 233 395 c 0,11,12
 238 395 238 395 289 501 c 0,13,14
 341 605 341 605 349 615 c 0,15,16
 356 624 356 624 370 624 c 0,17,18
 382 624 382 624 392 616.5 c 128,-1,19
 402 609 402 609 402 598 c 0,20,21
 402 586 402 586 350 482 c 2,22,-1
 298 378 l 1,23,-1
 335 375 l 2,24,25
 372 373 372 373 382 360 c 0,26,27
 391 348 391 348 391 342 c 0,28,29
 391 335 391 335 382 323 c 128,-1,30
 373 311 373 311 350 311 c 0,31,32
 347 311 347 311 337.5 311.5 c 128,-1,33
 328 312 328 312 321 312 c 2,34,-1
 268 314 l 1,35,-1
 261 298 l 2,36,37
 252 284 252 284 252 278 c 0,38,39
 252 276 252 276 282 276 c 2,40,-1
 302 276 l 1,41,-1
 319 276 l 2,42,43
 350 276 350 276 360.5 269.5 c 128,-1,44
 371 263 371 263 371 246 c 128,-1,45
 371 229 371 229 358 222 c 128,-1,46
 345 215 345 215 308 213 c 0,47,48
 263 211 263 211 259 207 c 0,49,50
 256 205 256 205 254 167 c 0,51,52
 253 137 253 137 247.5 126.5 c 128,-1,53
 242 116 242 116 226 116 c 0,54,55
 190 116 190 116 190 173 c 2,56,-1
 190 202 l 1,57,-1
 149 200 l 2,58,59
 145 200 145 200 138 199.5 c 128,-1,60
 131 199 131 199 128 199 c 0,61,62
 104 199 104 199 95 205 c 128,-1,63
 86 211 86 211 86 226 c 0,64,65
 86 247 86 247 95.5 253 c 128,-1,66
 105 259 105 259 142 261 c 2,67,-1
 187 264 l 1,68,69
 187 271 187 271 188.5 285.5 c 128,-1,70
 190 300 190 300 191 307 c 1,71,-1
 148 309 l 2,72,73
 119 311 119 311 111 313 c 128,-1,74
 103 315 103 315 96 324 c 0,75,76
 89 332 89 332 89 342 c 0,77,78
 89 356 89 356 106 365.5 c 128,-1,79
 123 375 123 375 150 375 c 2,80,-1
 170 375 l 1,81,-1
 155 403 l 2,82,83
 144 421 144 421 76 550 c 0,84,85
 56 588 56 588 56 606 c 0,86,87
 56 620 56 620 68 632 c 0,0,1
EndSplineSet
Validated: 1
EndChar

StartChar: copyright
Encoding: 169 169 104
Width: 646
GlyphClass: 1
Flags: W
LayerCount: 2
Fore
SplineSet
448 548 m 0,0,1
 430 556 430 556 385 556 c 0,2,3
 356 556 356 556 331 551 c 0,4,5
 238 531 238 531 216 520 c 0,6,7
 158 490 158 490 132 421 c 0,8,9
 115 373 115 373 115 336 c 0,10,11
 115 252 115 252 187 215 c 0,12,13
 239 189 239 189 292 189 c 0,14,15
 340 189 340 189 395 213.5 c 128,-1,16
 450 238 450 238 483 274 c 0,17,18
 502 295 502 295 517 337.5 c 128,-1,19
 532 380 532 380 532 413 c 0,20,21
 532 424 532 424 531 428 c 0,22,23
 525 463 525 463 500 499 c 128,-1,24
 475 535 475 535 448 548 c 0,0,1
183 574 m 0,25,26
 263 627 263 627 357 627 c 0,27,28
 379 627 379 627 403 624 c 0,29,30
 483 613 483 613 531 561 c 0,31,32
 592 492 592 492 592 407 c 0,33,34
 592 346 592 346 561 284 c 0,35,36
 513 186 513 186 395 145 c 0,37,38
 348 128 348 128 294 128 c 0,39,40
 219 128 219 128 157 161 c 128,-1,41
 95 194 95 194 68 250 c 0,42,43
 54 280 54 280 54 334 c 0,44,45
 54 377 54 377 61 405 c 128,-1,46
 68 433 68 433 88 474 c 0,47,48
 118 532 118 532 183 574 c 0,25,26
338 531 m 0,49,50
 348 534 348 534 359 534 c 0,51,52
 399 534 399 534 407 493 c 0,53,54
 408 489 408 489 408 483 c 0,55,56
 408 473 408 473 394 458 c 0,57,58
 379 445 379 445 372 445 c 0,59,60
 364 445 364 445 350 457 c 0,61,62
 345 462 345 462 339 462 c 0,63,64
 329 462 329 462 296 435 c 0,65,66
 252 397 252 397 251 336 c 2,67,-1
 251 329 l 2,68,69
 251 303 251 303 257 297 c 128,-1,70
 263 291 263 291 279 291 c 0,71,72
 304 291 304 291 334 303 c 0,73,74
 370 317 370 317 387 317 c 0,75,76
 399 317 399 317 406 306 c 0,77,78
 413 294 413 294 413 285 c 0,79,80
 413 269 413 269 398 260 c 0,81,82
 379 247 379 247 345 238.5 c 128,-1,83
 311 230 311 230 282 230 c 0,84,85
 257 230 257 230 248 232.5 c 128,-1,86
 239 235 239 235 224 245 c 0,87,88
 186 273 186 273 186 334 c 0,89,90
 186 419 186 419 249 476 c 0,91,92
 298 521 298 521 338 531 c 0,49,50
EndSplineSet
Validated: 1
EndChar

StartChar: registered
Encoding: 174 174 105
Width: 615
GlyphClass: 1
Flags: W
LayerCount: 2
Fore
SplineSet
450 579 m 0,0,1
 440 591 440 591 434 594 c 128,-1,2
 428 597 428 597 415 597 c 2,3,-1
 404 597 l 2,4,5
 327 595 327 595 272 573.5 c 128,-1,6
 217 552 217 552 161 502 c 0,7,8
 112 457 112 457 112 409 c 0,9,10
 112 366 112 366 146 301 c 0,11,12
 169 256 169 256 202 223 c 128,-1,13
 235 190 235 190 269 179 c 0,14,15
 298 168 298 168 333 168 c 0,16,17
 362 168 362 168 400 178 c 0,18,19
 437 190 437 190 453 207.5 c 128,-1,20
 469 225 469 225 480 267 c 0,21,22
 501 348 501 348 501 414 c 0,23,24
 501 520 501 520 450 579 c 0,0,1
351 663 m 0,25,26
 363 669 363 669 379 665 c 0,27,28
 394 660 394 660 418 660 c 0,29,30
 460 660 460 660 494 624 c 128,-1,31
 528 588 528 588 550 521 c 0,32,33
 562 482 562 482 562 416 c 0,34,35
 562 275 562 275 527 207 c 0,36,37
 486 124 486 124 379 110 c 0,38,39
 356 107 356 107 334 107 c 0,40,41
 162 107 162 107 74 306 c 0,42,43
 60 338 60 338 57.5 352 c 128,-1,44
 55 366 55 366 54 406 c 0,45,46
 54 444 54 444 56.5 456.5 c 128,-1,47
 59 469 59 469 69 487 c 0,48,49
 100 539 100 539 166.5 584.5 c 128,-1,50
 233 630 233 630 304 648 c 0,51,52
 342 658 342 658 351 663 c 0,25,26
319 465 m 0,53,54
 298 478 298 478 294 478 c 0,55,56
 288 478 288 478 288 460 c 0,57,58
 288 457 288 457 288.5 448.5 c 128,-1,59
 289 440 289 440 289 433 c 0,60,61
 290 402 290 402 292.5 396.5 c 128,-1,62
 295 391 295 391 306 389 c 0,63,64
 311 388 311 388 318 388 c 0,65,66
 335 388 335 388 342 411 c 0,67,68
 346 427 346 427 346 431 c 0,69,70
 346 448 346 448 319 465 c 0,53,54
261 535 m 0,71,72
 271 540 271 540 285 540 c 0,73,74
 308 540 308 540 338 523 c 0,75,76
 379 500 379 500 394 479 c 128,-1,77
 409 458 409 458 409 422 c 0,78,79
 409 397 409 397 390 373 c 0,80,81
 374 352 374 352 374 345 c 0,82,83
 374 341 374 341 403 318 c 0,84,85
 438 291 438 291 438 273 c 0,86,87
 438 268 438 268 435 260 c 0,88,89
 428 245 428 245 418 245 c 0,90,91
 400 245 400 245 349 284 c 0,92,93
 297 323 297 323 294 323 c 0,94,95
 290 323 290 323 290 286 c 0,96,97
 290 248 290 248 281 239 c 0,98,99
 274 230 274 230 260 230 c 0,100,101
 250 230 250 230 240 237 c 0,102,103
 233 242 233 242 231.5 262.5 c 128,-1,104
 230 283 230 283 230 371 c 0,105,106
 230 457 230 457 231.5 479.5 c 128,-1,107
 233 502 233 502 240 513 c 0,108,109
 252 530 252 530 261 535 c 0,71,72
EndSplineSet
Validated: 2049
EndChar

StartChar: plusminus
Encoding: 177 177 106
Width: 495
GlyphClass: 1
Flags: W
LayerCount: 2
Fore
SplineSet
207 545 m 128,-1,1
 213 551 213 551 230 551 c 0,2,3
 250 551 250 551 256.5 535 c 128,-1,4
 263 519 263 519 263 469 c 2,5,-1
 263 413 l 1,6,-1
 321 409 l 2,7,8
 368 406 368 406 383 400 c 128,-1,9
 398 394 398 394 398 378 c 0,10,11
 398 367 398 367 387 356 c 0,12,13
 379 348 379 348 354 348 c 0,14,15
 335 348 335 348 322 349 c 2,16,-1
 267 350 l 1,17,-1
 270 285 l 2,18,19
 272 241 272 241 272 239 c 0,20,21
 272 219 272 219 262 212 c 128,-1,22
 252 205 252 205 245 205 c 0,23,24
 236 205 236 205 224 217 c 0,25,26
 216 225 216 225 213.5 234 c 128,-1,27
 211 243 211 243 211 270 c 0,28,29
 211 312 211 312 206 330 c 2,30,-1
 201 349 l 1,31,-1
 148 349 l 2,32,33
 104 349 104 349 90.5 355 c 128,-1,34
 77 361 77 361 77 381 c 0,35,36
 77 394 77 394 88.5 405 c 128,-1,37
 100 416 100 416 113 416 c 0,38,39
 114 416 114 416 115.5 415.5 c 128,-1,40
 117 415 117 415 118 415 c 0,41,42
 130 412 130 412 166 408 c 2,43,-1
 201 405 l 1,44,-1
 201 472 l 2,45,0
 201 539 201 539 207 545 c 128,-1,1
160 188 m 0,46,47
 238 192 238 192 304 192 c 2,48,-1
 332 192 l 2,49,50
 397 191 397 191 409.5 189.5 c 128,-1,51
 422 188 422 188 429 178 c 0,52,53
 439 165 439 165 439 158 c 128,-1,54
 439 151 439 151 428 140 c 0,55,56
 419 132 419 132 394 129.5 c 128,-1,57
 369 127 369 127 246 125 c 0,58,59
 140 123 140 123 123 123 c 0,60,61
 72 123 72 123 66 126 c 0,62,63
 56 132 56 132 56 149 c 0,64,65
 56 171 56 171 72 177 c 128,-1,66
 88 183 88 183 160 188 c 0,46,47
EndSplineSet
Validated: 1
EndChar

StartChar: uni00b2
Encoding: 178 178 107
Width: 376
GlyphClass: 1
Flags: W
LayerCount: 2
Fore
SplineSet
122 613 m 0,0,1
 152 629 152 629 167 629 c 0,2,3
 195 629 195 629 215.5 592 c 128,-1,4
 236 555 236 555 236 510 c 0,5,6
 236 476 236 476 224 453 c 0,7,8
 209 425 209 425 202 417 c 128,-1,9
 195 409 195 409 195 404 c 0,10,11
 195 402 195 402 199 402 c 0,12,13
 201 402 201 402 204.5 403 c 128,-1,14
 208 404 208 404 214 405.5 c 128,-1,15
 220 407 220 407 225 408 c 0,16,17
 262 419 262 419 288 419 c 0,18,19
 322 419 322 419 322 391 c 0,20,21
 322 375 322 375 310 365.5 c 128,-1,22
 298 356 298 356 269 351 c 0,23,24
 236 346 236 346 195 333 c 0,25,26
 144 319 144 319 111 319 c 0,27,28
 53 319 53 319 53 353 c 0,29,30
 53 375 53 375 86 391 c 0,31,32
 104 400 104 400 132 433.5 c 128,-1,33
 160 467 160 467 168 488 c 0,34,35
 175 509 175 509 175 514 c 0,36,37
 175 520 175 520 169 537 c 0,38,39
 159 562 159 562 157 562 c 128,-1,40
 155 562 155 562 123 541 c 0,41,42
 93 521 93 521 82 521 c 0,43,44
 74 521 74 521 64 528 c 0,45,46
 52 537 52 537 52 548 c 0,47,48
 52 578 52 578 122 613 c 0,0,1
EndSplineSet
Validated: 1
EndChar

StartChar: uni00b3
Encoding: 179 179 108
Width: 330
GlyphClass: 1
Flags: W
LayerCount: 2
Fore
SplineSet
101 629 m 0,0,1
 121 633 121 633 177 633 c 0,2,3
 222 633 222 633 234 630 c 0,4,5
 247 626 247 626 261 612 c 0,6,7
 277 596 277 596 277 577 c 0,8,9
 277 559 277 559 261 527 c 2,10,-1
 245 497 l 1,11,-1
 260 484 l 2,12,13
 270 476 270 476 272 469 c 128,-1,14
 274 462 274 462 274 443 c 0,15,16
 272 365 272 365 184 313 c 0,17,18
 137 285 137 285 105 285 c 0,19,20
 95 285 95 285 86 288 c 0,21,22
 66 294 66 294 60 300.5 c 128,-1,23
 54 307 54 307 54 321 c 0,24,25
 54 338 54 338 64 345 c 128,-1,26
 74 352 74 352 98 352 c 0,27,28
 128 353 128 353 155 370 c 0,29,30
 177 384 177 384 193 402.5 c 128,-1,31
 209 421 209 421 209 433 c 0,32,33
 209 439 209 439 196 443.5 c 128,-1,34
 183 448 183 448 165 448 c 0,35,36
 151 448 151 448 141.5 459.5 c 128,-1,37
 132 471 132 471 132 485 c 0,38,39
 132 498 132 498 141 506 c 0,40,41
 151 514 151 514 163 516 c 0,42,43
 173 518 173 518 189.5 536.5 c 128,-1,44
 206 555 206 555 206 565 c 0,45,46
 206 567 206 567 205 568 c 0,47,48
 203 570 203 570 187 570 c 0,49,50
 168 570 168 570 136 567 c 0,51,52
 100 563 100 563 84 563 c 0,53,54
 70 563 70 563 63 572 c 0,55,56
 54 582 54 582 54 590 c 256,57,58
 54 598 54 598 66 611 c 0,59,60
 80 626 80 626 101 629 c 0,0,1
EndSplineSet
Validated: 1
EndChar

StartChar: uni00b9
Encoding: 185 185 109
Width: 273
GlyphClass: 1
Flags: W
LayerCount: 2
Fore
SplineSet
134 623 m 0,0,1
 181 654 181 654 197 654 c 0,2,3
 207 654 207 654 215 646 c 0,4,5
 221 640 221 640 221 629 c 0,6,7
 221 616 221 616 219 606 c 0,8,9
 216 584 216 584 216 506 c 2,10,-1
 216 476 l 1,11,-1
 216 444 l 2,12,13
 216 318 216 318 190 296 c 0,14,15
 182 289 182 289 170 289 c 128,-1,16
 158 289 158 289 149 297 c 128,-1,17
 140 305 140 305 140 317 c 0,18,19
 140 318 140 318 140.5 320 c 128,-1,20
 141 322 141 322 141 323 c 0,21,22
 152 372 152 372 152 446 c 0,23,24
 152 472 152 472 151 485 c 0,25,26
 147 551 147 551 145 551 c 0,27,28
 140 551 140 551 122 535 c 0,29,30
 102 519 102 519 88 519 c 0,31,32
 78 519 78 519 67 529 c 128,-1,33
 56 539 56 539 56 549 c 0,34,35
 56 570 56 570 134 623 c 0,0,1
EndSplineSet
Validated: 1
EndChar

StartChar: onequarter
Encoding: 188 188 110
Width: 628
GlyphClass: 1
Flags: W
LayerCount: 2
Fore
SplineSet
414 650 m 0,0,1
 422 654 422 654 432 654 c 0,2,3
 445 654 445 654 454 646 c 128,-1,4
 463 638 463 638 463 625 c 0,5,6
 463 617 463 617 436 556.5 c 128,-1,7
 409 496 409 496 408 492 c 0,8,9
 403 475 403 475 362.5 395.5 c 128,-1,10
 322 316 322 316 296 273 c 0,11,12
 190 102 190 102 186 99 c 0,13,14
 181 95 181 95 172 95 c 0,15,16
 160 95 160 95 150 104.5 c 128,-1,17
 140 114 140 114 140 126 c 0,18,19
 140 142 140 142 170 188 c 0,20,21
 255 323 255 323 293 394.5 c 128,-1,22
 331 466 331 466 370 564 c 0,23,24
 402 645 402 645 414 650 c 0,0,1
155 633 m 0,25,26
 176 640 176 640 186 640 c 0,27,28
 212 640 212 640 221 603.5 c 128,-1,29
 230 567 230 567 233 464 c 0,30,31
 235 396 235 396 235 390 c 0,32,33
 235 354 235 354 227 344 c 0,34,35
 217 334 217 334 203 334 c 0,36,37
 190 334 190 334 182 342 c 0,38,39
 173 350 173 350 173 404 c 0,40,41
 173 466 173 466 170 511 c 0,42,43
 166 564 166 564 160 564 c 2,44,-1
 158 564 l 2,45,46
 157 563 157 563 156 563 c 0,47,48
 145 560 145 560 126 540 c 0,49,50
 100 514 100 514 86 514 c 0,51,52
 82 514 82 514 76 516 c 0,53,54
 56 522 56 522 56 543 c 0,55,56
 56 548 56 548 59 556 c 0,57,58
 66 575 66 575 96 598.5 c 128,-1,59
 126 622 126 622 155 633 c 0,25,26
449 265 m 0,60,61
 450 266 450 266 450 273 c 0,62,63
 450 313 450 313 443 313 c 0,64,65
 440 313 440 313 423 290.5 c 128,-1,66
 406 268 406 268 406 264 c 0,67,68
 406 261 406 261 423 261 c 0,69,70
 445 261 445 261 449 265 c 0,60,61
446 426 m 0,71,72
 454 432 454 432 463 432 c 0,73,74
 475 432 475 432 487 422 c 0,75,76
 500 410 500 410 507 331 c 0,77,78
 510 291 510 291 513 282 c 128,-1,79
 516 273 516 273 527 273 c 2,80,-1
 535 273 l 1,81,-1
 539 273 l 2,82,83
 572 273 572 273 572 245 c 0,84,85
 572 215 572 215 540 215 c 0,86,87
 525 215 525 215 521 206 c 0,88,89
 520 205 520 205 520 200 c 0,90,91
 520 181 520 181 533 125 c 0,92,93
 537 110 537 110 525 97 c 0,94,95
 514 85 514 85 505 85 c 128,-1,96
 496 85 496 85 486 94 c 0,97,98
 478 101 478 101 468 132.5 c 128,-1,99
 458 164 458 164 458 184 c 2,100,-1
 458 201 l 1,101,-1
 404 197 l 2,102,103
 390 196 390 196 372 196 c 0,104,105
 350 196 350 196 337 205 c 0,106,107
 324 216 324 216 324 231 c 0,108,109
 324 261 324 261 373 326 c 0,110,111
 411 377 411 377 421 393 c 0,112,113
 437 417 437 417 446 426 c 0,71,72
EndSplineSet
Validated: 2049
EndChar

StartChar: onehalf
Encoding: 189 189 111
Width: 661
GlyphClass: 1
Flags: W
LayerCount: 2
Fore
SplineSet
129 614 m 0,0,1
 160 634 160 634 180 634 c 0,2,3
 199 634 199 634 213 617 c 0,4,5
 223 601 223 601 223 550 c 0,6,7
 223 509 223 509 222 477 c 0,8,9
 220 373 220 373 215.5 350.5 c 128,-1,10
 211 328 211 328 190 328 c 0,11,12
 170 328 170 328 164.5 338.5 c 128,-1,13
 159 349 159 349 159 393 c 0,14,15
 159 427 159 427 160 451 c 2,16,-1
 160 495 l 2,17,18
 160 556 160 556 158 556 c 0,19,20
 154 556 154 556 124 533 c 0,21,22
 95 511 95 511 84 511 c 0,23,24
 75 511 75 511 66 520 c 0,25,26
 56 530 56 530 56 540 c 0,27,28
 56 566 56 566 129 614 c 0,0,1
416 581 m 0,29,30
 426 593 426 593 438 593 c 0,31,32
 448 593 448 593 459 582 c 128,-1,33
 470 571 470 571 470 561 c 0,34,35
 470 547 470 547 404 453 c 0,36,37
 185 141 185 141 185 118 c 0,38,39
 185 113 185 113 174 107.5 c 128,-1,40
 163 102 163 102 153 101 c 0,41,42
 142 101 142 101 132.5 110.5 c 128,-1,43
 123 120 123 120 123 131 c 0,44,45
 123 139 123 139 160.5 202.5 c 128,-1,46
 198 266 198 266 231 313 c 0,47,48
 308 423 308 423 339 470 c 0,49,50
 402 565 402 565 416 581 c 0,29,30
397 382 m 0,51,52
 409 406 409 406 454 406 c 0,53,54
 510 406 510 406 537 381 c 0,55,56
 560 359 560 359 560 325 c 0,57,58
 560 266 560 266 497 198 c 2,59,-1
 483 183 l 1,60,-1
 534 183 l 2,61,62
 567 183 567 183 577 181.5 c 128,-1,63
 587 180 587 180 594 173 c 0,64,65
 605 162 605 162 605 151 c 0,66,67
 605 134 605 134 590 128 c 128,-1,68
 575 122 575 122 522 119 c 0,69,70
 424 114 424 114 418 113 c 0,71,72
 407 112 407 112 393 112 c 0,73,74
 377 112 377 112 365 123 c 0,75,76
 351 135 351 135 351 144 c 0,77,78
 351 156 351 156 395 191 c 0,79,80
 454 237 454 237 482 282 c 0,81,82
 501 316 501 316 501 324 c 128,-1,83
 501 332 501 332 484.5 337 c 128,-1,84
 468 342 468 342 444 342 c 2,85,-1
 434 342 l 1,86,-1
 423 342 l 2,87,88
 405 342 405 342 398 355 c 0,89,90
 390 369 390 369 397 382 c 0,51,52
EndSplineSet
Validated: 1
EndChar

StartChar: threequarters
Encoding: 190 190 112
Width: 670
GlyphClass: 1
Flags: W
LayerCount: 2
Fore
SplineSet
54 609 m 0,0,1
 54 628 54 628 80 638 c 128,-1,2
 106 648 106 648 141 648 c 0,3,4
 184 648 184 648 205 636 c 0,5,6
 227 623 227 623 235 608 c 128,-1,7
 243 593 243 593 243 565 c 2,8,-1
 243 559 l 2,9,10
 241 521 241 521 234 509 c 0,11,12
 230 504 230 504 230 499 c 128,-1,13
 230 494 230 494 243 477 c 0,14,15
 258 457 258 457 258 436 c 2,16,-1
 258 427 l 2,17,18
 256 360 256 360 186 324 c 0,19,20
 167 314 167 314 139 314 c 0,21,22
 121 314 121 314 96 317 c 0,23,24
 55 322 55 322 55 347 c 0,25,26
 55 353 55 353 56 356 c 0,27,28
 62 379 62 379 112 379 c 2,29,-1
 124 379 l 2,30,31
 128 379 128 379 134 378.5 c 128,-1,32
 140 378 140 378 142 378 c 0,33,34
 162 378 162 378 173 388 c 0,35,36
 197 409 197 409 197 429 c 0,37,38
 197 433 197 433 196 434 c 0,39,40
 193 442 193 442 180 442 c 0,41,42
 168 442 168 442 155 434 c 0,43,44
 146 428 146 428 129 428 c 2,45,-1
 123 428 l 2,46,47
 103 429 103 429 96 444 c 0,48,49
 92 452 92 452 92 462 c 0,50,51
 92 485 92 485 123 495 c 0,52,53
 150 504 150 504 166 522 c 128,-1,54
 182 540 182 540 182 561 c 2,55,-1
 182 568 l 2,56,57
 180 577 180 577 172.5 578.5 c 128,-1,58
 165 580 165 580 126 580 c 0,59,60
 81 580 81 580 67.5 585.5 c 128,-1,61
 54 591 54 591 54 609 c 0,0,1
455 638 m 0,62,63
 466 649 466 649 480 649 c 0,64,65
 491 649 491 649 501 641 c 0,66,67
 510 633 510 633 510 617 c 0,68,69
 510 604 510 604 503 598 c 0,70,71
 497 593 497 593 475 557 c 128,-1,72
 453 521 453 521 426.5 475.5 c 128,-1,73
 400 430 400 430 389 413 c 0,74,75
 375 392 375 392 375 389 c 0,76,77
 375 387 375 387 335.5 318 c 128,-1,78
 296 249 296 249 283 228 c 0,79,80
 216 125 216 125 199 116 c 0,81,82
 189 110 189 110 174 118 c 0,83,84
 156 128 156 128 156 144 c 0,85,86
 156 154 156 154 164 165 c 0,87,88
 218 238 218 238 309 397 c 0,89,90
 435 616 435 616 455 638 c 0,62,63
479 283 m 2,91,92
 479 334 479 334 478 334 c 128,-1,93
 477 334 477 334 448.5 292.5 c 128,-1,94
 420 251 420 251 419 248 c 0,95,96
 416 245 416 245 416 242 c 0,97,98
 416 237 416 237 449 234 c 2,99,-1
 479 232 l 1,100,-1
 479 283 l 2,91,92
461 423 m 0,101,102
 477 449 477 449 497 449 c 0,103,104
 515 449 515 449 529 422 c 0,105,106
 537 407 537 407 539 392 c 128,-1,107
 541 377 541 377 541 329 c 0,108,109
 541 259 541 259 545 247 c 128,-1,110
 549 235 549 235 571 235 c 0,111,112
 614 235 614 235 614 207 c 0,113,114
 613 178 613 178 572 174 c 2,115,-1
 546 172 l 1,116,-1
 546 135 l 2,117,118
 546 104 546 104 539 92 c 128,-1,119
 532 80 532 80 515 80 c 0,120,121
 499 80 499 80 492.5 91.5 c 128,-1,122
 486 103 486 103 484 134 c 2,123,-1
 481 170 l 1,124,-1
 409 172 l 2,125,126
 359 173 359 173 346.5 175 c 128,-1,127
 334 177 334 177 328 184 c 0,128,129
 320 195 320 195 320 202 c 0,130,131
 320 214 320 214 343 246 c 0,132,133
 405 333 405 333 461 423 c 0,101,102
EndSplineSet
Validated: 2049
EndChar

StartChar: multiply
Encoding: 215 215 113
Width: 429
GlyphClass: 1
Flags: W
LayerCount: 2
Fore
SplineSet
327 535 m 128,-1,1
 337 541 337 541 345 541 c 128,-1,2
 353 541 353 541 364 530.5 c 128,-1,3
 375 520 375 520 375 512 c 0,4,5
 375 505 375 505 368.5 490.5 c 128,-1,6
 362 476 362 476 355 468 c 0,7,8
 352 464 352 464 312 412 c 2,9,-1
 275 364 l 1,10,-1
 291 350 l 2,11,12
 316 329 316 329 345.5 289.5 c 128,-1,13
 375 250 375 250 375 239 c 0,14,15
 375 226 375 226 366 217.5 c 128,-1,16
 357 209 357 209 343 209 c 0,17,18
 328 209 328 209 304 239 c 0,19,20
 242 313 242 313 232 313 c 0,21,22
 225 313 225 313 172 256 c 0,23,24
 120 200 120 200 107 196 c 0,25,26
 105 195 105 195 100 195 c 0,27,28
 76 195 76 195 71 218 c 0,29,30
 71 219 71 219 70.5 221 c 128,-1,31
 70 223 70 223 70 224 c 0,32,33
 70 235 70 235 83.5 252 c 128,-1,34
 97 269 97 269 138 312 c 0,35,36
 183 359 183 359 183 364 c 0,37,38
 183 371 183 371 143.5 405.5 c 128,-1,39
 104 440 104 440 84 451 c 0,40,41
 55 467 55 467 54 480 c 2,42,-1
 54 485 l 2,43,44
 54 498 54 498 63 506.5 c 128,-1,45
 72 515 72 515 86 515 c 0,46,47
 118 515 118 515 195 446 c 2,48,-1
 231 415 l 1,49,-1
 250 436 l 2,50,51
 271 462 271 462 294 494 c 0,52,0
 317 529 317 529 327 535 c 128,-1,1
EndSplineSet
Validated: 1
EndChar

StartChar: divide
Encoding: 247 247 114
Width: 482
GlyphClass: 1
Flags: W
LayerCount: 2
Fore
SplineSet
203 521 m 0,0,1
 216 536 216 536 231 536 c 0,2,3
 244 536 244 536 258 519 c 0,4,5
 271 503 271 503 271 489 c 0,6,7
 271 477 271 477 264 462 c 0,8,9
 252 433 252 433 230 433 c 0,10,11
 216 433 216 433 202 448 c 0,12,13
 188 465 188 465 188 484 c 0,14,15
 188 506 188 506 203 521 c 0,0,1
167 402 m 0,16,17
 210 404 210 404 237 406 c 128,-1,18
 264 408 264 408 283 409 c 128,-1,19
 302 410 302 410 342 410 c 2,20,-1
 357 410 l 2,21,22
 398 410 398 410 411 404 c 128,-1,23
 424 398 424 398 426 380 c 2,24,-1
 426 373 l 2,25,26
 426 355 426 355 410 350 c 128,-1,27
 394 345 394 345 342 344 c 0,28,29
 185 339 185 339 178 339 c 0,30,31
 118 337 118 337 108 337 c 0,32,33
 73 337 73 337 63.5 342.5 c 128,-1,34
 54 348 54 348 54 364 c 0,35,36
 54 386 54 386 72.5 392.5 c 128,-1,37
 91 399 91 399 167 402 c 0,16,17
219 288 m 0,38,39
 230 297 230 297 246 297 c 0,40,41
 259 297 259 297 269 290 c 0,42,43
 280 283 280 283 280 264 c 0,44,45
 280 240 280 240 265 227 c 0,46,47
 250 215 250 215 237 215 c 0,48,49
 225 215 225 215 217 222 c 0,50,51
 206 230 206 230 206 253 c 0,52,53
 206 278 206 278 219 288 c 0,38,39
EndSplineSet
Validated: 1
EndChar

StartChar: uni09f3
Encoding: 2547 2547 115
Width: 553
GlyphClass: 1
Flags: W
LayerCount: 2
Fore
SplineSet
136 635 m 0,0,1
 163 644 163 644 187 644 c 0,2,3
 234 644 234 644 245 613 c 0,4,5
 250 598 250 598 250 532 c 2,6,-1
 250 467 l 1,7,-1
 360 469 l 2,8,9
 388 470 388 470 424 470 c 0,10,11
 470 470 470 470 476 461 c 0,12,13
 483 451 483 451 483 440 c 0,14,15
 483 428 483 428 475 421 c 0,16,17
 467 413 467 413 361 409 c 0,18,19
 256 405 256 405 250 401 c 0,20,21
 242 396 242 396 242 352 c 0,22,23
 242 292 242 292 254 254 c 0,24,25
 263 230 263 230 272 222.5 c 128,-1,26
 281 215 281 215 308 215 c 0,27,28
 325 215 325 215 336 216 c 0,29,30
 382 217 382 217 402 230 c 0,31,32
 416 238 416 238 417.5 241 c 128,-1,33
 419 244 419 244 412 249 c 0,34,35
 403 255 403 255 395 271 c 0,36,37
 392 278 392 278 392 283 c 0,38,39
 392 291 392 291 400 302 c 0,40,41
 426 339 426 339 455 339 c 0,42,43
 470 339 470 339 483 326 c 0,44,45
 495 313 495 313 497 272 c 0,46,47
 499 244 499 244 499 242 c 0,48,49
 499 227 499 227 486 214 c 0,50,51
 453 179 453 179 403 160 c 0,52,53
 378 150 378 150 323 150 c 0,54,55
 270 150 270 150 245 163 c 0,56,57
 221 177 221 177 211 192 c 0,58,59
 197 212 197 212 187.5 258.5 c 128,-1,60
 178 305 178 305 178 349 c 2,61,-1
 178 402 l 1,62,-1
 153 398 l 2,63,64
 146 397 146 397 137 397 c 0,65,66
 126 397 126 397 117 409 c 0,67,68
 106 423 106 423 106 430 c 0,69,70
 106 436 106 436 115 448 c 0,71,72
 126 460 126 460 155 463 c 2,73,-1
 186 466 l 1,74,-1
 187 524 l 1,75,-1
 187 548 l 2,76,77
 187 582 187 582 183 582 c 0,78,79
 176 582 176 582 130 566 c 0,80,81
 96 554 96 554 80 554 c 0,82,83
 60 554 60 554 55 575 c 0,84,85
 53 583 53 583 53 586 c 0,86,87
 53 601 53 601 64.5 609.5 c 128,-1,88
 76 618 76 618 104 625.5 c 128,-1,89
 132 633 132 633 136 635 c 0,0,1
EndSplineSet
Validated: 1
EndChar

StartChar: endash
Encoding: 8211 8211 116
Width: 396
GlyphClass: 1
Flags: W
LayerCount: 2
Fore
SplineSet
128 345 m 0,0,1
 142 346 142 346 164 346.5 c 128,-1,2
 186 347 186 347 213.5 347.5 c 128,-1,3
 241 348 241 348 254 348 c 2,4,-1
 279 348 l 2,5,6
 324 348 324 348 333 340 c 128,-1,7
 342 332 342 332 342 318 c 0,8,9
 342 303 342 303 332 294 c 0,10,11
 325 288 325 288 306 286 c 128,-1,12
 287 284 287 284 201 282 c 0,13,14
 123 280 123 280 102 280 c 0,15,16
 94 280 94 280 87.5 280 c 128,-1,17
 81 280 81 280 76 280 c 2,18,-1
 72 281 l 2,19,20
 64 283 64 283 57 298 c 0,21,22
 54 307 54 307 54 311 c 0,23,24
 54 317 54 317 61 327 c 0,25,26
 69 337 69 337 79 340 c 128,-1,27
 89 343 89 343 128 345 c 0,0,1
EndSplineSet
Validated: 1
EndChar

StartChar: emdash
Encoding: 8212 8212 117
Width: 802
GlyphClass: 1
Flags: W
LayerCount: 2
Fore
SplineSet
267 330 m 0,0,1
 305 330 305 330 378 331 c 128,-1,2
 451 332 451 332 506.5 332.5 c 128,-1,3
 562 333 562 333 595 333 c 2,4,-1
 646 333 l 2,5,6
 717 333 717 333 732.5 328 c 128,-1,7
 748 323 748 323 748 302 c 0,8,9
 748 286 748 286 736 281 c 0,10,11
 714 273 714 273 507 268 c 1,12,-1
 506 268 l 1,13,-1
 505 268 l 1,14,-1
 504 268 l 1,15,-1
 503 268 l 1,16,-1
 502 268 l 1,17,-1
 501 268 l 1,18,-1
 500 268 l 1,19,-1
 499 268 l 1,20,-1
 498 268 l 1,21,-1
 497 268 l 1,22,-1
 496 268 l 1,23,-1
 495 267 l 1,24,-1
 494 267 l 1,25,-1
 493 267 l 1,26,-1
 492 267 l 1,27,-1
 491 267 l 1,28,-1
 490 267 l 1,29,-1
 489 267 l 1,30,-1
 488 267 l 1,31,-1
 487 267 l 1,32,-1
 486 267 l 1,33,-1
 485 267 l 1,34,-1
 484 267 l 1,35,-1
 483 267 l 1,36,-1
 482 267 l 1,37,-1
 481 267 l 1,38,-1
 480 267 l 1,39,-1
 479 267 l 1,40,-1
 477 267 l 1,41,-1
 476 267 l 1,42,43
 284 263 284 263 242 263 c 0,44,45
 79 263 79 263 63 276 c 0,46,47
 54 284 54 284 54 298 c 0,48,49
 54 311 54 311 63 320 c 0,50,51
 69 326 69 326 99.5 327 c 128,-1,52
 130 328 130 328 267 330 c 0,0,1
EndSplineSet
Validated: 1
EndChar

StartChar: quoteright
Encoding: 8217 8217 118
Width: 197
GlyphClass: 1
Flags: W
LayerCount: 2
Fore
SplineSet
74 577 m 0,0,1
 77 599 77 599 87 616 c 128,-1,2
 97 633 97 633 111 633 c 0,3,4
 122 633 122 633 134 621 c 0,5,6
 145 610 145 610 145 599 c 0,7,8
 145 591 145 591 144 586 c 0,9,10
 141 569 141 569 134 543.5 c 128,-1,11
 127 518 127 518 123 489 c 0,12,13
 121 479 121 479 118 463 c 128,-1,14
 115 447 115 447 113.5 437.5 c 128,-1,15
 112 428 112 428 111 424 c 0,16,17
 104 401 104 401 82 401 c 0,18,19
 76 401 76 401 66 405 c 0,20,21
 57 409 57 409 55 414.5 c 128,-1,22
 53 420 53 420 53 441 c 0,23,24
 54 463 54 463 74 577 c 0,0,1
EndSplineSet
Validated: 1
EndChar

StartChar: quotedblleft
Encoding: 8220 8220 119
Width: 327
GlyphClass: 1
Flags: W
LayerCount: 2
Fore
SplineSet
75 583 m 0,0,1
 78 607 78 607 88 626 c 128,-1,2
 98 645 98 645 114 645 c 0,3,4
 127 645 127 645 136.5 637.5 c 128,-1,5
 146 630 146 630 146 620 c 0,6,7
 146 597 146 597 123 482 c 0,8,9
 112 426 112 426 86 426 c 0,10,11
 77 426 77 426 64 437 c 0,12,13
 53 448 53 448 53 463 c 0,14,15
 53 472 53 472 58 492 c 0,16,17
 70 540 70 540 75 583 c 0,0,1
216 626 m 0,18,19
 225 640 225 640 242 640 c 128,-1,20
 259 640 259 640 268 626 c 0,21,22
 273 616 273 616 273 609 c 0,23,24
 273 597 273 597 262 549 c 0,25,26
 257 526 257 526 252 487 c 0,27,28
 248 451 248 451 241 439 c 0,29,30
 236 428 236 428 231 425 c 128,-1,31
 226 422 226 422 216 422 c 0,32,33
 198 422 198 422 190.5 430.5 c 128,-1,34
 183 439 183 439 183 460 c 0,35,36
 183 471 183 471 184 477 c 0,37,38
 188 516 188 516 198 554 c 0,39,40
 208 600 208 600 208 605 c 0,41,42
 208 615 208 615 216 626 c 0,18,19
EndSplineSet
Validated: 1
EndChar

StartChar: quotedblright
Encoding: 8221 8221 120
Width: 316
GlyphClass: 1
Flags: W
LayerCount: 2
Fore
SplineSet
219 625 m 0,0,1
 227 628 227 628 233 628 c 0,2,3
 244 628 244 628 254 621 c 128,-1,4
 264 614 264 614 264 601 c 0,5,6
 264 599 264 599 262 575 c 0,7,8
 258 536 258 536 248 486.5 c 128,-1,9
 238 437 238 437 233 430 c 0,10,11
 227 422 227 422 215 422 c 0,12,13
 199 422 199 422 187 434 c 0,14,15
 178 443 178 443 178 455 c 0,16,17
 178 460 178 460 179 464 c 0,18,19
 180 471 180 471 191 541 c 0,20,21
 203 618 203 618 219 625 c 0,0,1
95 619 m 0,22,23
 106 623 106 623 111 623 c 0,24,25
 118 623 118 623 125 618 c 0,26,27
 142 609 142 609 142 586 c 0,28,29
 142 581 142 581 140 569 c 0,30,31
 113 442 113 442 101 434 c 0,32,33
 92 428 92 428 84 428 c 0,34,35
 72 428 72 428 62 438 c 0,36,37
 53 447 53 447 53 459 c 0,38,39
 53 462 53 462 55 478 c 0,40,41
 59 508 59 508 80 599 c 0,42,43
 84 614 84 614 95 619 c 0,22,23
EndSplineSet
Validated: 1
EndChar

StartChar: ellipsis
Encoding: 8230 8230 121
Width: 544
GlyphClass: 1
Flags: W
LayerCount: 2
Fore
SplineSet
88 204 m 0,0,1
 98 206 98 206 103 206 c 0,2,3
 140 206 140 206 140 162 c 0,4,5
 140 143 140 143 128.5 129 c 128,-1,6
 117 115 117 115 98 112 c 0,7,8
 94 111 94 111 88 111 c 0,9,10
 77 111 77 111 65 124 c 0,11,12
 52 137 52 137 52 152 c 0,13,14
 52 166 52 166 64 183.5 c 128,-1,15
 76 201 76 201 88 204 c 0,0,1
251 203 m 0,16,17
 262 209 262 209 279 209 c 0,18,19
 293 209 293 209 298 205 c 0,20,21
 304 200 304 200 312.5 186 c 128,-1,22
 321 172 321 172 321 166 c 0,23,24
 321 157 321 157 312 141 c 128,-1,25
 303 125 303 125 296 121 c 0,26,27
 286 116 286 116 275 116 c 0,28,29
 258 116 258 116 245 127 c 0,30,31
 233 138 233 138 233 162 c 0,32,33
 233 182 233 182 236 189 c 128,-1,34
 239 196 239 196 251 203 c 0,16,17
420 206 m 0,35,36
 426 208 426 208 437 208 c 0,37,38
 465 208 465 208 482 182 c 0,39,40
 492 165 492 165 492 161 c 0,41,42
 492 153 492 153 474 134 c 0,43,44
 457 117 457 117 447 117 c 0,45,46
 439 117 439 117 434 118 c 0,47,48
 415 121 415 121 402 133 c 128,-1,49
 389 145 389 145 389 159 c 0,50,51
 389 169 389 169 400.5 186.5 c 128,-1,52
 412 204 412 204 420 206 c 0,35,36
EndSplineSet
Validated: 1
EndChar

StartChar: uni2070
Encoding: 8304 8304 122
Width: 310
GlyphClass: 1
Flags: W
LayerCount: 2
Fore
SplineSet
176 550 m 0,0,1
 166 561 166 561 159 561 c 0,2,3
 149 561 149 561 137 533 c 0,4,5
 120 491 120 491 120 439 c 128,-1,6
 120 387 120 387 136 355 c 0,7,8
 149 331 149 331 156 331 c 0,9,10
 161 331 161 331 170 341 c 0,11,12
 191 368 191 368 196 444 c 0,13,14
 196 448 196 448 196.5 454 c 128,-1,15
 197 460 197 460 197 464 c 0,16,17
 197 527 197 527 176 550 c 0,0,1
118 623 m 0,18,19
 130 627 130 627 146 627 c 0,20,21
 176 627 176 627 203 609 c 128,-1,22
 230 591 230 591 246 558 c 0,23,24
 257 536 257 536 257 488 c 2,25,-1
 257 455 l 2,26,27
 257 401 257 401 255 384.5 c 128,-1,28
 253 368 253 368 243 344 c 0,29,30
 210 262 210 262 156 262 c 0,31,32
 148 262 148 262 144 263 c 0,33,34
 129 266 129 266 110.5 284 c 128,-1,35
 92 302 92 302 80 325 c 0,36,37
 53 381 53 381 53 450 c 0,38,39
 53 480 53 480 59 502 c 0,40,41
 62 513 62 513 69 555 c 0,42,43
 77 611 77 611 118 623 c 0,18,19
EndSplineSet
Validated: 1
EndChar

StartChar: uni2074
Encoding: 8308 8308 123
Width: 369
GlyphClass: 1
Flags: W
LayerCount: 2
Fore
SplineSet
182 423 m 1,0,-1
 182 426 l 2,1,2
 182 428 182 428 182.5 432 c 128,-1,3
 183 436 183 436 183.5 441 c 128,-1,4
 184 446 184 446 184 452 c 128,-1,5
 184 458 184 458 184 463 c 0,6,7
 184 501 184 501 178 501 c 1,8,-1
 176 499 l 2,9,10
 172 494 172 494 154.5 458.5 c 128,-1,11
 137 423 137 423 137 419 c 0,12,13
 137 416 137 416 149 416 c 0,14,15
 178 416 178 416 182 423 c 1,0,-1
174 610 m 0,16,17
 184 619 184 619 198 619 c 0,18,19
 222 619 222 619 235 594 c 0,20,21
 244 577 244 577 248 461 c 2,22,-1
 249 424 l 1,23,-1
 271 426 l 1,24,-1
 277 426 l 2,25,26
 313 426 313 426 313 396 c 0,27,28
 313 369 313 369 271 361 c 2,29,-1
 249 356 l 1,30,-1
 249 313 l 2,31,32
 249 285 249 285 247 276.5 c 128,-1,33
 245 268 245 268 236 261 c 0,34,35
 224 252 224 252 218 252 c 0,36,37
 211 252 211 252 199 261 c 0,38,39
 186 270 186 270 184 311 c 2,40,-1
 181 352 l 1,41,-1
 130 352 l 2,42,43
 92 352 92 352 84 354 c 128,-1,44
 76 356 76 356 67 366 c 0,45,46
 54 381 54 381 54 392 c 0,47,48
 54 411 54 411 102 497 c 0,49,50
 157 595 157 595 174 610 c 0,16,17
EndSplineSet
Validated: 1
EndChar

StartChar: uni2075
Encoding: 8309 8309 124
Width: 353
GlyphClass: 1
Flags: W
LayerCount: 2
Fore
SplineSet
145 619 m 0,0,1
 243 623 243 623 246 623 c 0,2,3
 280 623 280 623 290 615 c 0,4,5
 299 606 299 606 299 595 c 0,6,7
 299 570 299 570 272 564 c 0,8,9
 271 564 271 564 235.5 560.5 c 128,-1,10
 200 557 200 557 165.5 553.5 c 128,-1,11
 131 550 131 550 130 549 c 0,12,13
 126 545 126 545 126 530 c 0,14,15
 126 522 126 522 134.5 518.5 c 128,-1,16
 143 515 143 515 187 503 c 0,17,18
 243 488 243 488 258 477 c 128,-1,19
 273 466 273 466 273 440 c 0,20,21
 273 395 273 395 232 355 c 0,22,23
 215 338 215 338 205 333 c 128,-1,24
 195 328 195 328 173 324 c 0,25,26
 140 318 140 318 120 318 c 0,27,28
 92 318 92 318 81 330 c 0,29,30
 72 340 72 340 72 351 c 0,31,32
 72 363 72 363 84.5 371.5 c 128,-1,33
 97 380 97 380 117 380 c 0,34,35
 142 380 142 380 166.5 388.5 c 128,-1,36
 191 397 191 397 198 409 c 0,37,38
 207 422 207 422 205 428 c 0,39,40
 204 432 204 432 170 442 c 128,-1,41
 136 452 136 452 110 456 c 0,42,43
 81 460 81 460 72.5 463.5 c 128,-1,44
 64 467 64 467 58 479 c 0,45,46
 53 486 53 486 53 496 c 128,-1,47
 53 506 53 506 58 524 c 0,48,49
 66 556 66 556 66 575 c 0,50,51
 66 600 66 600 80 608 c 128,-1,52
 94 616 94 616 145 619 c 0,0,1
EndSplineSet
Validated: 1
EndChar

StartChar: uni2076
Encoding: 8310 8310 125
Width: 316
GlyphClass: 1
Flags: W
LayerCount: 2
Fore
SplineSet
188 440 m 0,0,1
 176 452 176 452 167 452 c 0,2,3
 157 452 157 452 138 433 c 128,-1,4
 119 414 119 414 119 396 c 0,5,6
 119 386 119 386 125 373 c 0,7,8
 129 361 129 361 138 361 c 0,9,10
 150 361 150 361 172 382 c 0,11,12
 199 406 199 406 199 420 c 0,13,14
 199 429 199 429 188 440 c 0,0,1
141 624 m 0,15,16
 163 633 163 633 177 633 c 128,-1,17
 191 633 191 633 212 629 c 0,18,19
 254 621 254 621 254 596 c 0,20,21
 254 584 254 584 242 572 c 0,22,23
 232 563 232 563 216 563 c 0,24,25
 205 563 205 563 196 564 c 0,26,27
 191 564 191 564 184.5 564.5 c 128,-1,28
 178 565 178 565 176 565 c 0,29,30
 168 565 168 565 163 563.5 c 128,-1,31
 158 562 158 562 155 559 c 128,-1,32
 152 556 152 556 145 548 c 0,33,34
 129 530 129 530 129 525 c 0,35,36
 129 519 129 519 126 513 c 0,37,38
 123 506 123 506 128 507 c 0,39,40
 130 507 130 507 137 510 c 0,41,42
 152 515 152 515 164 515 c 0,43,44
 202 515 202 515 237 480 c 0,45,46
 262 455 262 455 262 425 c 0,47,48
 262 418 262 418 258 396 c 0,49,50
 251 359 251 359 212 328.5 c 128,-1,51
 173 298 173 298 135 298 c 0,52,53
 126 298 126 298 122 299 c 0,54,55
 59 311 59 311 53 413 c 0,56,57
 52 423 52 423 52 441 c 0,58,59
 52 509 52 509 75 557 c 128,-1,60
 98 605 98 605 141 624 c 0,15,16
EndSplineSet
Validated: 1
EndChar

StartChar: uni2078
Encoding: 8312 8312 126
Width: 323
GlyphClass: 1
Flags: W
LayerCount: 2
Fore
SplineSet
201 422 m 0,0,1
 196 425 196 425 173 425 c 2,2,-1
 164 425 l 2,3,4
 144 425 144 425 138.5 422.5 c 128,-1,5
 133 420 133 420 127 410 c 0,6,7
 119 397 119 397 119 377 c 0,8,9
 119 358 119 358 126 344 c 0,10,11
 134 330 134 330 146 330 c 0,12,13
 162 330 162 330 184 351 c 0,14,15
 192 358 192 358 198.5 377 c 128,-1,16
 205 396 205 396 205 410 c 0,17,18
 205 419 205 419 201 422 c 0,0,1
178 567 m 0,19,20
 160 577 160 577 151 577 c 0,21,22
 143 577 143 577 128 562 c 128,-1,23
 113 547 113 547 113 539 c 0,24,25
 113 519 113 519 148 507 c 0,26,27
 168 500 168 500 179 500 c 0,28,29
 192 500 192 500 196 512 c 0,30,31
 199 521 199 521 199 529 c 0,32,33
 199 554 199 554 178 567 c 0,19,20
121 637 m 0,34,35
 151 649 151 649 160 649 c 128,-1,36
 169 649 169 649 182 639 c 0,37,38
 194 629 194 629 199 629 c 0,39,40
 206 629 206 629 226 609 c 128,-1,41
 246 589 246 589 253 575 c 0,42,43
 262 554 262 554 262 528 c 0,44,45
 262 503 262 503 255 489 c 0,46,47
 250 479 250 479 250 476 c 0,48,49
 250 470 250 470 259 458 c 0,50,51
 270 444 270 444 270 416 c 0,52,53
 270 387 270 387 257.5 354.5 c 128,-1,54
 245 322 245 322 224 301 c 0,55,56
 190 267 190 267 142 267 c 0,57,58
 97 267 97 267 77 296 c 0,59,60
 68 308 68 308 58 344 c 0,61,62
 52 368 52 368 52 377 c 0,63,64
 52 387 52 387 58 408 c 0,65,66
 67 442 67 442 77 453 c 0,67,68
 84 462 84 462 84.5 465 c 128,-1,69
 85 468 85 468 78 474 c 0,70,71
 52 495 52 495 52 535 c 0,72,73
 52 560 52 560 62 584 c 0,74,75
 70 604 70 604 82.5 615.5 c 128,-1,76
 95 627 95 627 121 637 c 0,34,35
EndSplineSet
Validated: 1
EndChar

StartChar: uni2079
Encoding: 8313 8313 127
Width: 333
GlyphClass: 1
Flags: W
LayerCount: 2
Fore
SplineSet
194 529 m 2,0,-1
 188 529 l 2,1,2
 159 529 159 529 140 517.5 c 128,-1,3
 121 506 121 506 121 488 c 0,4,5
 121 479 121 479 135 479 c 0,6,7
 146 479 146 479 154 480 c 0,8,9
 219 486 219 486 219 512 c 0,10,11
 219 523 219 523 214.5 525.5 c 128,-1,12
 210 528 210 528 194 529 c 2,0,-1
158 593 m 0,13,14
 173 596 173 596 189 596 c 0,15,16
 226 596 226 596 245 585 c 0,17,18
 266 572 266 572 272.5 557 c 128,-1,19
 279 542 279 542 279 507 c 0,20,21
 279 477 279 477 275.5 463.5 c 128,-1,22
 272 450 272 450 257 420 c 0,23,24
 234 376 234 376 211.5 352.5 c 128,-1,25
 189 329 189 329 152 311 c 0,26,27
 116 294 116 294 103 294 c 0,28,29
 88 294 88 294 78 309 c 0,30,31
 68 323 68 323 74 336 c 0,32,33
 80 350 80 350 94 355 c 0,34,35
 148 376 148 376 166 397 c 0,36,37
 177 409 177 409 177 415 c 0,38,39
 177 419 177 419 169 419 c 0,40,41
 163 419 163 419 159 418 c 0,42,43
 154 417 154 417 144 417 c 0,44,45
 120 417 120 417 97 423.5 c 128,-1,46
 74 430 74 430 66 440 c 0,47,48
 54 454 54 454 54 479 c 0,49,50
 54 528 54 528 85 556 c 0,51,52
 113 584 113 584 158 593 c 0,13,14
EndSplineSet
Validated: 1
EndChar

StartChar: uni2080
Encoding: 8320 8320 128
Width: 370
GlyphClass: 1
Flags: W
LayerCount: 2
Fore
SplineSet
241 218 m 0,0,1
 232 228 232 228 210 228 c 0,2,3
 190 228 190 228 169 219 c 0,4,5
 130 203 130 203 130 137 c 0,6,7
 130 108 130 108 146.5 83 c 128,-1,8
 163 58 163 58 183 58 c 0,9,10
 198 58 198 58 214 71.5 c 128,-1,11
 230 85 230 85 238 105 c 0,12,13
 251 132 251 132 251 174 c 0,14,15
 251 208 251 208 241 218 c 0,0,1
133 286 m 0,16,17
 146 294 146 294 179 294 c 0,18,19
 231 294 231 294 264 279 c 0,20,21
 316 253 316 253 316 180 c 0,22,23
 316 152 316 152 306.5 113 c 128,-1,24
 297 74 297 74 286 56 c 0,25,26
 269 30 269 30 240.5 12.5 c 128,-1,27
 212 -5 212 -5 185 -5 c 0,28,29
 136 -5 136 -5 101.5 36 c 128,-1,30
 67 77 67 77 66 135 c 0,31,32
 66 168 66 168 59 180 c 0,33,34
 50 191 50 191 56 204 c 0,35,36
 61 215 61 215 89.5 245.5 c 128,-1,37
 118 276 118 276 133 286 c 0,16,17
EndSplineSet
Validated: 1
EndChar

StartChar: uni2081
Encoding: 8321 8321 129
Width: 291
GlyphClass: 1
Flags: W
LayerCount: 2
Fore
SplineSet
83 282 m 0,0,1
 98 298 98 298 105.5 302 c 128,-1,2
 113 306 113 306 126 306 c 0,3,4
 167 306 167 306 175 287 c 0,5,6
 178 281 178 281 185 172 c 2,7,-1
 191 66 l 1,8,-1
 206 62 l 2,9,10
 235 54 235 54 235 29 c 0,11,12
 235 18 235 18 226 9 c 0,13,14
 220 4 220 4 189.5 -0.5 c 128,-1,15
 159 -5 159 -5 133 -5 c 0,16,17
 120 -5 120 -5 110 -3 c 0,18,19
 88 3 88 3 88 22 c 0,20,21
 88 43 88 43 111 55 c 2,22,-1
 127 64 l 1,23,-1
 124 124 l 2,24,25
 120 186 120 186 117 201 c 0,26,27
 115 213 115 213 113 214.5 c 128,-1,28
 111 216 111 216 102 210 c 128,-1,29
 93 204 93 204 82 204 c 0,30,31
 61 204 61 204 56 221 c 0,32,33
 54 229 54 229 54 233 c 0,34,35
 54 253 54 253 83 282 c 0,0,1
EndSplineSet
Validated: 1
EndChar

StartChar: uni2082
Encoding: 8322 8322 130
Width: 373
GlyphClass: 1
Flags: W
LayerCount: 2
Fore
SplineSet
144 337 m 0,0,1
 161 340 161 340 180 340 c 0,2,3
 221 340 221 340 241 329 c 0,4,5
 276 309 276 309 276 261 c 0,6,7
 276 236 276 236 267 202 c 0,8,9
 254 150 254 150 207 91 c 0,10,11
 184 61 184 61 184 56 c 0,12,13
 184 53 184 53 191 53 c 0,14,15
 197 53 197 53 227.5 58.5 c 128,-1,16
 258 64 258 64 275 64 c 0,17,18
 294 64 294 64 303 58 c 0,19,20
 317 47 317 47 317 33 c 0,21,22
 317 20 317 20 307 13 c 0,23,24
 297 4 297 4 247.5 -4 c 128,-1,25
 198 -12 198 -12 155 -12 c 0,26,27
 142 -12 142 -12 124 -10 c 0,28,29
 94 -6 94 -6 82 2.5 c 128,-1,30
 70 11 70 11 70 26 c 0,31,32
 71 37 71 37 79 49.5 c 128,-1,33
 87 62 87 62 94 62 c 0,34,35
 98 62 98 62 131.5 101 c 128,-1,36
 165 140 165 140 181 163 c 0,37,38
 191 177 191 177 203 210.5 c 128,-1,39
 215 244 215 244 215 257 c 0,40,41
 215 269 215 269 201 275 c 0,42,43
 192 278 192 278 182 278 c 0,44,45
 147 278 147 278 104 247 c 0,46,47
 94 240 94 240 84 240 c 0,48,49
 72 240 72 240 63.5 248.5 c 128,-1,50
 55 257 55 257 55 270 c 0,51,52
 55 275 55 275 56 278 c 0,53,54
 61 295 61 295 87 312.5 c 128,-1,55
 113 330 113 330 144 337 c 0,0,1
EndSplineSet
Validated: 1
EndChar

StartChar: uni2083
Encoding: 8323 8323 131
Width: 335
GlyphClass: 1
Flags: W
LayerCount: 2
Fore
SplineSet
99 278 m 0,0,1
 132 287 132 287 139 287 c 0,2,3
 150 287 150 287 159 286 c 0,4,5
 185 285 185 285 214.5 271 c 128,-1,6
 244 257 244 257 263 237 c 0,7,8
 274 225 274 225 277 217.5 c 128,-1,9
 280 210 280 210 280 193 c 0,10,11
 280 166 280 166 266 146 c 0,12,13
 254 130 254 130 254 125 c 0,14,15
 254 122 254 122 257 117 c 0,16,17
 262 106 262 106 267 106 c 128,-1,18
 272 106 272 106 276.5 92 c 128,-1,19
 281 78 281 78 281 64 c 0,20,21
 281 57 281 57 280 54 c 0,22,23
 276 33 276 33 232 15.5 c 128,-1,24
 188 -2 188 -2 132 -6 c 0,25,26
 119 -7 119 -7 103 -7 c 0,27,28
 85 -7 85 -7 76 3 c 0,29,30
 65 14 65 14 65 26 c 0,31,32
 65 40 65 40 81 49.5 c 128,-1,33
 97 59 97 59 123 59 c 0,34,35
 148 59 148 59 176.5 64 c 128,-1,36
 205 69 205 69 205 74 c 0,37,38
 205 91 205 91 167 91 c 0,39,40
 139 91 139 91 131 99 c 0,41,42
 122 108 122 108 122 119 c 0,43,44
 122 134 122 134 135.5 146 c 128,-1,45
 149 158 149 158 169 158 c 0,46,47
 190 158 190 158 202 171 c 0,48,49
 214 183 214 183 214 190 c 0,50,51
 214 200 214 200 188 213 c 0,52,53
 167 224 167 224 157 224 c 0,54,55
 156 224 156 224 134 220 c 0,56,57
 108 215 108 215 104 209 c 0,58,59
 101 204 101 204 91 204 c 0,60,61
 75 204 75 204 64 213 c 0,62,63
 54 222 54 222 54 234 c 0,64,65
 54 248 54 248 66.5 260.5 c 128,-1,66
 79 273 79 273 99 278 c 0,0,1
EndSplineSet
Validated: 1
EndChar

StartChar: uni2084
Encoding: 8324 8324 132
Width: 392
GlyphClass: 1
Flags: W
LayerCount: 2
Fore
SplineSet
180 132 m 2,0,1
 182 162 182 162 182 168 c 0,2,3
 182 177 182 177 161 147 c 0,4,5
 128 99 128 99 128 92 c 0,6,7
 128 89 128 89 152 91 c 2,8,-1
 177 93 l 1,9,-1
 180 132 l 2,0,1
180 282 m 0,10,11
 196 298 196 298 216 298 c 0,12,13
 230 298 230 298 239 289 c 0,14,15
 246 282 246 282 246 255 c 0,16,17
 246 250 246 250 244 192 c 0,18,19
 242 130 242 130 242 128 c 0,20,21
 242 107 242 107 247 107 c 0,22,23
 249 107 249 107 250 108 c 0,24,25
 263 113 263 113 286 115 c 2,26,-1
 295 115 l 2,27,28
 336 115 336 115 336 83 c 0,29,30
 336 54 336 54 294 51 c 0,31,32
 260 49 260 49 251 42 c 128,-1,33
 242 35 242 35 239 9 c 0,34,35
 238 1 238 1 237.5 -9 c 128,-1,36
 237 -19 237 -19 236.5 -22 c 128,-1,37
 236 -25 236 -25 234.5 -30 c 128,-1,38
 233 -35 233 -35 229.5 -38 c 128,-1,39
 226 -41 226 -41 219 -45 c 0,40,41
 205 -53 205 -53 191 -45 c 0,42,43
 181 -40 181 -40 179 -33.5 c 128,-1,44
 177 -27 177 -27 175 -4 c 2,45,-1
 174 30 l 1,46,-1
 129 26 l 2,47,48
 118 25 118 25 101 25 c 0,49,50
 73 25 73 25 64 34.5 c 128,-1,51
 55 44 55 44 55 69 c 0,52,53
 55 92 55 92 77 128 c 0,54,55
 147 247 147 247 180 282 c 0,10,11
EndSplineSet
Validated: 1
EndChar

StartChar: uni2085
Encoding: 8325 8325 133
Width: 319
GlyphClass: 1
Flags: W
LayerCount: 2
Fore
SplineSet
99 258 m 0,0,1
 109 268 109 268 118.5 270 c 128,-1,2
 128 272 128 272 178 272 c 0,3,4
 222 272 222 272 235 270 c 128,-1,5
 248 268 248 268 255 261 c 0,6,7
 265 251 265 251 265 239 c 128,-1,8
 265 227 265 227 255 217 c 0,9,10
 246 209 246 209 216 209 c 2,11,-1
 194 209 l 2,12,13
 190 209 190 209 183 209.5 c 128,-1,14
 176 210 176 210 173 210 c 0,15,16
 144 210 144 210 141 203 c 0,17,18
 136 195 136 195 136 190 c 0,19,20
 136 180 136 180 150 177 c 0,21,22
 163 174 163 174 198.5 142.5 c 128,-1,23
 234 111 234 111 242 95 c 128,-1,24
 250 79 250 79 250 66 c 0,25,26
 250 52 250 52 234 25.5 c 128,-1,27
 218 -1 218 -1 201 -17 c 0,28,29
 188 -29 188 -29 178.5 -32.5 c 128,-1,30
 169 -36 169 -36 140 -38 c 0,31,32
 130 -39 130 -39 115 -39 c 0,33,34
 95 -39 95 -39 75 -29 c 0,35,36
 60 -21 60 -21 56.5 -16.5 c 128,-1,37
 53 -12 53 -12 53 0 c 0,38,39
 53 31 53 31 82 31 c 0,40,41
 90 31 90 31 99 28 c 0,42,43
 106 26 106 26 119 26 c 0,44,45
 164 26 164 26 178 55 c 0,46,47
 180 61 180 61 180 63 c 0,48,49
 180 77 180 77 149 101 c 0,50,51
 131 116 131 116 103 116 c 0,52,53
 80 116 80 116 66.5 125.5 c 128,-1,54
 53 135 53 135 53 151 c 0,55,56
 53 165 53 165 70 205 c 128,-1,57
 87 245 87 245 99 258 c 0,0,1
EndSplineSet
Validated: 1
EndChar

StartChar: uni2086
Encoding: 8326 8326 134
Width: 310
GlyphClass: 1
Flags: W
LayerCount: 2
Fore
SplineSet
185 67 m 0,0,1
 168 72 168 72 143 72 c 0,2,3
 133 72 133 72 130 71 c 0,4,5
 121 69 121 69 119.5 66 c 128,-1,6
 118 63 118 63 120 51 c 0,7,8
 123 32 123 32 135 20 c 128,-1,9
 147 8 147 8 163 8 c 0,10,11
 181 8 181 8 186 17 c 0,12,13
 191 29 191 29 191 45 c 0,14,15
 191 64 191 64 185 67 c 0,0,1
177 276 m 0,16,17
 195 281 195 281 200 281 c 0,18,19
 208 281 208 281 217 272 c 0,20,21
 228 261 228 261 228 247 c 0,22,23
 228 230 228 230 213 223 c 128,-1,24
 198 216 198 216 179.5 196 c 128,-1,25
 161 176 161 176 150 157 c 2,26,-1
 139 137 l 1,27,-1
 160 137 l 2,28,29
 181 137 181 137 207 126 c 0,30,31
 235 113 235 113 244 94 c 0,32,33
 255 70 255 70 255 45 c 0,34,35
 255 18 255 18 243 -8 c 0,36,37
 236 -24 236 -24 228.5 -31.5 c 128,-1,38
 221 -39 221 -39 203 -47 c 0,39,40
 179 -58 179 -58 164 -58 c 0,41,42
 144 -58 144 -58 114 -43 c 0,43,44
 92 -32 92 -32 75.5 -8.5 c 128,-1,45
 59 15 59 15 55 40 c 0,46,47
 54 44 54 44 54 56 c 0,48,49
 54 114 54 114 67 136 c 0,50,51
 69 139 69 139 74.5 151 c 128,-1,52
 80 163 80 163 83 170 c 0,53,54
 97 198 97 198 129 235 c 128,-1,55
 161 272 161 272 177 276 c 0,16,17
EndSplineSet
Validated: 1
EndChar

StartChar: uni2087
Encoding: 8327 8327 135
Width: 370
GlyphClass: 1
Flags: W
LayerCount: 2
Fore
SplineSet
64 247 m 0,0,1
 71 254 71 254 79.5 256 c 128,-1,2
 88 258 88 258 115 258 c 2,3,-1
 146 258 l 2,4,5
 230 256 230 256 261.5 252.5 c 128,-1,6
 293 249 293 249 304 240 c 0,7,8
 317 230 317 230 317 216 c 0,9,10
 317 200 317 200 302 185 c 0,11,12
 289 172 289 172 262 126 c 0,13,14
 248 101 248 101 224.5 62.5 c 128,-1,15
 201 24 201 24 188 0 c 0,16,17
 172 -30 172 -30 165.5 -37 c 128,-1,18
 159 -44 159 -44 147 -44 c 0,19,20
 133 -44 133 -44 123.5 -35 c 128,-1,21
 114 -26 114 -26 114 -13 c 0,22,23
 114 -4 114 -4 136.5 40 c 128,-1,24
 159 84 159 84 172 99 c 0,25,26
 177 104 177 104 199 146 c 2,27,-1
 222 188 l 1,28,-1
 203 191 l 2,29,30
 188 194 188 194 129 194 c 0,31,32
 90 194 90 194 80.5 196 c 128,-1,33
 71 198 71 198 63 208 c 0,34,35
 53 221 53 221 53 229 c 128,-1,36
 53 237 53 237 64 247 c 0,0,1
EndSplineSet
Validated: 1
EndChar

StartChar: uni2088
Encoding: 8328 8328 136
Width: 313
GlyphClass: 1
Flags: W
LayerCount: 2
Fore
SplineSet
187 40 m 0,0,1
 190 59 190 59 186 59 c 0,2,3
 182 58 182 58 164 36.5 c 128,-1,4
 146 15 146 15 142 6 c 128,-1,5
 138 -3 138 -3 143 -14 c 0,6,7
 145 -18 145 -18 146 -19.5 c 128,-1,8
 147 -21 147 -21 149 -21.5 c 128,-1,9
 151 -22 151 -22 153 -20.5 c 128,-1,10
 155 -19 155 -19 159 -15 c 0,11,12
 181 6 181 6 187 40 c 0,0,1
175 182 m 0,13,14
 168 194 168 194 145 194 c 0,15,16
 139 194 139 194 134.5 193.5 c 128,-1,17
 130 193 130 193 127 193 c 128,-1,18
 124 193 124 193 122 191 c 128,-1,19
 120 189 120 189 118.5 188 c 128,-1,20
 117 187 117 187 116.5 183 c 128,-1,21
 116 179 116 179 115.5 177 c 128,-1,22
 115 175 115 175 114 168.5 c 128,-1,23
 113 162 113 162 113 158 c 2,24,-1
 110 132 l 1,25,-1
 134 132 l 2,26,27
 151 132 151 132 157 135 c 128,-1,28
 163 138 163 138 171 151 c 0,29,30
 181 165 181 165 181 170 c 0,31,32
 181 174 181 174 175 182 c 0,13,14
109 257 m 0,33,34
 116 260 116 260 158 260 c 2,35,-1
 175 260 l 1,36,-1
 232 259 l 1,37,-1
 247 241 l 2,38,39
 261 226 261 226 261 213 c 0,40,41
 261 204 261 204 260 198 c 0,42,43
 257 173 257 173 241 147 c 0,44,45
 226 121 226 121 226 119 c 128,-1,46
 226 117 226 117 239 98 c 0,47,48
 251 79 251 79 251 51 c 0,49,50
 251 20 251 20 237 -11.5 c 128,-1,51
 223 -43 223 -43 200 -63 c 128,-1,52
 177 -83 177 -83 151 -83 c 0,53,54
 121 -83 121 -83 98.5 -59.5 c 128,-1,55
 76 -36 76 -36 76 -3 c 0,56,57
 76 19 76 19 88 42 c 0,58,59
 101 66 101 66 101 67 c 128,-1,60
 101 68 101 68 86 72 c 0,61,62
 64 76 64 76 58 90.5 c 128,-1,63
 52 105 52 105 52 149 c 0,64,65
 53 204 53 204 63 220 c 0,66,67
 79 246 79 246 109 257 c 0,33,34
EndSplineSet
Validated: 1
EndChar

StartChar: uni2089
Encoding: 8329 8329 137
Width: 339
GlyphClass: 1
Flags: W
LayerCount: 2
Fore
SplineSet
197 228 m 0,0,1
 183 237 183 237 167 237 c 0,2,3
 147 237 147 237 133 225.5 c 128,-1,4
 119 214 119 214 119 196 c 0,5,6
 119 186 119 186 140 160.5 c 128,-1,7
 161 135 161 135 169 135 c 0,8,9
 176 135 176 135 198 161 c 0,10,11
 218 184 218 184 218 192 c 0,12,13
 218 199 218 199 216 203 c 0,14,15
 211 217 211 217 197 228 c 0,0,1
55 182 m 0,16,17
 54 186 54 186 54 195 c 0,18,19
 54 235 54 235 86.5 268 c 128,-1,20
 119 301 119 301 165 301 c 0,21,22
 189 301 189 301 213 291 c 0,23,24
 233 283 233 283 254 260.5 c 128,-1,25
 275 238 275 238 280 219 c 0,26,27
 285 197 285 197 285 178 c 0,28,29
 285 117 285 117 248 48 c 128,-1,30
 211 -21 211 -21 150 -72 c 0,31,32
 119 -97 119 -97 105 -97 c 0,33,34
 97 -97 97 -97 87 -89 c 0,35,36
 77 -80 77 -80 77 -69 c 0,37,38
 77 -52 77 -52 97 -35 c 0,39,40
 140 4 140 4 172 45 c 2,41,-1
 193 70 l 1,42,-1
 170 74 l 2,43,44
 129 79 129 79 93 118 c 0,45,46
 72 141 72 141 65 152.5 c 128,-1,47
 58 164 58 164 55 182 c 0,16,17
EndSplineSet
Validated: 1
EndChar

StartChar: Euro
Encoding: 8364 8364 138
Width: 525
GlyphClass: 1
Flags: W
LayerCount: 2
Fore
SplineSet
299 632 m 0,0,1
 315 636 315 636 338 636 c 0,2,3
 369 636 369 636 397 628 c 128,-1,4
 425 620 425 620 434 607 c 0,5,6
 442 596 442 596 442 586 c 0,7,8
 442 575 442 575 433.5 566.5 c 128,-1,9
 425 558 425 558 413 558 c 0,10,11
 402 558 402 558 395 563 c 0,12,13
 379 572 379 572 347 572 c 0,14,15
 308 572 308 572 290 560 c 0,16,17
 247 531 247 531 226 470 c 2,18,-1
 220 453 l 1,19,-1
 301 453 l 2,20,21
 382 453 382 453 392 444 c 0,22,23
 401 436 401 436 401 424 c 0,24,25
 401 411 401 411 391 401 c 0,26,27
 384 394 384 394 368 392.5 c 128,-1,28
 352 391 352 391 290 391 c 0,29,30
 201 391 201 391 197 382 c 128,-1,31
 193 373 193 373 196 370 c 0,32,33
 197 369 197 369 296 365 c 0,34,35
 367 363 367 363 381 361 c 128,-1,36
 395 359 395 359 402 350 c 0,37,38
 411 338 411 338 411 332 c 0,39,40
 411 325 411 325 403 314 c 0,41,42
 397 306 397 306 383.5 304.5 c 128,-1,43
 370 303 370 303 300 303 c 2,44,-1
 203 303 l 1,45,-1
 207 286 l 2,46,47
 212 260 212 260 232.5 234.5 c 128,-1,48
 253 209 253 209 279 195 c 0,49,50
 296 186 296 186 321 186 c 0,51,52
 360 186 360 186 396 203 c 128,-1,53
 432 220 432 220 440 220 c 0,54,55
 451 220 451 220 460 210.5 c 128,-1,56
 469 201 469 201 469 189 c 128,-1,57
 469 177 469 177 460.5 168 c 128,-1,58
 452 159 452 159 430 148 c 0,59,60
 380 123 380 123 330 123 c 0,61,62
 262 123 262 123 210 167 c 128,-1,63
 158 211 158 211 139 287 c 2,64,-1
 134 310 l 1,65,-1
 103 312 l 2,66,67
 54 315 54 315 54 344 c 128,-1,68
 54 373 54 373 103 376 c 0,69,70
 124 378 124 378 129 379.5 c 128,-1,71
 134 381 134 381 134 388 c 128,-1,72
 134 395 134 395 129 396.5 c 128,-1,73
 124 398 124 398 106 400 c 0,74,75
 59 403 59 403 59 431 c 0,76,77
 59 442 59 442 70 453 c 0,78,79
 79 462 79 462 94 462 c 0,80,81
 107 462 107 462 117 461 c 0,82,83
 139 459 139 459 141 459 c 0,84,85
 154 459 154 459 158 472 c 0,86,87
 169 502 169 502 190.5 538 c 128,-1,88
 212 574 212 574 230 592 c 0,89,90
 258 622 258 622 299 632 c 0,0,1
EndSplineSet
Validated: 1
EndChar

StartChar: uni20b9
Encoding: 8377 8377 139
Width: 483
GlyphClass: 1
Flags: W
LayerCount: 2
Fore
SplineSet
311 632 m 0,0,1
 343 637 343 637 368 637 c 2,2,-1
 376 637 l 2,3,4
 391 636 391 636 396 633.5 c 128,-1,5
 401 631 401 631 408 620 c 2,6,-1
 419 602 l 1,7,-1
 406 590 l 2,8,9
 394 578 394 578 342 572 c 0,10,11
 286 566 286 566 280 564 c 2,12,-1
 268 561 l 1,13,14
 273 551 273 551 283.5 532 c 128,-1,15
 294 513 294 513 299 504 c 1,16,-1
 321 507 l 2,17,18
 325 508 325 508 378 513 c 0,19,20
 398 515 398 515 401 515 c 0,21,22
 414 515 414 515 420 507 c 0,23,24
 427 499 427 499 427 487 c 128,-1,25
 427 475 427 475 419 467 c 0,26,27
 409 459 409 459 358 450 c 2,28,-1
 308 440 l 1,29,-1
 293 414 l 2,30,31
 280 392 280 392 257.5 368 c 128,-1,32
 235 344 235 344 218 335 c 2,33,-1
 203 327 l 1,34,-1
 282 249 l 2,35,36
 360 171 360 171 360 158 c 0,37,38
 360 132 360 132 327 132 c 0,39,40
 312 132 312 132 295.5 145.5 c 128,-1,41
 279 159 279 159 212 227 c 0,42,43
 118 323 118 323 112 323 c 0,44,45
 107 323 107 323 103 331.5 c 128,-1,46
 99 340 99 340 99 350 c 0,47,48
 99 356 99 356 101 362 c 0,49,50
 107 381 107 381 138 381 c 2,51,-1
 146 381 l 1,52,-1
 149 381 l 2,53,54
 189 381 189 381 217 412 c 0,55,56
 232 428 232 428 229 431 c 2,57,-1
 226 431 l 2,58,59
 219 431 219 431 155 427 c 0,60,61
 99 423 99 423 86 423 c 0,62,63
 76 423 76 423 75 424 c 0,64,65
 56 430 56 430 56 454 c 0,66,67
 56 460 56 460 57 463 c 0,68,69
 60 478 60 478 79 483 c 128,-1,70
 98 488 98 488 163 491 c 0,71,72
 225 495 225 495 230 497 c 0,73,74
 232 501 232 501 218 520 c 0,75,76
 209 534 209 534 203.5 537 c 128,-1,77
 198 540 198 540 180 541 c 0,78,79
 155 541 155 541 127 555 c 0,80,81
 109 564 109 564 103.5 569 c 128,-1,82
 98 574 98 574 97 585 c 0,83,84
 97 587 97 587 96.5 589.5 c 128,-1,85
 96 592 96 592 96 593 c 0,86,87
 96 608 96 608 112.5 613 c 128,-1,88
 129 618 129 618 190 621 c 0,89,90
 268 625 268 625 311 632 c 0,0,1
EndSplineSet
Validated: 1
EndChar

StartChar: trademark
Encoding: 8482 8482 140
Width: 612
GlyphClass: 1
Flags: W
LayerCount: 2
Fore
SplineSet
140 635 m 0,0,1
 149 641 149 641 187 641 c 0,2,3
 246 641 246 641 266 631 c 0,4,5
 284 622 284 622 284 604 c 0,6,7
 284 594 284 594 278 584 c 0,8,9
 271 573 271 573 259 573 c 0,10,11
 258 573 258 573 236 575 c 2,12,-1
 203 578 l 1,13,-1
 203 517 l 2,14,15
 203 451 203 451 211 427 c 0,16,17
 216 407 216 407 216 396 c 0,18,19
 216 376 216 376 202 369 c 0,20,21
 195 365 195 365 187 365 c 0,22,23
 167 365 167 365 155 394 c 0,24,25
 146 416 146 416 142 493 c 2,26,-1
 138 569 l 1,27,-1
 105 572 l 2,28,29
 72 574 72 574 62 588 c 0,30,31
 52 601 52 601 58 615 c 0,32,33
 68 636 68 636 94 636 c 0,34,35
 102 636 102 636 111 633 c 0,36,37
 130 628 130 628 140 635 c 0,0,1
314 630 m 2,38,39
 328 639 328 639 339 639 c 0,40,41
 360 639 360 639 398 602 c 2,42,-1
 418 582 l 1,43,-1
 441 603 l 2,44,45
 462 624 462 624 479 624 c 0,46,47
 492 624 492 624 508 610 c 0,48,49
 537 582 537 582 545 490 c 0,50,51
 550 432 550 432 556 392 c 0,52,53
 559 369 559 369 559 361 c 0,54,55
 559 350 559 350 550 341 c 0,56,57
 539 328 539 328 527 328 c 0,58,59
 511 328 511 328 503.5 343.5 c 128,-1,60
 496 359 496 359 492 397 c 0,61,62
 479 536 479 536 471 536 c 0,63,64
 467 536 467 536 467 503 c 0,65,66
 467 448 467 448 437 448 c 0,67,68
 411 448 411 448 393 495 c 0,69,70
 383 521 383 521 374 532 c 0,71,72
 370 538 370 538 368 538 c 0,73,74
 365 538 365 538 365 514 c 2,75,-1
 365 487 l 1,76,-1
 365 460 l 2,77,78
 365 376 365 376 345 356 c 0,79,80
 335 346 335 346 323 346 c 0,81,82
 314 346 314 346 304 354 c 0,83,84
 301 359 301 359 299 489 c 2,85,-1
 298 620 l 1,86,-1
 314 630 l 2,38,39
EndSplineSet
Validated: 1
EndChar

StartChar: twothirds
Encoding: 8532 8532 141
Width: 661
GlyphClass: 1
Flags: W
LayerCount: 2
Fore
SplineSet
548 684 m 0,0,1
 556 696 556 696 573 696 c 0,2,3
 586 696 586 696 596 687.5 c 128,-1,4
 606 679 606 679 606 665 c 0,5,6
 606 657 606 657 585.5 636.5 c 128,-1,7
 565 616 565 616 544 603 c 0,8,9
 485 568 485 568 442 501 c 0,10,11
 415 458 415 458 415 454 c 128,-1,12
 415 450 415 450 471 446 c 0,13,14
 531 442 531 442 544 437 c 0,15,16
 594 419 594 419 594 367 c 0,17,18
 594 352 594 352 591 336 c 0,19,20
 585 308 585 308 563 286 c 0,21,22
 546 269 546 269 546 266 c 0,23,24
 546 262 546 262 550 261 c 0,25,26
 599 234 599 234 599 191 c 0,27,28
 599 182 599 182 596 173 c 0,29,30
 590 158 590 158 560.5 132.5 c 128,-1,31
 531 107 531 107 504 93 c 128,-1,32
 477 79 477 79 446 79 c 0,33,34
 421 79 421 79 404.5 88.5 c 128,-1,35
 388 98 388 98 388 113 c 0,36,37
 388 123 388 123 396 134 c 128,-1,38
 404 145 404 145 439 145 c 0,39,40
 463 145 463 145 473 147.5 c 128,-1,41
 483 150 483 150 498 161 c 0,42,43
 521 177 521 177 529 187 c 0,44,45
 533 193 533 193 533 193 c 2,46,47
 533 198 533 198 479 224 c 0,48,49
 457 236 457 236 448.5 244 c 128,-1,50
 440 252 440 252 440 263 c 0,51,52
 440 270 440 270 443 279 c 0,53,54
 445 287 445 287 466 301.5 c 128,-1,55
 487 316 487 316 504 320 c 0,56,57
 533 329 533 329 533 359 c 0,58,59
 533 370 533 370 528.5 374.5 c 128,-1,60
 524 379 524 379 510 381 c 0,61,62
 488 385 488 385 449 385 c 0,63,64
 407 386 407 386 396 396 c 2,65,-1
 385 406 l 1,66,-1
 332 312 l 2,67,68
 280 222 280 222 259 182 c 0,69,70
 211 91 211 91 181 91 c 0,71,72
 174 91 174 91 168 94 c 0,73,74
 152 101 152 101 152 119 c 0,75,76
 152 132 152 132 160 141 c 0,77,78
 190 183 190 183 232 262 c 2,79,-1
 254 302 l 1,80,-1
 238 296 l 2,81,82
 230 293 230 293 218 293 c 0,83,84
 210 293 210 293 207 294 c 0,85,86
 205 295 205 295 196 295 c 0,87,88
 171 295 171 295 135 289 c 0,89,90
 100 284 100 284 87 284 c 0,91,92
 60 284 60 284 56 304 c 0,93,94
 55 307 55 307 55 313 c 0,95,96
 55 325 55 325 64.5 336 c 128,-1,97
 74 347 74 347 100 369 c 0,98,99
 156 415 156 415 176.5 444 c 128,-1,100
 197 473 197 473 197 507 c 0,101,102
 197 537 197 537 191.5 548 c 128,-1,103
 186 559 186 559 169 559 c 0,104,105
 160 559 160 559 135 554 c 0,106,107
 116 550 116 550 99 550 c 0,108,109
 61 550 61 550 61 580 c 0,110,111
 63 608 63 608 90 608 c 0,112,113
 104 608 104 608 132 616 c 0,114,115
 154 623 154 623 172 623 c 0,116,117
 193 623 193 623 212 612 c 0,118,119
 237 598 237 598 247.5 577 c 128,-1,120
 258 556 258 556 258 518 c 2,121,-1
 258 507 l 2,122,123
 256 465 256 465 246.5 440.5 c 128,-1,124
 237 416 237 416 209 385 c 2,125,-1
 186 360 l 1,126,-1
 206 360 l 2,127,128
 251 360 251 360 260 335 c 0,129,130
 263 327 263 327 265 327 c 0,131,132
 269 327 269 327 292 367 c 0,133,134
 322 419 322 419 337 446 c 0,135,136
 427 608 427 608 509 654 c 0,137,138
 538 671 538 671 548 684 c 0,0,1
EndSplineSet
Validated: 1
EndChar

StartChar: oneeighth
Encoding: 8539 8539 142
Width: 607
GlyphClass: 1
Flags: W
LayerCount: 2
Fore
SplineSet
404 636 m 0,0,1
 415 644 415 644 426 644 c 0,2,3
 438 644 438 644 446 636 c 0,4,5
 455 628 455 628 455 616 c 0,6,7
 455 599 455 599 432 565 c 0,8,9
 328 419 328 419 238 234 c 0,10,11
 197 151 197 151 173 116 c 128,-1,12
 149 81 149 81 133 81 c 0,13,14
 130 81 130 81 128 82 c 0,15,16
 103 89 103 89 103 111 c 0,17,18
 103 123 103 123 131 163 c 0,19,20
 160 205 160 205 160 211 c 0,21,22
 160 216 160 216 207.5 310 c 128,-1,23
 255 404 255 404 275 439 c 0,24,25
 311 498 311 498 345 548 c 0,26,27
 393 622 393 622 393 624 c 0,28,29
 393 629 393 629 404 636 c 0,0,1
133 612 m 0,30,31
 164 639 164 639 177 639 c 0,32,33
 186 639 186 639 196 630 c 2,34,-1
 209 620 l 1,35,-1
 209 474 l 2,36,37
 208 370 208 370 207 348 c 128,-1,38
 206 326 206 326 199 319 c 0,39,40
 190 309 190 309 174 309 c 0,41,42
 161 309 161 309 152 318 c 0,43,44
 145 326 145 326 145 357 c 0,45,46
 145 361 145 361 147 435 c 2,47,-1
 151 544 l 1,48,-1
 138 534 l 2,49,50
 105 510 105 510 82 510 c 0,51,52
 71 510 71 510 63.5 519 c 128,-1,53
 56 528 56 528 56 541 c 0,54,55
 56 557 56 557 78 570 c 0,56,57
 109 591 109 591 133 612 c 0,30,31
478 185 m 0,58,59
 490 215 490 215 490 233 c 0,60,61
 490 244 490 244 484 250 c 0,62,63
 478 254 478 254 477 254 c 0,64,65
 472 254 472 254 455 221 c 0,66,67
 445 202 445 202 445 188 c 0,68,69
 445 171 445 171 459 169 c 0,70,71
 470 167 470 167 478 185 c 0,58,59
467 349 m 2,72,-1
 481 370 l 1,73,-1
 461 370 l 2,74,75
 448 370 448 370 443.5 368 c 128,-1,76
 439 366 439 366 437 358 c 2,77,-1
 431 337 l 2,78,79
 429 332 429 332 431.5 330 c 128,-1,80
 434 328 434 328 441 328 c 0,81,82
 453 328 453 328 467 349 c 2,72,-1
416 427 m 0,83,84
 434 437 434 437 453 437 c 0,85,86
 476 437 476 437 503 425 c 0,87,88
 548 406 548 406 548 376 c 0,89,90
 548 359 548 359 533 335 c 2,91,-1
 518 311 l 1,92,-1
 536 285 l 2,93,94
 553 261 553 261 553 232 c 128,-1,95
 553 203 553 203 543 178 c 0,96,97
 528 140 528 140 509 123.5 c 128,-1,98
 490 107 490 107 461 107 c 2,99,-1
 450 107 l 1,100,101
 403 111 403 111 386 160 c 0,102,103
 382 169 382 169 382 186 c 0,104,105
 382 220 382 220 397 247 c 0,106,107
 402 255 402 255 402 258 c 0,108,109
 402 263 402 263 385 279 c 2,110,-1
 365 297 l 1,111,-1
 368 333 l 2,112,113
 373 399 373 399 416 427 c 0,83,84
EndSplineSet
Validated: 2049
EndChar

StartChar: threeeighths
Encoding: 8540 8540 143
Width: 659
GlyphClass: 1
Flags: W
LayerCount: 2
Fore
SplineSet
513 656 m 0,0,1
 529 676 529 676 543 676 c 0,2,3
 573 676 573 676 573 650 c 0,4,5
 573 636 573 636 562 619 c 0,6,7
 548 599 548 599 517 544 c 0,8,9
 449 426 449 426 360 306 c 0,10,11
 300 226 300 226 252 154 c 0,12,13
 230 120 230 120 220 115 c 0,14,15
 218 114 218 114 213 114 c 0,16,17
 192 114 192 114 181 132 c 0,18,19
 179 136 179 136 179 140 c 0,20,21
 179 167 179 167 287 310 c 0,22,23
 383 438 383 438 458 567 c 0,24,25
 496 633 496 633 513 656 c 0,0,1
104 663 m 0,26,27
 125 670 125 670 163 670 c 2,28,-1
 171 670 l 2,29,30
 199 670 199 670 231 654 c 0,31,32
 289 624 289 624 289 592 c 0,33,34
 289 566 289 566 247 504 c 0,35,36
 227 473 227 473 227 471 c 0,37,38
 227 468 227 468 247 463 c 0,39,40
 265 459 265 459 279.5 443 c 128,-1,41
 294 427 294 427 294 413 c 128,-1,42
 294 399 294 399 281 377 c 128,-1,43
 268 355 268 355 252 343 c 0,44,45
 225 323 225 323 169 300.5 c 128,-1,46
 113 278 113 278 89 277 c 0,47,48
 81 277 81 277 68.5 289 c 128,-1,49
 56 301 56 301 56 310 c 0,50,51
 56 318 56 318 71 329 c 128,-1,52
 86 340 86 340 103 344 c 0,53,54
 167 360 167 360 205 387 c 2,55,-1
 228 404 l 1,56,-1
 210 407 l 2,57,58
 198 411 198 411 159 411 c 0,59,60
 123 412 123 412 111 422 c 0,61,62
 98 432 98 432 98 448 c 0,63,64
 98 461 98 461 107.5 470 c 128,-1,65
 117 479 117 479 132 479 c 0,66,67
 149 479 149 479 165 498 c 0,68,69
 181 516 181 516 201.5 547.5 c 128,-1,70
 222 579 222 579 222 585 c 0,71,72
 222 594 222 594 203 599.5 c 128,-1,73
 184 605 184 605 160 605 c 0,74,75
 130 605 130 605 117 596 c 0,76,77
 104 588 104 588 97 588 c 0,78,79
 87 588 87 588 74 601 c 0,80,81
 61 613 61 613 61 626 c 0,82,83
 61 649 61 649 104 663 c 0,26,27
531 205 m 0,84,85
 523 209 523 209 520 209 c 0,86,87
 508 209 508 209 495 187 c 0,88,89
 481 165 481 165 481 159 c 0,90,91
 481 152 481 152 493 152 c 0,92,93
 503 152 503 152 518 171 c 128,-1,94
 533 190 533 190 533 201 c 0,95,96
 533 203 533 203 531 205 c 0,84,85
522 355 m 128,-1,98
 514 355 514 355 502 341 c 0,99,100
 491 327 491 327 491 311 c 0,101,102
 491 303 491 303 496 300 c 2,103,-1
 497 300 l 2,104,105
 502 300 502 300 516 320.5 c 128,-1,106
 530 341 530 341 530 349 c 0,107,97
 530 355 530 355 522 355 c 128,-1,98
484 432 m 0,108,109
 502 437 502 437 525 437 c 0,110,111
 562 437 562 437 580 428 c 0,112,113
 604 413 604 413 604 386 c 0,114,115
 604 356 604 356 579 307 c 0,116,117
 562 272 562 272 562 266 c 0,118,119
 562 262 562 262 567 259 c 0,120,121
 605 239 605 239 605 207 c 0,122,123
 605 184 605 184 586 159 c 0,124,125
 571 139 571 139 556 116 c 0,126,127
 536 82 536 82 494 82 c 0,128,129
 481 82 481 82 473 83 c 0,130,131
 431 87 431 87 420 99 c 0,132,133
 409 110 409 110 409 132 c 0,134,135
 409 164 409 164 439 214 c 2,136,-1
 457 241 l 1,137,-1
 442 269 l 2,138,139
 429 295 429 295 429 316 c 0,140,141
 429 338 429 338 441 360 c 0,142,143
 450 376 450 376 450 393 c 0,144,145
 450 421 450 421 484 432 c 0,108,109
EndSplineSet
Validated: 2049
EndChar

StartChar: fiveeighths
Encoding: 8541 8541 144
Width: 630
GlyphClass: 1
Flags: W
LayerCount: 2
Fore
SplineSet
504 662 m 0,0,1
 520 675 520 675 538 675 c 0,2,3
 551 675 551 675 559 667 c 128,-1,4
 567 659 567 659 567 650 c 0,5,6
 567 634 567 634 524 597 c 0,7,8
 469 548 469 548 434.5 504 c 128,-1,9
 400 460 400 460 339 359 c 0,10,11
 326 339 326 339 308 310 c 128,-1,12
 290 281 290 281 284 271 c 128,-1,13
 278 261 278 261 264.5 237.5 c 128,-1,14
 251 214 251 214 237 186 c 128,-1,15
 223 158 223 158 200 111 c 0,16,17
 189 90 189 90 170 90 c 0,18,19
 158 90 158 90 148 100 c 0,20,21
 141 107 141 107 141 115 c 0,22,23
 141 127 141 127 163 178 c 0,24,25
 175 207 175 207 195.5 243.5 c 128,-1,26
 216 280 216 280 232 306 c 128,-1,27
 248 332 248 332 276.5 376.5 c 128,-1,28
 305 421 305 421 318 441 c 0,29,30
 404 581 404 581 504 662 c 0,0,1
85 641 m 0,31,32
 93 649 93 649 107 649 c 128,-1,33
 121 649 121 649 127 641 c 0,34,35
 133 635 133 635 150 635 c 0,36,37
 154 635 154 635 194 637 c 0,38,39
 207 638 207 638 228 638 c 0,40,41
 262 638 262 638 274 630.5 c 128,-1,42
 286 623 286 623 287 602 c 0,43,44
 287 575 287 575 245 575 c 0,45,46
 242 575 242 575 236 575.5 c 128,-1,47
 230 576 230 576 226 576 c 0,48,49
 223 576 223 576 217 576.5 c 128,-1,50
 211 577 211 577 208 577 c 0,51,52
 190 577 190 577 175 574.5 c 128,-1,53
 160 572 160 572 152 569 c 128,-1,54
 144 566 144 566 144 563 c 0,55,56
 144 557 144 557 172 554 c 0,57,58
 240 547 240 547 270 514 c 0,59,60
 282 501 282 501 284.5 493 c 128,-1,61
 287 485 287 485 287 462 c 0,62,63
 287 420 287 420 261.5 378 c 128,-1,64
 236 336 236 336 202 323 c 0,65,66
 194 319 194 319 131 315 c 0,67,68
 115 314 115 314 95 314 c 0,69,70
 74 314 74 314 65 323 c 0,71,72
 54 334 54 334 54 346 c 0,73,74
 54 362 54 362 68.5 368.5 c 128,-1,75
 83 375 83 375 128 378 c 0,76,77
 171 381 171 381 179.5 383 c 128,-1,78
 188 385 188 385 199 397 c 0,79,80
 213 411 213 411 223 439 c 0,81,82
 229 456 229 456 229 461 c 0,83,84
 229 468 229 468 220 475 c 0,85,86
 206 489 206 489 162 489 c 0,87,88
 135 489 135 489 124 482 c 0,89,90
 111 474 111 474 100 474 c 0,91,92
 86 474 86 474 77 487 c 0,93,94
 70 497 70 497 70 506 c 0,95,96
 70 516 70 516 74 532 c 0,97,98
 79 557 79 557 79 588 c 2,99,-1
 79 599 l 1,100,-1
 79 609 l 2,101,102
 79 635 79 635 85 641 c 0,31,32
500 232 m 0,103,104
 487 240 487 240 482 240 c 0,105,106
 478 240 478 240 467.5 221 c 128,-1,107
 457 202 457 202 455 190 c 2,108,-1
 451 172 l 1,109,-1
 469 176 l 2,110,111
 494 181 494 181 503.5 188 c 128,-1,112
 513 195 513 195 514 208 c 0,113,114
 515 218 515 218 512.5 222.5 c 128,-1,115
 510 227 510 227 500 232 c 0,103,104
510 345 m 0,116,117
 510 359 510 359 508 362 c 128,-1,118
 506 365 506 365 499 364 c 0,119,120
 464 363 464 363 464 352 c 0,121,122
 464 344 464 344 476 331 c 0,123,124
 489 315 489 315 495 315 c 0,125,126
 499 315 499 315 502 318 c 0,127,128
 510 324 510 324 510 345 c 0,116,117
456 424 m 0,129,130
 478 431 478 431 492 431 c 0,131,132
 504 431 504 431 530 425 c 0,133,134
 558 418 558 418 565 406.5 c 128,-1,135
 572 395 572 395 572 355 c 0,136,137
 572 312 572 312 561 294 c 2,138,-1
 550 276 l 1,139,-1
 562 263 l 2,140,141
 577 248 577 248 577 215 c 0,142,143
 577 190 577 190 566 168 c 0,144,145
 554 147 554 147 540 137 c 128,-1,146
 526 127 526 127 498 119 c 0,147,148
 466 111 466 111 450 111 c 0,149,150
 426 111 426 111 408 130 c 0,151,152
 396 143 396 143 393.5 150.5 c 128,-1,153
 391 158 391 158 391 179 c 0,154,155
 391 221 391 221 423 267 c 0,156,157
 430 277 430 277 430 282 c 0,158,159
 430 286 430 286 425 296 c 0,160,161
 418 310 418 310 399 327 c 0,162,163
 380 343 380 343 380 361 c 128,-1,164
 380 379 380 379 400 396 c 128,-1,165
 420 413 420 413 456 424 c 0,129,130
EndSplineSet
Validated: 2049
EndChar

StartChar: seveneighths
Encoding: 8542 8542 145
Width: 606
GlyphClass: 1
Flags: W
LayerCount: 2
Fore
SplineSet
430 651 m 0,0,1
 469 691 469 691 482 691 c 0,2,3
 491 691 491 691 498 682 c 0,4,5
 508 670 508 670 508 658 c 0,6,7
 508 657 508 657 507.5 654.5 c 128,-1,8
 507 652 507 652 507 650 c 0,9,10
 505 640 505 640 477 611 c 0,11,12
 382 508 382 508 270 284 c 0,13,14
 185 116 185 116 159 108 c 0,15,16
 153 106 153 106 149 106 c 0,17,18
 132 106 132 106 123 124 c 0,19,20
 120 131 120 131 120 137 c 0,21,22
 120 154 120 154 146 185 c 0,23,24
 158 198 158 198 195 274 c 0,25,26
 236 359 236 359 294 463 c 0,27,28
 318 504 318 504 370 573 c 0,29,30
 392 602 392 602 392 607 c 0,31,32
 392 611 392 611 430 651 c 0,0,1
63 626 m 0,33,34
 69 632 69 632 138 632 c 0,35,36
 270 632 270 632 285 620 c 0,37,38
 293 614 293 614 293 605 c 0,39,40
 293 594 293 594 270 536 c 0,41,42
 237 456 237 456 191 387 c 128,-1,43
 145 318 145 318 125 318 c 0,44,45
 113 318 113 318 102.5 327 c 128,-1,46
 92 336 92 336 92 347 c 0,47,48
 92 361 92 361 112 384 c 0,49,50
 137 414 137 414 169.5 471 c 128,-1,51
 202 528 202 528 208 552 c 2,52,-1
 212 566 l 1,53,-1
 163 569 l 2,54,55
 78 574 78 574 65 587 c 0,56,57
 56 594 56 594 56 608 c 0,58,59
 56 619 56 619 63 626 c 0,33,34
465 220 m 128,-1,61
 457 225 457 225 451 225 c 0,62,63
 439 225 439 225 434 211 c 0,64,65
 429 198 429 198 429.5 196 c 128,-1,66
 430 194 430 194 439 192 c 128,-1,67
 448 190 448 190 461 203 c 0,68,60
 473 215 473 215 465 220 c 128,-1,61
491 345 m 0,69,70
 491 354 491 354 487 354 c 0,71,72
 457 349 457 349 452 345.5 c 128,-1,73
 447 342 447 342 443 327 c 0,74,75
 438 307 438 307 441 304 c 2,76,-1
 443 304 l 2,77,78
 451 304 451 304 471 321 c 128,-1,79
 491 338 491 338 491 345 c 0,69,70
465 417 m 0,80,81
 489 420 489 420 504 420 c 0,82,83
 527 420 527 420 535.5 409.5 c 128,-1,84
 544 399 544 399 549 367 c 0,85,86
 552 349 552 349 552 337 c 0,87,88
 552 305 552 305 524 284 c 2,89,-1
 506 270 l 1,90,-1
 522 253 l 2,91,92
 538 234 538 234 538 216 c 0,93,94
 538 196 538 196 514 168 c 0,95,96
 477 127 477 127 449 127 c 0,97,98
 433 127 433 127 412 136 c 0,99,100
 366 156 366 156 366 195 c 0,101,102
 366 208 366 208 372 223 c 0,103,104
 377 237 377 237 379 297 c 0,105,106
 380 357 380 357 391 375 c 0,107,108
 414 411 414 411 465 417 c 0,80,81
EndSplineSet
Validated: 2049
EndChar

StartChar: uni2206
Encoding: 8710 8710 146
Width: 508
GlyphClass: 1
Flags: W
LayerCount: 2
Fore
SplineSet
281 404 m 0,0,1
 280 405 280 405 271 429.5 c 128,-1,2
 262 454 262 454 252.5 474 c 128,-1,3
 243 494 243 494 239 494 c 128,-1,4
 235 494 235 494 230 473 c 0,5,6
 228 463 228 463 183.5 335 c 128,-1,7
 139 207 139 207 139 192 c 0,8,9
 139 187 139 187 182 187 c 0,10,11
 220 187 220 187 249 188 c 0,12,13
 362 190 362 190 364 192 c 0,14,15
 365 193 365 193 332.5 277 c 128,-1,16
 300 361 300 361 281 404 c 0,0,1
212 592 m 0,17,18
 225 603 225 603 235 603 c 0,19,20
 247 603 247 603 262 587 c 0,21,22
 278 570 278 570 310 497 c 0,23,24
 312 493 312 493 318 478.5 c 128,-1,25
 324 464 324 464 327 458 c 0,26,27
 339 430 339 430 388 306.5 c 128,-1,28
 437 183 437 183 437 180 c 0,29,30
 437 178 437 178 445 170 c 0,31,32
 452 163 452 163 452 151 c 128,-1,33
 452 139 452 139 445 129 c 0,34,35
 440 121 440 121 423 121 c 0,36,37
 407 121 407 121 395 122 c 0,38,39
 391 122 391 122 368.5 122.5 c 128,-1,40
 346 123 346 123 329 123 c 0,41,42
 315 123 315 123 282 122.5 c 128,-1,43
 249 122 249 122 233 122 c 0,44,45
 113 121 113 121 105 113 c 0,46,47
 96 106 96 106 87 106 c 0,48,49
 68 106 68 106 60 123 c 0,50,51
 56 133 56 133 56 138 c 0,52,53
 56 147 56 147 69 185 c 0,54,55
 139 388 139 388 147 417 c 0,56,57
 192 572 192 572 212 592 c 0,17,18
EndSplineSet
Validated: 33
EndChar

StartChar: summation
Encoding: 8721 8721 147
Width: 563
GlyphClass: 1
Flags: W
LayerCount: 2
Fore
SplineSet
194 33 m 0,0,1
 217 33 217 33 315 25.5 c 128,-1,2
 413 18 413 18 438 18 c 0,3,4
 478 18 478 18 488 12 c 0,5,6
 506 1 506 1 506 -17 c 0,7,8
 506 -43 506 -43 480 -48 c 1,9,-1
 476 -48 l 2,10,11
 472 -49 472 -49 468 -49 c 0,12,13
 397 -49 397 -49 273 -34 c 0,14,15
 240 -29 240 -29 160 -29 c 0,16,17
 85 -29 85 -29 73 -23 c 0,18,19
 57 -13 57 -13 57 6 c 128,-1,20
 57 25 57 25 73 31 c 0,21,22
 83 35 83 35 96 59 c 0,23,24
 105 76 105 76 134 113.5 c 128,-1,25
 163 151 163 151 181 170 c 0,26,27
 201 191 201 191 248.5 247 c 128,-1,28
 296 303 296 303 296 306 c 0,29,30
 296 310 296 310 277 331 c 0,31,32
 257 353 257 353 229 388 c 0,33,34
 197 428 197 428 195 430 c 0,35,36
 180 445 180 445 164 467 c 0,37,38
 141 498 141 498 115 521 c 0,39,40
 89 543 89 543 89 560 c 0,41,42
 89 572 89 572 98 582 c 0,43,44
 104 590 104 590 120 592 c 128,-1,45
 136 594 136 594 216 597 c 0,46,47
 363 602 363 602 389 602 c 0,48,49
 437 602 437 602 449 590 c 0,50,51
 462 578 462 578 462 569 c 0,52,53
 462 561 462 561 453 552 c 0,54,55
 446 545 446 545 425 543 c 128,-1,56
 404 541 404 541 322 539 c 0,57,58
 199 535 199 535 199 532 c 0,59,60
 199 526 199 526 240.5 474.5 c 128,-1,61
 282 423 282 423 326 372 c 2,62,-1
 358 335 l 1,63,-1
 356 306 l 2,64,65
 354 277 354 277 350 271 c 128,-1,66
 346 265 346 265 299.5 210.5 c 128,-1,67
 253 156 253 156 237 139 c 0,68,69
 223 124 223 124 189.5 81.5 c 128,-1,70
 156 39 156 39 156 36 c 128,-1,71
 156 33 156 33 194 33 c 0,0,1
EndSplineSet
Validated: 1
EndChar

StartChar: lessequal
Encoding: 8804 8804 148
Width: 526
GlyphClass: 1
Flags: W
LayerCount: 2
Fore
SplineSet
379 571 m 0,0,1
 391 577 391 577 399 577 c 128,-1,2
 407 577 407 577 420 565 c 128,-1,3
 433 553 433 553 433 545 c 0,4,5
 433 538 433 538 422 524 c 128,-1,6
 411 510 411 510 406 510 c 128,-1,7
 401 510 401 510 377 484 c 0,8,9
 328 433 328 433 258 383 c 0,10,11
 234 366 234 366 234 358 c 0,12,13
 234 354 234 354 243 354 c 0,14,15
 249 354 249 354 351.5 303.5 c 128,-1,16
 454 253 454 253 462 246 c 0,17,18
 470 240 470 240 470 227 c 0,19,20
 470 211 470 211 458 202 c 0,21,22
 448 194 448 194 439 194 c 0,23,24
 433 194 433 194 325 246 c 0,25,26
 253 282 253 282 219 295 c 128,-1,27
 185 308 185 308 140 317 c 0,28,29
 120 321 120 321 115 335 c 0,30,31
 113 343 113 343 113 347 c 0,32,33
 113 357 113 357 124 367 c 128,-1,34
 135 377 135 377 170 400 c 0,35,36
 259 459 259 459 322 520 c 0,37,38
 371 567 371 567 379 571 c 0,0,1
65 189 m 128,-1,40
 74 198 74 198 85 198 c 0,41,42
 91 198 91 198 95 197 c 0,43,44
 182 185 182 185 321 181 c 0,45,46
 404 178 404 178 423 175.5 c 128,-1,47
 442 173 442 173 449 166 c 0,48,49
 459 154 459 154 459 146 c 0,50,51
 459 136 459 136 447 123 c 2,52,-1
 435 109 l 1,53,-1
 355 116 l 2,54,55
 336 117 336 117 305 119 c 128,-1,56
 274 121 274 121 236 123 c 128,-1,57
 198 125 198 125 180 126 c 0,58,59
 116 129 116 129 98.5 131 c 128,-1,60
 81 133 81 133 72 140 c 0,61,62
 56 153 56 153 56 168 c 0,63,39
 56 180 56 180 65 189 c 128,-1,40
EndSplineSet
Validated: 1
EndChar

StartChar: greaterequal
Encoding: 8805 8805 149
Width: 465
GlyphClass: 1
Flags: W
LayerCount: 2
Fore
SplineSet
71 545 m 0,0,1
 80 556 80 556 89 556 c 128,-1,2
 98 556 98 556 162 520 c 128,-1,3
 226 484 226 484 287 445 c 0,4,5
 323 421 323 421 363 397 c 0,6,7
 410 368 410 368 410 345 c 0,8,9
 410 327 410 327 392 317.5 c 128,-1,10
 374 308 374 308 308 290 c 0,11,12
 219 264 219 264 139 227 c 0,13,14
 102 210 102 210 92 207 c 0,15,16
 90 206 90 206 87 206 c 0,17,18
 76 206 76 206 65 216.5 c 128,-1,19
 54 227 54 227 54 238 c 0,20,21
 54 248 54 248 63.5 260 c 128,-1,22
 73 272 73 272 81 272 c 0,23,24
 90 272 90 272 103 280 c 0,25,26
 149 306 149 306 263 342 c 2,27,-1
 308 356 l 1,28,-1
 293 367 l 2,29,30
 289 370 289 370 282.5 374 c 128,-1,31
 276 378 276 378 266.5 384 c 128,-1,32
 257 390 257 390 252 393 c 0,33,34
 160 450 160 450 127 467 c 0,35,36
 91 486 91 486 75.5 498.5 c 128,-1,37
 60 511 60 511 60 523 c 0,38,39
 60 532 60 532 71 545 c 0,0,1
267 198 m 0,40,41
 308 202 308 202 341 202 c 0,42,43
 375 202 375 202 388 195 c 128,-1,44
 401 188 401 188 401 170 c 0,45,46
 401 142 401 142 358 142 c 0,47,48
 330 142 330 142 298 137 c 0,49,50
 262 131 262 131 177 126 c 0,51,52
 134 123 134 123 110 123 c 0,53,54
 81 123 81 123 71.5 128.5 c 128,-1,55
 62 134 62 134 60 150 c 2,56,-1
 60 156 l 2,57,58
 60 183 60 183 103 183 c 0,59,60
 128 183 128 183 170 189 c 0,61,62
 211 195 211 195 267 198 c 0,40,41
EndSplineSet
Validated: 1
EndChar

